/* XPM */
static char *a3e1d170a4ba41ddff659989b8c158f1IQMG5zMfPKd0XfyN[] = {
/* columns rows colors chars-per-pixel */
"50 50 209 2 ",
"   c #3F1E22",
".  c #412E11",
"X  c #54221F",
"o  c #463318",
"O  c #560F3F",
"+  c #4A1234",
"@  c #4D2628",
"#  c #5E242E",
"$  c #563420",
"%  c #643D22",
"&  c #793729",
"*  c #682932",
"=  c #284816",
"-  c #5B4E1F",
";  c #414319",
":  c #654A1E",
">  c #74451E",
",  c #5B5B24",
"<  c #565B23",
"1  c #6B4F23",
"2  c #794624",
"3  c #6C5222",
"4  c #6C5B25",
"5  c #655623",
"6  c #795925",
"7  c #4D6726",
"8  c #576B28",
"9  c #587428",
"0  c #557532",
"q  c #666C29",
"w  c #79682A",
"e  c #63722C",
"r  c #6C732E",
"t  c #68782F",
"y  c #75762E",
"u  c #787C30",
"i  c #737A32",
"p  c #5C0650",
"a  c #6E0C5F",
"s  c #7B155B",
"d  c #721A4F",
"f  c #7D1262",
"g  c #7C0E6A",
"h  c #82372E",
"j  c #883732",
"k  c #953F36",
"l  c #8D4723",
"z  c #954728",
"x  c #965124",
"c  c #995627",
"v  c #974231",
"b  c #855025",
"n  c #A5512B",
"m  c #B75C2C",
"M  c #A8483A",
"N  c #B95339",
"B  c #82672D",
"V  c #C7642E",
"C  c #C66131",
"Z  c #D36933",
"A  c #84005A",
"S  c #9D0056",
"D  c #A3005C",
"F  c #862847",
"G  c #933640",
"H  c #8D2551",
"J  c #982958",
"K  c #90374C",
"L  c #A33F43",
"P  c #8F006B",
"I  c #861468",
"U  c #9C1F6D",
"Y  c #910879",
"T  c #981874",
"R  c #840976",
"E  c #A41B7B",
"W  c #9C2363",
"Q  c #A72E79",
"!  c #A1445D",
"~  c #B24969",
"^  c #558229",
"/  c #4E8135",
"(  c #5D9C38",
")  c #698D35",
"_  c #678634",
"`  c #788634",
"'  c #6F9339",
"]  c #68993A",
"[  c #729C3B",
"{  c #56A437",
"}  c #74A23D",
"|  c #68BB3D",
" . c #74BD3F",
".. c #7CC53C",
"X. c #549A5B",
"o. c #5BA452",
"O. c #5AA74E",
"+. c #61AB4D",
"@. c #7AAC41",
"#. c #75AF4D",
"$. c #63B343",
"%. c #6CB546",
"&. c #6EB943",
"*. c #6DB24C",
"=. c #65BA41",
"-. c #72B646",
";. c #7EB444",
":. c #74BC43",
">. c #7BBE46",
",. c #73B44D",
"<. c #7AB44E",
"1. c #76B849",
"2. c #7CBA4B",
"3. c #65A952",
"4. c #6CAB54",
"5. c #67A458",
"6. c #72AE53",
"7. c #75AA59",
"8. c #6FB050",
"9. c #74B151",
"0. c #7CB353",
"q. c #7DC143",
"w. c #7BC144",
"e. c #81C53D",
"r. c #88C93D",
"t. c #96D23A",
"y. c #83BA47",
"u. c #85BD4C",
"i. c #88BE4D",
"p. c #81B745",
"a. c #82B651",
"s. c #85BA50",
"d. c #83C246",
"f. c #8DC646",
"g. c #86C149",
"h. c #89C249",
"j. c #88C14B",
"k. c #89C24A",
"l. c #8AC24A",
"z. c #8BC34A",
"x. c #8AC34A",
"c. c #8AC24A",
"v. c #8CC34A",
"b. c #8CC549",
"n. c #8CC54A",
"m. c #89C04C",
"M. c #8BC34A",
"N. c #8EC940",
"B. c #90C746",
"V. c #93CB43",
"C. c #90C948",
"Z. c #59178A",
"A. c #66148C",
"S. c #7E0F9C",
"D. c #6A1DA7",
"F. c #8A058B",
"G. c #980A87",
"H. c #9C1282",
"J. c #9E1F9E",
"K. c #A7048C",
"L. c #A5128A",
"P. c #AA0E95",
"I. c #A90698",
"U. c #AB1190",
"Y. c #B41897",
"T. c #B11D86",
"R. c #B92298",
"E. c #9C0DB6",
"W. c #910DAD",
"Q. c #AD0BA6",
"!. c #A903A4",
"~. c #B707A9",
"^. c #BD05B4",
"/. c #BD02BA",
"(. c #BD0CBC",
"). c #B315B1",
"_. c #A528A6",
"`. c #AA32AB",
"'. c #B221B3",
"]. c #C42E96",
"[. c #C518AD",
"{. c #C902BD",
"}. c #C506BB",
"|. c #CE1FB0",
" X c #894289",
".X c #B20BC6",
"XX c #AC0AC1",
"oX c #C601C4",
"OX c #CC01C5",
"+X c #CC02CA",
"@X c #C70CC2",
"#X c #D402CD",
"$X c #DB08CC",
"%X c #CE05D1",
"&X c #D403D3",
"*X c #DA05D5",
"=X c #DB02DA",
"-X c #D907D8",
";X c #CC12C5",
":X c #E305DC",
">X c #E010D0",
",X c #E302E3",
"<X c #E601E9",
"1X c #EB00EC",
"2X c #E705E4",
"3X c #F300F4",
"4X c #F800F7",
"5X c #F700FA",
"6X c #FE00FE",
/* pixels */
"z.z.s.9.>.x.x.x.z.z.z.z.z.z.z.z.z.z.z.z.z.z.z.z.z.z.z.z.z.z.z.z.z.z.z.z.z.z.z.z.z.z.z.z.z.z.z.z.z.z.",
"z.z.s.7.1.k.x.x.z.z.z.z.z.z.z.z.z.z.z.z.z.z.z.z.z.z.z.z.z.z.z.z.z.z.z.z.z.z.z.z.z.z.z.z.z.z.z.z.z.z.",
"z.z.z.z.z.n.x.x.z.z.z.z.z.z.z.z.z.z.z.z.z.z.z.z.z.>.z.z.z.z.z.z.z.z.z.z.z.z.z.z.b.b.z.z.z.z.z.z.z.z.",
"z.z.z.z.x.x.x.n.z.z.z.z.z.z.z.z.z.z.u.j.z.z.z.z.z.&.2.u.z.z.z.z.j.j.z.z.u.h.z.z.b.b.z.z.z.z.z.z.z.z.",
"z.z.z.z.x.n.z.q.h.z.z.z.z.z.z.z.z.j.u.j.z.z.z.z.m.:.*.<.z.z.z.u.u.h.b.j.u.z.z.z.b.b.h.h.z.z.z.z.z.z.",
"z.z.z.z.x.x.z.-.1.u.z.z.z.z.z.z.z.z.z.z.z.z.z.z.x.z.m.j.z.z.j.z.z.z.v.z.z.z.z.z.z.v.>.>.d.z.z.n.z.z.",
"z.z.z.z.z.z.z.9.6.<.z.z.z.z.z.z.z.z.z.d.z.x.j.i.m.x.z.z.z.z.z.z.z.z.z.z.v.z.z.z.z.z.h.%.>.m.x.x.z.z.",
"z.z.z.z.z.z.z.z.u.z.z.z.z.z.z.z.z.z.j.>.q.>.=.u.x.x.z.z.z.z.j.j.z.z.h.z.z.z.z.z.z.z.j.4.4.<.n.x.z.z.",
"z.z.z.z.z.z.z.h.z.z.z.z.z.z.z.z.z.z.i.t.e.*.,.i.n.x.z.z.z.z.j.j.z.d.q.z.z.z.b.b.z.z.z.u.u.z.z.z.z.z.",
"z.z.z.z.z.z.u.u.z.z.z.z.z.z.z.z.z.z.z.u.3.5.0.z.n.x.z.z.z.d.d.z.b.:.d.j.z.z.b.h.z.z.z.z.z.z.z.z.z.z.",
"z.z.z.z.z.z.u.u.z.z.z.z.z.z.z.z.d.z.z.z.<.s.z.z.x.x.n.z.z.b.r.d.d.$.d.q.>.h.z.z.z.z.z.z.z.z.z.z.z.z.",
"z.z.u.z.z.z.<.<.x.z.z.z.z.z.z.j. .j.z.z.z.z.z.z.m.u.z.z.z.b.d.w.d.,.%.>.=.h.z.z.z.z.z.z.z.z.n.b.z.z.",
"z.z.j.z.z.z.a.0.x.b.z.z.z.z.u.u.$.<.x.x.z.z.z.z.s.0.z.z.z.z.9.6.3.8.o.,.*.u.z.z.z.z.z.z.z.z.z.b.z.z.",
"z.z.z.z.z.z.z.z.d.h.v.n.z.z.i.z.u.u.x.x.z.z.z.z.m.u.z.z.z.z.m.m.j.u.m.z.z.z.z.z.z.z.z.z.z.z.b.b.z.z.",
"z.z.z.z.z.z.z.x.h.r.f.x.z.d.z.z.x.b.x.b.z.z.n.x.x.x.z.z.z.z.z.z.z.z.z.z.z.z.v.v.n.n.v.z.z.z.z.z.z.z.",
"z.z.z.z.z.>.u.j.h.&.:.w.d.:.z.z.x.x.x.x.z.z.z.x.n.x.z.z.z.z.z.z.z.z.z.z.z.z.v.v.v.t.V.>.z.z.z.z.z.z.",
"z.z.z.z.z.d.:.:.1.o.$.q.g.| >.v.x.x.x.n.z.z.u.u.v.z.h.z.z.z.z.z.v.v.v.z.u.m.z.z.z.n.2.1.a.m.z.z.z.z.",
"z.z.z.z.z.j.,.h.,.X.,.z.g.| y.z.x.b.h.h.z.z.u.i.z.z.b.b.z.z.z.z.v.y.z.z.i.m.z.z.z.j.+.6.a.z.z.z.z.z.",
"z.z.z.z.z.z.j.z.z.m.x.x.x.b.z.z.x.h.:.d.v.z.x.b.z.z.d.d.z.z.z.z.b...e.i.m.z.z.z.z.h.,.a.z.z.z.z.z.z.",
"z.z.z.z.z.z.z.z.z.z.x.x.x.x.z.z.x.h.-.u.z.n.x.x.z.z.r.:.z.z.z.z.i.t.e.s.i.n.z.z.z.z.v.z.z.z.z.z.z.z.",
"z.z.0.a.z.z.z.z.z.z.z.z.z.z.z.z.b.h.2.u.z.z.x.x.x.x.d.2.z.b.x.x.b.r.>.i.m.C.x.h.z.z.z.z.z.z.z.z.z.z.",
"z.z.>.u.z.z.z.z.z.z.z.d.d.z.z.z.z.z.z.z.z.z.x.x.x.x.x.b.j.;.[ ` ` y 0 ] @.y.x.b.V.f.u.z.z.z.z.a.u.u.",
"z.v.%.%.j.z.z.z.n.x.n.h.e.>.u.i.z.z.z.z.z.z.z.j.x.x.b.} r 3 c n ! M F d @ 8 [ h.V.r.i.z.z.z.z.z.z.z.",
"z.v.2.<.z.z.z.z.z.x.x.x.e.%.s.u.z.z.z.z.z.z.z.z.n.2.7 > n X s ^.&X&X1X4X}.* . e >.y.z.z.z.z.z.z.z.z.",
"z.z.z.v.z.z.z.z.z.j.j.m.j.u.z.z.z.z.z.z.z.z.h.h.[ 5 + U.Y.oX&X`.(.6X6X).|.}.p : 8 u.z.z.z.z.z.z.z.z.",
"z.z.z.z.z.z.z.z.z.j.d.z.x.k.b.x.z.z.z.z.z.z.q.( b n ^.-X<X6X&X'.-X5X6X>X! R.,XI.+ 9 z.z.z.z.z.z.z.z.",
"z.z.z.z.h.d.u.i.z.z.y.j.x.x.x.x.z.z.z.z.z.n.-., Z J %X X:X6X6XK.S K.3X6X4X:X<XD.F.$ } n.z.z.m.u.z.z.",
"z.z.z.z.v.d.:.2.z.x.k.z.b.b.b.x.z.z.z.z.z.n.) & U +X:X.X(.W.3X,X=X3X6X6X#X4X6XE.W.d q 2.z.z.i.u.z.z.",
"z.z.z.z.z.u.%.1.u.z.z.z.z.b.z.z.z.z.z.z.v.p.6 J #XQ @X&XZ.S./.f g g !.3XA {.;X}.4XU.2 ] u.x.x.x.z.z.",
"z.z.z.z.z.u.6.1.u.z.z.z.z.d.h.z.z.z.z.z.n._ x E $XY.1X6X#XF @ 7 ^ 7 o G.OX#XQ R.4X3Xs 0 m.x.n.x.z.z.",
"z.z.z.z.z.z.v.v.z.z.b.x.v.2.2.j.z.z.z.z.z.8 h OX6X6X6X6X}.% _ p.=.*.0 @ ^.6X6X6X6X6XT q j.x.z.z.z.z.",
"z.z.z.z.z.n.z.z.z.z.z.x.x.,.,.1.z.z.z.z.z.u L :XI.#X1X3XF.7 x.j.*.,.*.w F 1X5X(.-X5XW B y.z.z.z.z.z.",
"z.z.z.z.b.B.b.z.z.z.z.z.z.u.j.u.z.z.z.h.w.y H <XP {.`.Q.# ' n.v.i.z.z.u K <X_. X=X#Xj 5 y.z.z.z.n.z.",
"z.i.i.u.z.z.v.z.z.z.z.z.z.z.z.n.z.z.z.z...9 I 3X<X1X_.(.& _ v.v.v.v.z.` M .XJ.2X6XL.Z B h.z.z.v.b.z.",
"z.z.b.h.z.z.z.z.z.z.z.z.z.z.z.z.z.z.z.z.d.^ & a 3X6X:X3XI e x.m.x.x.x.y v oX:X3X5XW V B u.u.i.z.n.z.",
"z.z.z.z.z.z.z.z.z.z.z.z.z.z.z.z.z.z.z.z.d.] b & +X.XA.5XP.- } x.C.i.) % I.R.K -X6XT x r h.z.z.z.z.z.",
"z.z.z.z.z.z.z.z.z.z.z.h.b.b.n.b.z.z.z.z.x.p.4 j #XE..X3X/.j 5 7 7 < > Y 5X{.-X5X&XY.c ' n.z.z.z.z.z.",
"z.z.z.z.d.h.z.v.z.z.z.u.z.h.z.z.b.x.z.z.x.b.t v Q.3X6X}.Y }.U.!.!.P.U.2X4X3X6XE.Z.I.o } z.z.z.z.z.z.",
"z.z.z.z.e.h.u.z.z.z.i.i.z.v.z.t.f.h.z.n.n.n.@.1 M T &XOXK.6X6X5X6X6X6XOXD [.1XF.E.a = 1.s.z.z.z.z.z.",
"z.z.z.z. .,.a.i.z.z.z.z.z.v.v.V.1.d.z.x.x.x.x.) c C k H.5X6XQ.;X6X[.].=X$X4X4X}.d o { 0.u.z.z.z.z.z.",
"z.z.z.z.d.u.j.z.z.z.b.x.x.b.m.9.*.:.u.z.z.z.z.z._ 2 l & /.6X'._.6X>X~ :X6X6X!.& 5 } j.j.x.x.b.f.z.z.",
"z.z.z.z.m.z.z.z.j.z.x.j.x.x.n.s.u.>.z.z.z.z.z.z.m.) 3 m G ~.Q.I L.#XOXU.T.G.* r } b.n.x.x.x.b.b.z.z.",
"z.z.m.z.z.z.z.z.>.h.2.%.i.m.z.z.n.z.z.z.z.z.z.z.v.n.@.t 6 l N C l & k m x - ) i.C.x.z.n.z.b.b.x.z.z.",
"x.j.m.z.z.z.z.z.r. .%.<.i.z.z.z.z.z.z.z.d.d.>.j.m.v.n.x.;.' i w B 4 , e _ p.v.z.C.z.s.<.j.x.n.x.z.z.",
"x.x.n.x.z.z.z.v.>.o.4.0.i.z.z.z.z.b.b.z.>.*.d.v.n.z.z.z.n.n.x.>. .y.z.x.n.b.z.z.z.j.u.z.z.z.z.z.z.z.",
"x.x.n.x.z.z.z.z.s.5.6.u.v.z.z.z.h.b.z.z.j.2.z.b.n.n.z.z.d.z.x.n.t.p.d.d.>.i.u.z.z.b.x.z.z.z.z.z.z.z.",
"z.z.z.z.z.z.z.z.x.x.z.z.z.z.z.z.u.u.z.z.x.x.z.b.b.z.z.z.>.:.>.2.,.$.2.2.$.a.z.z.z.z.z.z.h.h.z.z.z.z.",
"z.z.h.z.z.z.z.z.z.n.z.z.z.z.z.z.j.a.z.z.b.x.z.n.n.z.z.z.u.*.2.3.X.5.a.>.O.7.u.z.z.z.z.v.>.2.u.u.z.v.",
"z.z.2.u.z.z.z.z.z.z.z.z.z.z.z.z.z.z.z.z.z.z.z.z.z.z.z.z.j.u.z.u.0.s.n.z.2.i.m.x.z.z.z.z.u.3.<.s.v.v.",
"z.v.*.*.z.z.z.z.z.z.z.z.z.z.z.z.z.z.z.z.z.z.z.z.z.z.z.z.z.z.z.z.x.x.x.x.n.x.x.n.n.x.z.z.j.o.7.u.v.v."
};
