/* XPM */
static char *b78805c679774b77a99ac380f40bb72b0qSHcCPwqLeATbwT[] = {
/* columns rows colors chars-per-pixel */
"50 50 238 2 ",
"   c #797F27",
".  c #52603E",
"X  c #731D4A",
"o  c #374C51",
"O  c #4F524A",
"+  c #5C6756",
"@  c #636959",
"#  c #697958",
"$  c #505F65",
"%  c #5C6865",
"&  c #556675",
"*  c #676B67",
"=  c #6C7465",
"-  c #6E6C6D",
";  c #7F5950",
":  c #9C770F",
">  c #9C7C37",
",  c #BF7D31",
"<  c #860853",
"1  c #891F5F",
"2  c #9E2770",
"3  c #8C3A50",
"4  c #805861",
"5  c #778D35",
"6  c #6AAA3D",
"7  c #7BAA37",
"8  c #6BB73B",
"9  c #77B73C",
"0  c #6FB62A",
"q  c #77C33C",
"w  c #569853",
"e  c #689641",
"r  c #679A57",
"t  c #76924D",
"y  c #5DA84A",
"u  c #59A159",
"i  c #6CAC4B",
"p  c #68AC46",
"a  c #73AD4D",
"s  c #7CAB4B",
"d  c #76A944",
"f  c #6BB749",
"g  c #73B243",
"h  c #7DBB45",
"j  c #7CB54C",
"k  c #7DBB4A",
"l  c #76B748",
"z  c #6AA756",
"x  c #75A95A",
"c  c #6BB153",
"v  c #7DB453",
"b  c #7DBB52",
"n  c #7EB35B",
"m  c #75B856",
"M  c #6E986F",
"N  c #7DB263",
"B  c #71A769",
"V  c #56926E",
"C  c #7DC243",
"Z  c #7DC34B",
"A  c #948819",
"S  c #A6881B",
"D  c #AC9617",
"F  c #B29310",
"G  c #B8A613",
"H  c #899A2C",
"J  c #9A9D2F",
"K  c #879A39",
"L  c #908C38",
"P  c #AE8D2C",
"I  c #83BD3D",
"U  c #87B73B",
"Y  c #93AB37",
"T  c #B2BB27",
"R  c #B4AB38",
"E  c #AEB538",
"W  c #C79707",
"Q  c #D79D04",
"!  c #C59514",
"~  c #D39B12",
"^  c #C78E1A",
"/  c #E19C01",
"(  c #CCAB05",
")  c #D6A605",
"_  c #D6A515",
"`  c #CDB70C",
"'  c #E7A80B",
"]  c #E9B409",
"[  c #E7B313",
"{  c #CFB428",
"}  c #84C33C",
"|  c #8AC43D",
" . c #88C838",
".. c #95C93D",
"X. c #EAC605",
"o. c #FECD02",
"O. c #F7C907",
"+. c #FED503",
"@. c #F6DB02",
"#. c #FDDB02",
"$. c #FAD508",
"%. c #FBD814",
"&. c #F3D009",
"*. c #FBE001",
"=. c #DBC334",
"-. c #EAC723",
";. c #8A8C4B",
":. c #B39951",
">. c #88AB49",
",. c #84BD44",
"<. c #8ABE45",
"1. c #85BD4B",
"2. c #8ABE4B",
"3. c #87B347",
"4. c #93BE4D",
"5. c #92B948",
"6. c #85A957",
"7. c #84BC52",
"8. c #8BBD53",
"9. c #8BBE5A",
"0. c #85B557",
"q. c #94BB53",
"w. c #94BC58",
"e. c #A9AE4B",
"r. c #87906D",
"t. c #B39868",
"y. c #BB9B71",
"u. c #AC966F",
"i. c #8EB365",
"p. c #B8A476",
"a. c #B2A76D",
"s. c #C49754",
"d. c #C89E6B",
"f. c #C7B479",
"g. c #C9AB6E",
"h. c #E7BA7F",
"j. c #CABF56",
"k. c #86C244",
"l. c #8BC345",
"z. c #85CA43",
"x. c #8CCA45",
"c. c #86C24A",
"v. c #8BC34B",
"b. c #84C94B",
"n. c #8CCA4D",
"m. c #92C344",
"M. c #91CA45",
"N. c #91C44C",
"B. c #92CA4B",
"V. c #9AC343",
"C. c #96D147",
"Z. c #84C351",
"A. c #8BC352",
"S. c #8DC953",
"D. c #88C458",
"F. c #91C352",
"G. c #94CA54",
"H. c #8CD245",
"J. c #95C567",
"K. c #A6CB78",
"L. c #D1C745",
"P. c #3D7994",
"I. c #477EA7",
"U. c #587D86",
"Y. c #3F819B",
"T. c #3D95B3",
"R. c #3D89AF",
"E. c #519199",
"W. c #4288AB",
"Q. c #4494AD",
"!. c #458DB3",
"~. c #468BB1",
"^. c #4691BA",
"/. c #4C92BA",
"(. c #4A90B5",
"). c #5798B8",
"_. c #5589A9",
"`. c #6198BA",
"'. c #609FA6",
"]. c #57A3BD",
"[. c #64A2B9",
"{. c #328DC2",
"}. c #4B97C3",
"|. c #589BC9",
" X c #5A9DD1",
".X c #4D93D0",
"XX c #659DC6",
"oX c #5CA4CA",
"OX c #5DA8D8",
"+X c #56ADD0",
"@X c #61A2CE",
"#X c #62ACDC",
"$X c #63A5D7",
"%X c #67B2DF",
"&X c #7BA0CC",
"*X c #5EABE4",
"=X c #5FB0E7",
"-X c #62ADE3",
";X c #62AEEA",
":X c #60A4E7",
">X c #65B1E4",
",X c #64B2EB",
"<X c #6CB4E8",
"1X c #71B5E4",
"2X c #9C9B8A",
"3X c #9E8D95",
"4X c #A49E88",
"5X c #ACAC95",
"6X c #B6A9AA",
"7X c #B6B8A9",
"8X c #AFABAE",
"9X c #DAB481",
"0X c #C9A287",
"qX c #E6B68D",
"wX c #C6BDBA",
"eX c #BCD18F",
"rX c #B9C2A3",
"tX c #CEC7B4",
"yX c #D5C08B",
"uX c #B5B7CC",
"iX c #91B7CE",
"pX c #C6BAC5",
"aX c #BCC5CA",
"sX c #C7C8CB",
"dX c #D6CBCB",
"fX c #D7D9D6",
"gX c #CFD0CF",
"hX c #E5DAD8",
"jX c #E1CED2",
"kX c #D5E4D4",
"lX c #E9E4DA",
"zX c #F1DAEA",
"xX c #E8E6EA",
"cX c #EDEEF4",
"vX c #FDFEF4",
"bX c #FDFDFE",
"nX c #F7F6F9",
"mX c #F3F1F2",
/* pixels */
"k.v d z.c.8.2.l.l.v.v.v.v.v.v.v.v.S.c.4.m.9.| 8.x.8.M.} A.m.U G.v.v.l.v.v.v.v.v.<.v.A.v.N.l.k.c.c.v.",
"D.N i h A.F.v.l.v.v.2.v.v.v.v.<.U N.x.Z.b.C g 9 a <.c.1.F.c.z.2.v.v.v.2.v.v.N.v.l.v.v.2.v.v.v.2.v.v.",
"l.q.A.l.l.2.v.l.v.v.v.v.l.v.v.v.C.2.l. .5.e.J J L e j B.k.<.v.A.c.v.v.v.2.c.v.v.n.v.v.c.v.2.F.2.l.v.",
"| N.v.z.l.v.v.c.v.v.v.2.2.v.v.v.b A.v.6.=.%.#.+._   e m Z m.4.z.2.2.v.v.l.2.2.v.m.l.m.v.S.v.v.l.v.v.",
"c.S.1.c.l.v.,.b.2.c.v.v.v.v.v.c.l.1.v E *.#.&.#.] ) 5 c G.4.l.<.<.c.v.2.<.2.v.v.c.l.l.k.c.c.v.m.v.v.",
"v.v.v.S.k.c.g h ,.1.v.v.v.v.v.2.m.I w.%.$.$.@.#.X.' D ,.v.v.Z.4.2.v.v.v.c.v.v.v.v.l.k.1.g c.v.l.v.v.",
"F.l.1.8.F.D.a z 1.2.v.v.l.v.v.v.v.7.T #.O.&.%.#.X.Q G <.7.F.7.z.v.v.v.v.v.v.v.v.v.v.v.v.p l 7.v.v.<.",
"<.l.n.2.m.m.1.n.2.A.N.2.l.v.v.v.c.6.{ [ F ` X.W _ ) J D.v.| c.2.v.v.<.v.v.v.2.v.c.<.<.S.f i a 9.v.v.",
"l.v.v.F.l.k.k.v.l.<.c.l.l.v.8.N.U rXgXuXwXlX5Xt.: ! 3.4.4.C c.2.k.v.I <.B.,.G.N.N.v.N.2.2.,.2.v.v.v.",
"l.v.v.c.v.,.v.c.F.Z.v.A.q.q. .N.Z 6.L.=.9XbXmX6X: > 6.| S.l.q F.b.c.9 c.c.k.k.k.l.c.v.v.c.v.v.2.v.v.",
"2.v.N.k.v.0.Z.l.k.N.5.x.N.k.z.C G.K W ( G e.j.~ F L J.} c.v. . .b.l p Z Z c.c.l.l.l.k.v.N.v.v.l.2.v.",
"v.1.N.l.2.i 7.v.N.c.9 ;.Z  .A.Z.8 a.0Xd.d.s.S ' ^ : Z l.w.Z.x.q b.9 c 8 m 0 b.} c.v.v.v.N.k.k.v.l.v.",
"v.1.v.l.v.s 7.k.l.x 2 < # 7.3.f u f.9XqXh.f.0X> P K k.N.2.<.<.r a r p z l x F.D.A.v.v.l.v.v.v.v.v.v.",
"v.v.v.l.S.7.A.k.,.P 1 ; 3 >.| c.s t.g.d.y.t.qXy.: l S.v.k.N.A.i.v.2.S.1.b.1.v.l.F.2.l.l.v.A.A.2.v.N.",
"v.N.v.2.v.v.A.1.T ! X 2 <   S.4. .3.;.;.d.y.d.> F C | 8.x.v.A. .l.l.v.l.c.l.k.l.v.l.l.M.l.2.N.v.v.v.",
"<.v.c.v.<.} c.v.s { , X ; L Z b.8.v.c.K s.d.> W W 3.N.q.1.b.N.c.c.v.N.<.F.N.1.v.2.| C.C.I ,.v.l.v.v.",
"2. .c.x.k 8 C i e -.D S ~ 7 l.z.z.m.2XE ` :.s.:.u.4Xk 2.c.c.c.l.F.2.l.l.F.0.8.l.l.v.A.b a 0.1.2.N.l.",
"N.2.v.v.v a z.c t O.~ ( ( f x.<.>.r.8XE tXmXvXsXsX7XU V.v. .B.v.l.c.c.c.c.2.v.n.v.l.c.a i k c.v.k.l.",
"2.N.v.2.F.k.l.A.1.` $.X._ 7 r.gXcX5XhXxXvXsXgX8X3Xr.N j v.3.q.A.v.z.9 k.v.k.l.,.N.l.l.j v 2.l.2.v.v.",
"v.} l.N.v.<.N.1.Z T #.@.+._ ) f.fXsXbXbXvXmXpX5XfXjXpX8Xi.C.2.z.v.M. .k.1.2.v.N.2.v.k.l.c.B.2.N.v.v.",
"7.n 1.c.A.v.m.v.D.Y o.+.&.$.#.( 2XcXbXvXbXvXxX6XbXnXwXpX7XI 8.k.v.x.} 1.j 2.v.v.8.v.l.z.l.l.<.N.v.k.",
"k.b k.,.S.v.,.v.A.3.{ *.@.%.%.Q 5XbXvXbXmXbXfXpXbXbXdX6X7X>.N.v.N.,.g ,.2.N.v.1.N.M.l.1.8.k.l.v.0.0.",
",.6 h c.l.l.N. .c.b.E X.+.o.) F hXbXbXbXbXbXhX8XtXL.{ W : x B.I l.v.A.A.l.k.F.S.2.M.M.1.D.v.m.c.v.v.",
"c.z 1.k.8.F.2.v.v.x.C Y H J ;.kXvXbXvXbXvXvXxX5XP @.$./ _ >.l.v.k.A.v.l.v.2.v.} ,.N.I k.k.v.c.N.l.l.",
"c.v.N.l.v.A.A.c.b.,.v.7.D.j kXbXvXvXbXbXbXbXbXpXg.#.&.~ ) Y S.k.v.k.l.v.c.1.3.A.v.N.v.2.2.N.v.v.v.v.",
"v.v.m.v.v.v.v.v.1.8.v.l.<.K.bXbXbXbXbXbXbXbXbXfXa.+.#._ ) K A.l.v.v.B.v.2.A.v.c.2.v.l.l.l.l.c.v.v.v.",
"v.v.l.k.c.C k.k.N.,.b.| U aXbXbXbXbXbXbXvXbXbXcXp.o.#.) ) K q.x.N.<.v.n.v.4.v.N.v.v.2.c.c.c.v.N.2.2.",
"c.v.N.c.k h 1.v.m.<.Z.x.9.nXvXnXvXbXbXbXvXbXbXcXy.&.#.[ Q ;.v.Z.v.c.v.c.v.l.l.v.v.l.z.} } z.l.v.1.1.",
"v.v.N.c.l a l 7.D.c.A.4.w.fXnXbXbXbXbXbXvXbXbXnXf.#.$.] ~ r.m.Z.q b.Z.g 1.S.v.c.l.v.7.a a b v.c.v.v.",
"l.l.v.c.h g g 0.c.c.| F.z.r &XiXaXfXcXcXvXvXnXmXa.#.+.] ! r.N.k.9 C k 6 1.c.v.A.l.v.n z z 0.A.l.v.v.",
"c.l.v.v.v.A.v.G.m.M.} c.b.y ].OX|.|.oX).`.).XX).J #.+.O.S r 5.x.Z 6 c a 7.<.l.N.v.v.x.| | x.l.v.2.k.",
"N.v.m.v.c.c.k.<.8.k.A.S.3.d V :X<X,X;X>X,X*X,X XJ $.o.o.F 3.G.l.m p m 0.8.l.N.l.k.c.v.A.2.v.v.v.v.v.",
"v.c.2.N.M.l.k.c.v.v.l.v.A.U E.|. X$X1X#X-X-X>X}.W *.#.&.G j M.c.2.v.v.l.v.2.<.l.v.v.<.N.v.l.v.v.c.v.",
"1.v.2.k.<.l.v.v.v.v.l.v.v.<.'.-X}.}.|.$X1X-X#X}.E.) O.) [ H 7.F.A.v.c.l.S.2.v.c.v.N.c.N.l.c.v.2.N.v.",
"2.v.c.v.v.v.v.v.c.v.N.v.A.U [.<X<X XW.R.OX-X#X/.R.M L R H 0.m.v.N.v.l.c.v.2.c.l.<.v.2.N.c.2.v.2.v.l.",
"A.v.l.v.N.v.v.v.v.v.v.v.b.U ).;X#X#X/.~.#X;X%X^.^.T.W.r m.A.2.Z.l.c.l.G.2.v.k.k.v.v.l.c.v.v.v.c.2.v.",
"N.l.I l.c.k.2.l.v.v.2.2.S.,.|.,X-X$XQ.!.%X-X+XoX^.T.^.N 5.S.x.l.v.c.v.n.c.c.k.h A.4.k.z.c.2.4.l.v.v.",
"v.l.l.c.v.A.v.l.v.c.1.<.x.3.@X,X,XoXW.(.<X=X#X/.(.!.}.N  .l.q.c.v.<.v.,.k.k.Z f h ,.k.C b.2.2.k.v.v.",
"2.v.l.c.Z.Z.v.<.v.v.2.2.k.3.@X=X;XOXQ.!.OX=X>X}.^./.!.7. .S.8.2.v.c.v.,.,.j m y p l c.8 g 2.N.c.v.v.",
"2.S.k.9 d j A.c.,.N.F.2.z.3.@X;X,X$XW.Q.#X;X<X}.Q.Q./.6.n.,.m.b.v.N.k.1.9 m z w p j S.8 p 0.q.c.v.k.",
"S.v.,.<.<.v.v.n.Z.n.l.} v.0.XX-X=X+XW.^.#X;X,X}.T.R.}.a m.A.<.M.2.m.v.2.2.N.1.b c.2.v.2.k.2.v.v.M.B.",
"1.v.v.F.v.k.l.,.v.N.<.G.N.9 ).%X,X#X(./.%X;X,X}./././.N N.M.m.F.n.k.c.v.v.<.z.B.v.v.v.v.v.v.v.v.v.m.",
"<.c.v.v.v.v.k.h m.1.6 m v.U E. X|./.P.Y.XX:X$XOXI.W.Y.c G.x.| x.4.<.N.z.l.<.v.q.v.v.S.2.2.v.v.l.v.v.",
"<.v.v.2.c.v.c.,.h g j b F.5.E.:XOXOX/.R. X|.).).R.Y.I.r z.<.c.v.7.A.v.2.S.c.v.1.k.v.1.1.,.2.c.l.v.v.",
"c.v.v.v.v.n.v.h w y m k.B.s @ & & & $ o ).OX>X XW.T.W.B K.G.G.Z.f q  .F.D.c.k.c.k.v.v.1.1.2.v.v.l.v.",
"v.v.v.v.v.v.c.,.u n w...3.+ * = - - O O % % & & O O O 6XzXjXjXdXeXeX4.2.C C c.7.c.v.v.v.2.v.v.v.v.c.",
"c.v.2.l.c.v.v.v.c.v.v.| s * * @ + @ O * * = @ = O . o 6XdXwXtXjXzXgX5Xz.8 8 0.5.v.2.v.v.v.c.c.c.2.c.",
"v.l.v.N.v.2.v.v.m.<.c.Z.c.2.U a s >.@ % * % - @ O + 5 q.0.B B i.B M B k l w x F.v.2.k.c.c.,.h c.2.v.",
"2.c A.B.c.l.S.<.l.v.v.v.v.v.v.N.G.n.1.s d d d 6.v.n.v.n.c.<.k.c.b b 1.v.c.1.2.v.v.c.N.N.k.l.f B v 1.",
",.y 1.v.c.l.c.v.v.v.v.v.v.N.v.v.k.k.v.N.4.v.N.N.l.c.v.v.v.v.v.v.A.c.v.c.v.v.v.v.c.c.v.v.k.N.p r 0.A."
};
