/* XPM */
static char *_a29f8b08f644b5d9d5d2e7bfff3fad8Vk92zgCsDXeqhroq[] = {
/* columns rows colors chars-per-pixel */
"50 50 251 2 ",
"   c #41473D",
".  c #60733D",
"X  c #702145",
"o  c #7C094E",
"O  c #3A5B6E",
"+  c #53524B",
"@  c #4C4E4D",
"#  c #5A6C5A",
"$  c #586D4C",
"%  c #64695C",
"&  c #455960",
"*  c #546878",
"=  c #566A6D",
"-  c #66676A",
";  c #6A7365",
":  c #71726D",
">  c #A07324",
",  c #8D1F59",
"<  c #A12070",
"1  c #8B315B",
"2  c #815344",
"3  c #907D54",
"4  c #A07C48",
"5  c #80536A",
"6  c #71913A",
"7  c #59AE3B",
"8  c #7CA637",
"9  c #6BB93D",
"0  c #73BC3C",
"q  c #78B63A",
"w  c #7DB52E",
"e  c #7BC43A",
"r  c #599C58",
"t  c #4E914F",
"y  c #78984B",
"u  c #70924A",
"i  c #5EAD4C",
"p  c #6AAC4B",
"a  c #69A947",
"s  c #73AE4C",
"d  c #76A945",
"f  c #6AB549",
"g  c #73B344",
"h  c #7CB446",
"j  c #74BA42",
"k  c #7CBB44",
"l  c #7CB44B",
"z  c #7DBC4A",
"x  c #76B74A",
"c  c #6DA654",
"v  c #65A658",
"b  c #73AB51",
"n  c #7AAE57",
"m  c #7DB553",
"M  c #7EB953",
"N  c #7DB35B",
"B  c #78B85A",
"V  c #6AB457",
"C  c #669667",
"Z  c #79946C",
"A  c #77B164",
"S  c #66A860",
"D  c #539660",
"F  c #7DC443",
"G  c #7DC54B",
"H  c #7AC152",
"J  c #6CC545",
"K  c #8B8C1E",
"L  c #AB8615",
"P  c #B79816",
"I  c #B1940F",
"U  c #BEA00E",
"Y  c #8B9927",
"T  c #8D8B31",
"R  c #8F9535",
"E  c #AD9031",
"W  c #97A529",
"Q  c #8ABE3D",
"!  c #87BB38",
"~  c #96B73A",
"^  c #94A839",
"/  c #ADA830",
"(  c #C79C08",
")  c #D49D02",
"_  c #D19600",
"`  c #D49611",
"'  c #C38814",
"]  c #C8A409",
"[  c #D9A906",
"{  c #CAA912",
"}  c #D4A215",
"|  c #CBB318",
" . c #D3B80E",
".. c #E9BA04",
"X. c #E7AB0B",
"o. c #C59220",
"O. c #C7B236",
"+. c #D2B32C",
"@. c #F0BE27",
"#. c #84C33D",
"$. c #8AC43C",
"%. c #8AC73B",
"&. c #91C939",
"*. c #98D635",
"=. c #D6C30A",
"-. c #EAC50A",
";. c #FDCC0B",
":. c #F8C905",
">. c #FED301",
",. c #FDDB00",
"<. c #FDDA0C",
"1. c #F7D704",
"2. c #FDD812",
"3. c #FBC912",
"4. c #FFE100",
"5. c #F9E10D",
"6. c #D8CB31",
"7. c #8D9444",
"8. c #B49256",
"9. c #86A943",
"0. c #84BD44",
"q. c #8ABE45",
"w. c #85BD4B",
"e. c #8BBE4B",
"r. c #86B545",
"t. c #92BD4D",
"y. c #95BD46",
"u. c #86A957",
"i. c #84B453",
"p. c #84BB53",
"a. c #8BBE52",
"s. c #8AB958",
"d. c #92BC53",
"f. c #95B255",
"g. c #99A946",
"h. c #B6A54F",
"j. c #91986C",
"k. c #B79968",
"l. c #B5916B",
"z. c #8AB962",
"x. c #99BA67",
"c. c #98AD71",
"v. c #B9A974",
"b. c #BCAF68",
"n. c #C2955E",
"m. c #D1B752",
"M. c #C29672",
"N. c #CCAB6D",
"B. c #E1BA7F",
"V. c #85C345",
"C. c #8BC345",
"Z. c #8DC944",
"A. c #86C24A",
"S. c #8BC34B",
"D. c #85CA4C",
"F. c #8BCA4C",
"G. c #86C944",
"H. c #92C345",
"J. c #92C44B",
"K. c #91CA4B",
"L. c #94C844",
"P. c #85C251",
"I. c #8BC352",
"U. c #8BC953",
"Y. c #88C55A",
"T. c #92C353",
"R. c #95CA55",
"E. c #91D043",
"W. c #98C171",
"Q. c #D4C07B",
"!. c #E8C84D",
"~. c #3C7C9E",
"^. c #437C99",
"/. c #457DA0",
"(. c #3B89A7",
"). c #3E91BA",
"_. c #398DB9",
"`. c #43859E",
"'. c #588E9B",
"]. c #7CA680",
"[. c #498AAA",
"{. c #4692AC",
"}. c #458AB5",
"|. c #4795B6",
" X c #5392BD",
".X c #569BB9",
"XX c #5C97AC",
"oX c #669AB4",
"OX c #60A1BD",
"+X c #609196",
"@X c #3694C7",
"#X c #4B8EC3",
"$X c #4A96C1",
"%X c #5B9CC4",
"&X c #559AC7",
"*X c #5B94CE",
"=X c #689BC7",
"-X c #58A3CC",
";X c #59A7D7",
":X c #5AB5DB",
">X c #62ACDC",
",X c #63AAD5",
"<X c #64B2DA",
"1X c #69A2C9",
"2X c #639EE4",
"3X c #58ABE6",
"4X c #5DB3E7",
"5X c #5CACF3",
"6X c #6CACEA",
"7X c #63AAE5",
"8X c #63B1E2",
"9X c #66B3EA",
"0X c #6AB0EB",
"qX c #5294E8",
"wX c #8F928B",
"eX c #96A785",
"rX c #A6BB8B",
"tX c #B8AD90",
"yX c #B7A687",
"uX c #A19DAE",
"iX c #AFB8A8",
"pX c #B5ACAF",
"aX c #CA9C82",
"sX c #D0B689",
"dX c #E2B784",
"fX c #C7B6B3",
"gX c #B0D086",
"hX c #B6C3B3",
"jX c #CFD0B3",
"kX c #D8C398",
"lX c #B7B5C5",
"zX c #86B3C6",
"xX c #CFBDD3",
"cX c #ACC6D3",
"vX c #CCC7C7",
"bX c #D9D9D9",
"nX c #CFCFD1",
"mX c #E8DED6",
"MX c #E8E4DC",
"NX c #E1E3CE",
"BX c #DCDDE2",
"VX c #E0D3E4",
"CX c #EAECED",
"ZX c #FBFBEC",
"AX c #EEF6F8",
"SX c #FCFDF4",
"DX c #F5FDFC",
"FX c #FDFDFD",
"GX c #FBF6F7",
"HX c #EBEDF0",
"JX c #DBEADA",
/* pixels */
"V.m g G.V.a.A.C.S.S.S.S.q.S.A.S.C.A.D.C.I.L.$.P.U.I.J.K.q.C.K.V.S.S.S.C.S.J.C.C.e.S.I.S.J.C.C.S.A.S.",
"T.A c k I.T.S.C.C.e.S.S.S.S.S.e.J.q.J.A.e.H.C.T.r.d a 8 Y.S.t.J.S.S.S.S.S.S.t.C.C.S.S.e.S.e.A.A.S.S.",
"C.a.a.C.H.e.S.C.A.S.S.S.S.S.S.S.C.e.S.T.a.A.I.p.a u W W g.r.A.S.S.A.C.S.S.S.A.V.S.H.F.e.S.S.I.S.C.S.",
"$.J.S.Z.C.e.S.A.S.J.S.S.S.q.S.S.S.0.V.F.A.I.A.Y K ( :.>.2.6.f.S.A.V.C.F.e.w.S.A.K.V.C.S.U.e.S.H.S.S.",
"S.I.w.S.V.C.V.A.A.A.S.S.S.S.S.S.S.w.w.D.S.S.C.Y ` -.<.:.,.<.+.f S.w.A.C.V.A.S.A.S.q.C.V.A.A.S.C.S.e.",
"S.F.A.U.C.A.g z r.w.S.S.S.S.S.e.e.A.t.S.H.t.~ E X.=.,.,.<.,.3.z.e.S.S.S.q.A.S.A.A.C.S.0.k G S.C.S.S.",
"I.S.w.a.I.T.b p w.e.S.J.C.S.S.S.J.A.t.z C.I.k / _ ;.1.:.3.3.<.O.i.S.J.C.S.S.S.S.S.S.S.S.g f p.a.S.C.",
"q.Z.F.e.H.C.w.U.e.I.S.e.V.S.S.S.S.D.e.0 V.H 7 W X.] ] :.| P =.+.h e.S.q.S.S.S.S.S.q.q.U.a a s T.S.S.",
"C.S.S.T.C.q.V.I.J.e.S.A.S.C.J.q.&.a.C.*.w p n ! ( > k.rXCXlXlXnXhX! #.k D.A.e.H.%.S.e.A.A.a.e.C.S.S.",
"S.S.S.A.S.e.S.e.S.S.S.C.C.S.S.D.Y.S.C.p.v r i.u.> > tXHXFXsX+.!.u.Q e A.A.e.t.A.I.d.t.L.V.V.C.S.e.S.",
"e.e.J.V.S.i.a.V.S.V.S.S.S.S.S.D.A.C.$.s.A z K.T.T ` ` m.m.P  .( 9.e V e r.F D.U.J.J.C.J.I.S.J.a.C.S.",
"A.e.S.C.e.b p.H.S.V.J.J.A.w.V.j k A.C.F.S.S.S.0.K > [ L 8.M.M.v.j.j V j A.7 3 g S.G.V.P.I.S.S.e.S.S.",
"S.e.S.$.S.n p.Z.A.q.J.q.J.0.w.q p w.C.V.e.I.I.S.Y L 8.M.B.kXdXB.N.r f r #.. o < u.w.P.a.%.%.e.K.S.S.",
"A.e.S.C.S.a.a.V.S.V.S.e.S.e.I.A.p.S.S.A.V.e.q.S.e.> l.N.k.8.n.aXk.u.C.P.^ 1 - , E r.S.e.Z.C.e.C.S.S.",
"C.J.S.q.S.A.I.q.F.F.D.A.w.A.S.A.S.A.a.Y.K.S.a.F.e.I 4 sXN.k.7.y i.0.I.J.6 o < X o.~ H.y.I.P.e.q.S.S.",
"V.J.A.S.q.Q C.S.0 k 0 G q A.w.S.J.Z.C.V.C.S.S.%.l I _ 4 n.k.T A.L.S.$.t.K % o o.+.y.K.*.F 0.H.I.S.S.",
"I.%.S.I.k g A.f r i 0.S.f J C.C.D.t.G.d.C.a.s.H eXl.8.h.E [ O.wXq.S.t.F.9.] L P @.9.L.0.p w.z S.S.C.",
"C.S.C.C.M g e b r f C.C.9 0 S.T.P.d.#.$.D.Z.A.8 pXnXvXFXGXjXh.pXu.F r.R.V.{ } U -.! A.c S r.w.J.C.C.",
"I.e.e.S.I.q.K.I.G A.S.J.P.S.T.A.J.e.0 S.Y.#.d.u.wXwXiXvXvXDXJXBXuXCXnXu 8 [ -.,.=.Q S.b N q.S.S.S.S.",
"S.C.S.S.S.w.I.e.I.S.J.q.J.e.S.I.I.q f S.C.x.iXpXbXnXpXfXFXFXFXFXvXBXsX[ } ;.<.,.~ a.S.y.S.H.D.V.S.S.",
"0.N w.V.T.q.$.S.V.S.S.V.H.V.A.S.%.k B V.Q iXfXxXGXFXpXNXGXFXZXSXAXwXU 4.>.1.2.1.^ I.V.G.A.S.C.L.S.A.",
"V.x V.C.S.A.e.A.L.S.w.w.A.I.S.%.I.V.J.J.u.fXpXxXGXFXfXbXSXFXFXFXFXyX[ 3.<.1.1...r.Z.&.0.Y.e.J.A.i.i.",
"l a 0.w.V.J.I.Z.J.P.S.#.e x a.e.I.C.&.I.9.E I +.m.jXiXBXFXDXFXFXSXCX' [ -.1.>.W P.Z.*.w.T.A.S.p.S.S.",
"V.b w.V.a.J.A.V.y.F.A.Q 9 x f.C.V.J.e.Y.9.) [ :.4.E uXMXFXFXSXFXDXDXbXR / W 9.A.S.S.w.w.w.S.C.L.C.S.",
"S.S.H.S.S.U.I.e.e.A.V.q.e.e.A.C.C.y.V.D.g.` [ ;.,.b.xXGXFXFXFXFXFXSXFXbX0.B B H.S.S.S.e.J.e.J.S.S.C.",
"S.S.S.C.S.S.S.C.e.e.A.A.S.t.S.S.A.J.A.P.^ [ [ <.,.b.bXSXFXFXDXFXFXFXSXFXrX%.C.q.e.S.C.C.C.S.V.A.S.S.",
"S.S.S.V.w.F V.V.e.P.e.S.S.y.S.I.D.t.S.Y.Y ) } <.:.v.CXFXFXFXFXFXSXFXGXFXnXw Y.Y.J.V.V.D.A.w.A.J.e.e.",
"S.S.S.S.z z w.S.S.S.S.e.C.C.A.e.S.e.S.Y.R ) X.,.1.v.CXFXFXFXSXSXDXFXFXFXSXq.Y.C.S.C.G.#.#.C.S.J.w.w.",
"S.S.J.A.k g x p.S.S.S.C.C.Z.S.S.G.V.e.V.j.} ..,.-.v.DXSXFXGXFXDXFXFXFXFXnXT.Q H.C.S.p.s b p.A.q.S.A.",
"C.S.C.A.x g g i.S.C.C.C.V.D.S.S.C.C.a.$.Z ' ..<.>.m.CXZXGXZXAXHXbXcXzX1XC w.G a.C.I.N c c p.U.V.S.S.",
"V.C.S.S.A.A.I.T.S.C.C.S.w.x z S.J.V.J.C.u > :.,.5.R *XoXoXOX=X=X&X-X3X XB C.e.J.A.S.Z.%.$.C.J.q.S.S.",
"I.J.S.S.S.S.C.C.I.V.H.S.B p g C.a.S.S.U.r.P :.<.,.^ qX8X3X3X7X8X9X0X3XC ~ J.%.V.S.S.S.I.S.A.S.A.S.S.",
"A.A.S.J.J.Z.V.S.A.A.A.S.V.e.q.A.e.S.V.G q { ;.1.,.P qX:X8X8X6X9X0X%X#X+X%.I.0.A.J.S.q.J.C.C.S.S.A.S.",
"A.e.q.V.C.C.C.S.S.J.J.S.J.S.S.S.Z.V.H.I.8 | ..-.] D  X6X;X>X;X%X}.-X0XXX! e.S.A.A.J.A.J.S.C.A.e.J.S.",
"e.e.S.S.S.S.S.S.S.V.e.q.q.S.S.S.V.U.e.s.l Y W T Z @XXX2X4X7X~.{.;X<X0XoXk T.S.V.S.S.e.S.A.e.S.e.S.q.",
"S.S.S.S.S.S.q.J.S.C.S.S.S.S.S.S.d.q.K.%.0 M r }._.(.{.3X9X6X[.|.:X<X9XOXr.T.V.G.S.J.V.S.A.S.S.S.S.S.",
"T.C.Q V.A.V.e.C.S.A.S.S.J.S.V.q.e.I.w.J.e.J.n {.|.|.$X9X7X:X#X}.;X>X5X1Xk H.V.F S.t.C.V.S.S.e.S.S.S.",
"J.V.0.D.I.S.S.C.S.q.e.V.A.S.C.L.H.H.S.$.H.q.A ).[.$X|.,X<X<X{.[.>X8X9X%Xl C.G f z 0.V.F G e.e.C.S.S.",
"e.S.F.V.a.P.S.V.S.S.e.e.A.C.K.K.J S.I.K.0.R.i.|.#X{. X<X3X6X[.(.;X,X9X-Xg r.V i a k D.9 g e.t.V.S.A.",
"e.S.V.q g l a.A.S.S.S.S.S.C.C.&.j J.a.S.A.V.s.}.|.).&X:X5X6X[.|.,X7X3X%Xd w.v t p l P.9 a i.T.S.S.C.",
"S.S.q.e.r.S.S.S.H.J.D.V.V.e.u.v g G Y.C.q.y.n }.{.}.&X8X3X8X|.[.;X<X8X.Xn %.Y.r.A.w.e.q.V.e.S.S.K.Z.",
"A.S.S.J.J.C.V.0.e.V.#.S.J.I.Y.l 0.V.S.C.C.K.A _.|._.;X6X7X9X}.#X3X<X4X*Xr.V.S.T.S.S.S.J.S.S.S.S.J.C.",
"w.A.S.S.S.S.V.0.U.x g w.S.q.C.Z.G.V.S.I.S.H.c [.}.}.&X>X,X%X/./.#XOX*X'.! F.A.V.S.S.I.A.e.A.S.A.S.S.",
"q.S.A.e.D.S.D.A.z f s w.S.C.S.I.I.V.C.J.F ! r ~.`.~. X=X%X%X~.{.-X>X8X+X#.F.S.C.V.S.A.w.0.e.S.C.S.S.",
"A.S.S.S.S.F.S.q r v M w.S.J.S.q.q.J.T.x.z.x.Z ^.{.).;X4X;XXXO & * * * - y C.J.a.V.A.S.w.w.e.S.S.A.S.",
"S.S.S.S.S.S.A.0.v n a.S.C.C.I.R.gXjXjXbXbXNXpX@ @ @ = = - - + + % ; % : # g e.s.S.A.S.S.e.S.S.S.S.S.",
"A.S.q.C.e.S.S.S.Z.A.S.T.C.A.Y.gXbXVXnXvXnXvXpX  @ + - % ; ; % + - - % - $ i e.a.J.e.S.S.S.A.A.A.S.e.",
"A.S.S.J.S.A.e.S.S.A.H.V.V.F.q.q.x.gXc.x.c.tXjX$ . . % - - - # # t t C 9.k t n t.S.q.A.V.A.0.k A.e.e.",
"e.f Y.J.V.J.S.A.S.S.S.C.S.S.S.C.q.V.C.C.J.C.J.J.R.A.r.d d y l i.i.w.I.I.e.e.w.S.J.D.e.S.C.S.x S i.p.",
"w.i 0.J.w.V.S.S.S.S.S.S.S.e.S.S.S.S.S.S.S.V.S.A.C.C.S.T.U.C.S.C.S.e.S.S.S.S.S.S.A.A.H.S.C.S.p r i.S."
};
