/* XPM */
static char *c185817907264084a220a4521588e0aewpptN0DM0DQ1WA7q[] = {
/* columns rows colors chars-per-pixel */
"50 50 78 1 ",
"  c #64B93D",
". c #6ABC3E",
"X c #73BE3E",
"o c #7DC43D",
"O c #50965D",
"+ c #529A5A",
"@ c #589D59",
"# c #5AA74E",
"$ c #5FB243",
"% c #5BA452",
"& c #62AC4B",
"* c #6AAF4E",
"= c #64B344",
"- c #6BB546",
"; c #6EB943",
": c #6DB24B",
"> c #71B646",
", c #73BB44",
"< c #7BBE46",
"1 c #73B44C",
"2 c #7AB54F",
"3 c #76B849",
"4 c #7CBA4B",
"5 c #65A952",
"6 c #6CAA53",
"7 c #6BA35A",
"8 c #72AD54",
"9 c #79AB57",
"0 c #70A758",
"q c #76AB5B",
"w c #6FB050",
"e c #74B151",
"r c #7CB353",
"t c #7CC043",
"y c #81C53D",
"u c #87C93B",
"i c #8BCA3E",
"p c #93CD3F",
"a c #90D037",
"s c #9AD23C",
"d c #85BD4C",
"f c #88BE4D",
"g c #80B650",
"h c #82B452",
"j c #85B751",
"k c #85B850",
"l c #86BB51",
"z c #86BC50",
"x c #81C343",
"c c #83C441",
"v c #83C244",
"b c #82C146",
"n c #84C147",
"m c #85C247",
"M c #86C544",
"N c #89C543",
"B c #88C347",
"V c #8DC647",
"C c #8FC746",
"Z c #8EC940",
"A c #83C048",
"S c #87C04B",
"D c #87C04C",
"F c #89C349",
"G c #8BC34A",
"H c #8BC24B",
"J c #8BC34B",
"K c #8CC34A",
"L c #8CC548",
"P c #8CC449",
"I c #8CC44A",
"U c #89C04C",
"Y c #90C746",
"T c #92CC41",
"R c #93CC41",
"E c #94CD40",
"W c #97CE41",
"Q c #92C944",
/* pixels */
"GGle,GGGGGGGGGGGGGGGGGGGGGPLGGGGULULULLULJLUGGGGGG",
"GGlq3GGGGGGGGGGGGGGGGGGGGGFFGGGGLULJLUJJUPJPGGGGGG",
"GGGGGGGGGGGGGGGGGGGGGGGGG<SSGGGGLLJLJLULQPLUGGGGGG",
"GGGGGGGGGGGGGGGGGGdGGGGGG;4SGGGGDdJUDJLUPPJPGGGGGG",
"GGGGGGGtGGGGGGGGGSdSGGGGU,:2GGGSdULLDLLJPUGGSLGGGG",
"GGGGGGG13ddGGGGGGGGGGGGGGGfSGGdGLJLUUUJPJP,<DUGGGG",
"GGGGGGGe62GGGGGGGGGbGGfdGGGGGGGGUPULPLUPPUU-<dDGGG",
"GGGGGGGGGGGGGGGGGGG<tt;fUGGGGGGGLJPJPUJPJLL6:dGGGG",
"GGGGGGSGGGGGGGGGULLRo:1fLGPUPLDLDAtLSLPPLLGUdUGGGG",
"GGGGGGndGGGGGGGGLJJd57rUGGGJUStGLtbDGLJLUULUPGGGGG",
"GGGGfGddGGGGGGGGbLLUrdJLLJPPLLumA=AttDSLPUUPUPGGGG",
"GGdGGG2rGGGGGGGGXSJPULULddUPLPmtt1>t;ALLPPLGGPGPGG",
"GGSGGGggLGGGGGdd=1GGPUPLlrUJULr65e%1:ULDJUPUGGGPGG",
"GGGGGGfGnbGLGGGSdGGGUJPJUDLJULUUDUDDDUJLLJPPGGVVGG",
"GGGGGGGGniVGGAGGGGGGJLJLGLULLJUJLULDGLLJLQPJGGGGGG",
"GGGGG<bGP,,<A,GFGGGGJLDLUJLUJJLJLUGGLGULLWR4GGGGGG",
"JJLULD,t>%=bn <KGGGGPGdlLGLLLGGUGGGGdGGGGP41lUKGGG",
"LLULSJ:U1@1dB.bGGGDGPffdLGnLGGGLGSGGdfGGGS&rlUGGGG",
"ULJJLLULUDGGKGGGKP,bGGGGGGcmPUGGPobfUKGGGS12UPPGGG",
"LULULUJPGGGGGGGGKn-dLGGGULN,GPULVaylfPGGLGKPPPUPGG",
"JUrgULUUGLGLBKGGKG4dGLGPLUA4GGGGPL<dUPLJGGSLGGGdUG",
"JL4dLLPLGSGDdGGGGGGGGGFGGLGGGGGGJd1APUJPQVDGGLLgdG",
"LJ,-DULGPULny<dfGGGGGGGfUGGGGGGGUPULUPUJRZdGGGUUGG",
"UP4eULULPPPPy-lfGGGGGGGGLDGGGGGGJLJLUUJLSbdLGGLGGG",
"PJLJUUPPUDSGDdUGLJUPSLSDGULULJUPUPUJdgJLGGGGGGGKGG",
"ULJPPPLJLDSLLnGGLPPULLt;4LLSDdJPLLPPUPUPGGGGGGGKGG",
"PUPUGddfLJddGPPGUPLJUL444GSDUlLJGUGGPPJUGbSLGGfdGG",
"JLJLFb,<UGLJLFKGPUULLUGGUGLLJUPULDLGUPLPGi<dGGddDG",
"GGGGVd-3dPJPBLLSPJUPGGGGULDLLJLAtG4dUGGGdg:3dGGGGG",
"GGGGLd83dULUJALLJLPUGGGGLJLBUPBSo<=4fGGGGr81dGGGGG",
"GGGGGGGKULLJL<4DLLPJGGGLDLLDULLL=*1lUGGGGGGGGGGGGG",
"GGGGGKGGLJJULew4JUJLGGGRoGD-4BLU:12UGGGGGGGGGGGGGG",
"GGGGKYKGGGGGGSdGPPJDtGmuFdn$3KKKffLGGdfVLLQLGLfLPP",
"GfGdGGKKGGGGGGGGUPLLotd&,<<,9jKKKKGGGGSFGGGLGUfLPP",
"GGGGGGGGGGGGGGGGJULDb,,$=1-4ddGGGGGGLGGGGGGGUUUPPU",
"GGGGGGGGGGGGGGGGLJULD,*6&0:gGGGGGGGGLnSGGGGGLLGULJ",
"GGGGGGGGGGGGGPKKGLLJLJJJPGGGGGGGGGKPGnoGLLULGGLUUP",
"GGGGbGGKGGGdGBGKLBULUJLJGKGKGGGGGGnBGf,<<S<LDULLLJ",
"GGGGubfKGGGdGKGsFLULLJPPGGGKKGGGGGbX31&$4d.4lUULUP",
"GdGGX1gfGGGGGGUR44LULJUPGGGGGSGGGGG,f*+6dt rdJLULJ",
"PPGPDdDPGGGGGGdr:,DUPJJUPPUJGLLPGGGdGG2dJJdDFGVYUP",
"LUPSULJJSGGGGGGl4AJLULBJJUPLLQCPGGGGGKPGGKPPPGPVLJ",
"GDDLPLPP<n4;fUGGPPPUPLULLJLULGLLGGGGGGKGGGGdGGGGUP",
"PUDJPUUPu,:3fGGGULJLAAtUPULULUBDGGGGGGKKGGrdGGGGLJ",
"LPUPLGUU<%6rfGGGLLUUt:DPUPPJLJUA<GGGBGGKGSdGGGGGUP",
"LUJPULLLd78dKKGGLLPLD4LPPPJLAULLst4b<fdfGGGGGGGGLJ",
"ULLJLULGUGGGGGGGddJJLSJPPJUPt,<41=4t=gGGGGGGSGfGUP",
"ULGDGGGPPSGGGGGGDlUBJLPPPPPUd:d5O7g4#9dGGGGG<<fdLJ",
"PP3ALJJUJULJJLPPJLPPJULUJUPPUdDd4lGGddfGGLULd5glJL",
"UP:eULLLLJULUJUPUJUPLLJLLJUPJPJLPKGKGGLSLLLUD%0fPU"
};
