/* XPM */
static char *_ab3ac4168b4428bd0d88621c5235501Hg0mQK7kZdIjnKBU[] = {
/* columns rows colors chars-per-pixel */
"65 65 103 2 ",
"   c #5DB63D",
".  c #62B73E",
"X  c #61BA3A",
"o  c #6BBC3E",
"O  c #73BE3D",
"+  c #7DC636",
"@  c #76C03E",
"#  c #7BC33C",
"$  c #4C955D",
"%  c #509C55",
"&  c #589E57",
"*  c #539A5A",
"=  c #5DAE45",
"-  c #52A24F",
";  c #5BA94A",
":  c #5EB341",
">  c #56A252",
",  c #5DA454",
"<  c #5CA059",
"1  c #63AF47",
"2  c #65AD4B",
"3  c #6BAE4E",
"4  c #64B444",
"5  c #6AB644",
"6  c #67B940",
"7  c #6CBA41",
"8  c #65B148",
"9  c #6BB24A",
"0  c #71B747",
"q  c #74BC44",
"w  c #7CBE46",
"e  c #74B44D",
"r  c #7BB64E",
"t  c #75B849",
"y  c #7CBA4B",
"u  c #64A556",
"i  c #6AA757",
"p  c #66A954",
"a  c #6CAB53",
"s  c #6AA35A",
"d  c #73AD54",
"f  c #7DAF55",
"g  c #74A759",
"h  c #75AA59",
"j  c #7BA95D",
"k  c #75B251",
"l  c #7CB352",
"z  c #7FB850",
"x  c #6FA360",
"c  c #7DC143",
"v  c #83CB36",
"b  c #8BCC35",
"n  c #83C63D",
"m  c #85C93C",
"M  c #8CCB3D",
"N  c #91CC3F",
"B  c #9BD635",
"V  c #93D03B",
"C  c #9CD43B",
"Z  c #A8DD34",
"A  c #A1D738",
"S  c #80BF47",
"D  c #80B74E",
"F  c #84BD4C",
"G  c #86BF4C",
"H  c #85BC4F",
"J  c #87BD4E",
"K  c #86BC4F",
"L  c #88BF4C",
"P  c #89BF4C",
"I  c #88BE4D",
"U  c #89BE4D",
"Y  c #83B353",
"T  c #81B651",
"R  c #82B553",
"E  c #85B751",
"W  c #84B652",
"Q  c #82B556",
"!  c #84BA51",
"~  c #86BB51",
"^  c #80B259",
"/  c #83C343",
"(  c #81C046",
")  c #85C345",
"_  c #84C246",
"`  c #8EC647",
"'  c #8CC940",
"]  c #82C048",
"[  c #86C04A",
"{  c #89C348",
"}  c #88C14B",
"|  c #89C24B",
" . c #8AC34A",
".. c #8BC34A",
"X. c #8AC24B",
"o. c #8BC24B",
"O. c #8CC34A",
"+. c #8BC448",
"@. c #8CC44A",
"#. c #89C04D",
"$. c #91C845",
"%. c #92C944",
"&. c #93CA44",
/* pixels */
"......~ r 7 ......................................................................................................................",
"......^ x 8 S O...................................................................................................................",
"........Q z S ....................................................................................................................",
"..........O.....................................................S q ..................[ ................%.%.......................",
"..................@.........................O.I ................c o D G ............G G ....| F ........{ ........................",
".................._ _ ....................O.I S G G ............] 5 3 e ..........G G ....[ } } ..................................",
"................O.w w ..~ ..................I } G ..............[ w l r ......~ } G } ....` } X.X.............w ( ................",
"..................e 9 0 D ......................................@.@...........................................7 q q ..............",
"..................k a i R ......................[ ] ......_ I ................................................] 5 w r I @.@.......",
"....................X.X........................._ q ( @.q 5 E G ................[ ....................O.........u k 9 ..@.........",
"....................O.............................' + w . e ~ ..................[ [ ....c ..X.@.....@.@.........l l y ~ ..........",
"..................S ..............................C + 3 u R ..........................[ O ..@.X.....@.@.............X.O...........",
"..............O.G D ..............................y & s s ~ ................c # ......O c X.] X...@.@.` ..........................",
"..........G ..L G S ......................_ ....X...k l I ....................m n ..c : w c w c [ ................................",
"....G G ......L r l ....................( @ @.O.....@.o.....X.................M # ] m 2 r # ..7 w O...............................",
"......G ....O...e g ....................S X t X.......@.....X...f ~ ..........! a c 9 k 8 2 w : S ................................",
"................! l X.@.O.O.........~ R ] = d G ..............S l l ........X.f i e & k p i q a I ........................@.......",
"....................X.w ....................X...................X.X...........X.........G ......O.......................&.` ......",
"......................c V @.....................................@.o.........................................O.O...................",
"............{ G ........# ..[ ..( q ............................o.@...............X.....................O.&.C @...................",
"..............q c X.} ( 4 q . S c o [ ..................@.......@...............X.........................O.C ' 0 O...............",
"..............( 7 w 0 k &   w { ] X q O.................O.r G ..@...............O.............~ ..........@.O.t e r E ............",
"..............G 2 ..w & $ 2 G L ( X q @.................[ ~ R ..@.@.....................O.O.O.E H ..........w , l Y G ............",
"................y O.O.r r y ......c ] ........[ q ........O.......@.( _ ..............c _ O.O.O...O.......O.q > f I ..............",
"................O.....O.O.O.....@.@.O.........S 7 ..O...............m # ..o.@.o.......# # { K L ............S G G O...............",
"..........O.....................@.X...........O e O.................M 7 w O.O.@.......B v S Y L ............O.....O...............",
"....G f Y O.................................O.t e I ................( e ~ ..O.........N q $.Y L ..................................",
"...._ r D ..................................O.O.@...................@.@...............H p O L O.........O.` ..O...........~ l G ..",
"....{ 7 w ..{ O...........O.{ q ( [ ..G o.O.....O...........@...........................S S ............&.A S H ........I G r O...",
"....{ 1 1 G G ............` ` { v q w E I O.................I G ........................................M N H G ........O...O.O...",
"......e d L ` O...............{ + 9 D E O.........................} ................O.O.L O.....G ......_ w G G ..................",
"......O.O.L { O.............G ..w y I O.............................................O.O.O.O.{ G f H ..............................",
"........................] w ..............................w q _ ..........O...@.................G ........[ ......................",
"..........................G ..............................w 7 9 w ......} r G ..................X.................................",
"..............w [ I I O.X.~ ( ............................w t k ~ ......I ~ ~ ............................} c ............Q ......",
"..............# w q I ............&.................X.X.................L ............@...................' M c ] @.....G T | ....",
".............._ 7 r G I ................................................{ ..............O._ O.O...........X./ q y ~ ........[ ....",
"..............r 2 0 0 O.................................................O......./ # ( @.0 9 I I ........X.f 3 a 9 y ..............",
"............O.Q d y t I ........@.( _ ..........................................@.c o w 4 e R G ........X.J h h 0 ~ ..............",
"..............O.@.O.O.O.........@.w q ................................{ ........@.(   3 4 G G I ........o.o.@.@.@.| ..............",
"................................@.e 9 0 [ ..................` # _ O...q y O.O.O.O.y ; e p R ....O.{ ............@.O...............",
"............` ` ..................z k a G ........[ _ @.....C b _ O...4 ; I O.O.O.O.k r G ........I ..............................",
"....[ ......` &.` ................................_ O _ O.( # _ [ w ..4 ; D ..` ....O...........G S ........` &.......O...........",
"..G G G G ........................................O.c O ../ ; e q w c q e ^ G ..............................{ ` ..@...[ ....` ` ..",
"......G ............................................_ O / q = 0 4 ( 5 e ..Y ~ ........................................G I @.{ ` ..",
"......................................................7 q ; u 1 & 9 ; l ~ I ........................................G ..@.I ......",
"......................................................w r 9 d t a r y E I O.O.....................c ......................G ......",
"............................@.@.@.@...................O.O.O.........O.O.O.O.....................{ # w ............................",
"..........[ ........O.O...O.G S ..........................................................} | X.../ O .._ ..w c O.O.L O.O.........",
"........O./ n ......O.O...L G G ........&...............................` ............@.( # ) y R t 4 o 5 G w O O.H H ..O.O.......",
"..[ ....O.M + G G H O.O...............&.Z ..w ..........................` ..........@.X.@.c q t 5 i - 4 r ~ c   r Y O.O...........",
"....[ ..O.c = d ^ I L +.................' 9 S ..............................G ......X.@.o.c 5 G 0 * * a G ..q   k H { O...........",
"..........G w ~ I ....................Q z 9 q w O.................................@.......[ [ ..X.l z G ....G w G ......{ $.O.O...",
"................O.....O...............~ h k q w O...........................` ` @.@.............@.@.@...........O.......` $...O...",
"....................S _ ....w _ ..........X...............................` &.&.&.@.............@.................................",
"....................S O ..r 1 w ~ ..............................................................@.................................",
"....D ................b q e 4 E ~ @.O...............[ ..c q ......................G ..........................l r G ..............",
"....................G 7 , 0 a ~ X...........` ....X.c e 5 G ....................S q ( ....................I G S L { ..............",
"......................3 & i d I ............@.` ....X.9 ( O.....................@.M m ......( ( O.I I ..........{ O...............",
"......................Y k l I O.............O.O.....o.c [ @...$.........( q ....O.%.A q q [ q q I H G ..........O.O...............",
"..........................O.............O.S r ..............` &.O.......O.q w q w r 2 : t I 0   r K O.O...........O.[ O.L O.O.O...",
"......@...................O.............[ [ R ~ ............@.@...........t 9 D 9 * $ i j ~ q - g Y O.O.........O.( q [ H I ......",
"......c G ..............................O...X...........................@.D k I H p i g G O.w 3 f H O.O.............e q I E L O...",
"....| 2 G ............................................................@...O.O.O...............O.O.................@.d & l Y O.O...",
"......8 p ..........................................................................................................t % g ~ ......"
};
