/* XPM */
static char *_305_fa14d0ee288a3f195705b0c33a6dc4c9984830fc8899ab544ae14dc399332f73[] = {
/* columns rows colors chars-per-pixel */
"50 50 215 2 ",
"   c #01000E",
".  c #2F1E1D",
"X  c #531E0E",
"o  c #385622",
"O  c #126A16",
"+  c #6E723F",
"@  c #363C42",
"#  c #4A514D",
"$  c #4C4D53",
"%  c #4B5359",
"&  c #4E5D5D",
"*  c #4A5655",
"=  c #545E5D",
"-  c #515955",
";  c #4D534D",
":  c #5A7449",
">  c #556556",
",  c #66734E",
"<  c #485D65",
"1  c #5A6463",
"2  c #6E5A4F",
"3  c #917736",
"4  c #985F41",
"5  c #8A6F48",
"6  c #80756F",
"7  c #438524",
"8  c #62823F",
"9  c #69993E",
"0  c #789837",
"q  c #5BB63C",
"w  c #5BA335",
"e  c #79A839",
"r  c #65BA3D",
"t  c #76BB3C",
"y  c #6DA63D",
"u  c #78C13E",
"i  c #4A925E",
"p  c #579D54",
"a  c #5A864A",
"s  c #688945",
"d  c #699246",
"f  c #729C44",
"g  c #6C9C5A",
"h  c #4FA14F",
"j  c #5BAC46",
"k  c #5AA353",
"l  c #5BB142",
"z  c #66AD4D",
"x  c #65A94C",
"c  c #76A245",
"v  c #79A64D",
"b  c #79AB4B",
"n  c #6AB642",
"m  c #6CB24C",
"M  c #6AB744",
"N  c #7CB144",
"B  c #74BC43",
"V  c #7BBD45",
"C  c #73B54B",
"Z  c #7CB44D",
"A  c #7DBA4B",
"S  c #75B848",
"D  c #6BAA54",
"F  c #68A657",
"G  c #75AD54",
"H  c #76A758",
"J  c #73B152",
"K  c #7DB253",
"L  c #7FB956",
"P  c #458E63",
"I  c #65936B",
"U  c #699877",
"Y  c #668971",
"T  c #74A669",
"R  c #6FA37F",
"E  c #6AA565",
"W  c #7DC144",
"Q  c #76C142",
"!  c #89993A",
"~  c #9A9C3A",
"^  c #A89D37",
"/  c #97A93D",
"(  c #88B23A",
")  c #8AAA3F",
"_  c #B8A62C",
"`  c #AAA335",
"'  c #A6AC39",
"]  c #B1A737",
"[  c #B9B635",
"{  c #ADB03B",
"}  c #C4AF2F",
"|  c #D4B52D",
" . c #D8BB27",
".. c #C4A632",
"X. c #CDB534",
"o. c #C5B438",
"O. c #D3BE36",
"+. c #E0BE24",
"@. c #85C93A",
"#. c #91CD3C",
"$. c #98D23A",
"%. c #A1DA35",
"&. c #EDCC1F",
"*. c #DBC531",
"=. c #E7C92B",
"-. c #F3CD2C",
";. c #EDD12C",
":. c #F4D22C",
">. c #FCD52C",
",. c #FDDA2B",
"<. c #F8D928",
"1. c #E9C832",
"2. c #FBD532",
"3. c #FEE123",
"4. c #AA8F55",
"5. c #A4965E",
"6. c #BA9C56",
"7. c #84A242",
"8. c #85AB47",
"9. c #96A844",
"0. c #82B445",
"q. c #84BC45",
"w. c #89BD41",
"e. c #83B64B",
"r. c #84BC4C",
"t. c #89BE4C",
"y. c #8DB443",
"u. c #83AD56",
"i. c #84B553",
"p. c #84BB51",
"a. c #89BA52",
"s. c #8AB158",
"d. c #96A15D",
"f. c #AEA240",
"g. c #A8B040",
"h. c #BAA240",
"j. c #948E6F",
"k. c #B29C62",
"l. c #B6A86E",
"z. c #CEBA4A",
"x. c #C7B978",
"c. c #CAAE73",
"v. c #84C146",
"b. c #8CC446",
"n. c #8DC946",
"m. c #86C149",
"M. c #8BC24A",
"N. c #8ECA4B",
"B. c #90C646",
"V. c #92C945",
"C. c #91C44B",
"Z. c #92CA4B",
"A. c #527E81",
"S. c #4E7899",
"D. c #5178A1",
"F. c #5B8597",
"G. c #548083",
"H. c #649698",
"J. c #63958C",
"K. c #71A485",
"L. c #5989A6",
"P. c #598DB8",
"I. c #5A91B2",
"U. c #6299BE",
"Y. c #6799B7",
"T. c #6397A5",
"R. c #7FA1BA",
"E. c #5B9AC5",
"W. c #5C93C9",
"Q. c #6199C3",
"!. c #649ECD",
"~. c #629ED5",
"^. c #68A4CD",
"/. c #62A3D5",
"(. c #65A8DB",
"). c #6AACDC",
"_. c #68A6D8",
"`. c #6CB0DE",
"'. c #6AADE3",
"]. c #67A9E7",
"[. c #70AFE4",
"{. c #6CB0E2",
"}. c #6DB1E9",
"|. c #71B2E5",
" X c #9FB08E",
".X c #BAB69A",
"XX c #B3B092",
"oX c #829DA8",
"OX c #92AFBE",
"+X c #BDBDBC",
"@X c #AAA7AB",
"#X c #CDB283",
"$X c #C1BEAF",
"%X c #AAC290",
"&X c #B9C8B5",
"*X c #D0C597",
"=X c #C7C5B8",
"-X c #CEC9A9",
";X c #A0B5C6",
":X c #BCCACE",
">X c #AFC0C8",
",X c #CCCDCC",
"<X c #C4C5C0",
"1X c #D2D6CA",
"2X c #C4CCD4",
"3X c #D4D3D2",
"4X c #DADBDB",
"5X c #E7DFCC",
"6X c #DAE2D5",
"7X c #E4E6DC",
"8X c #EDEEEC",
"9X c #E6E7E4",
"0X c #F6FAFE",
"qX c #FDFEFC",
"wX c #F7FAF5",
/* pixels */
"M.M.a.J B M.b.M.M.M.M.M.M.M.M.M.M.M.M.M.M.M.M.M.M.M.M.M.M.M.M.M.M.M.M.M.M.M.M.M.M.M.M.M.M.M.M.M.M.M.",
"M.M.t.T m b.M.M.M.M.M.M.M.M.M.M.M.M.M.M.M.M.M.M.M.M.M.M.M.M.M.M.M.M.M.M.b.M.M.M.t.m.M.M.M.M.M.M.M.M.",
"M.b.M.M.t.M.M.M.M.M.M.M.M.M.M.M.b.M.M.M.M.M.M.M.M.V M.M.M.M.M.M.M.M.M.b.M.M.M.M.Z.M.M.M.M.M.M.M.M.M.",
"M.M.M.M.M.M.M.M.M.M.M.M.M.M.M.M.M.M.p.M.M.M.M.M.M.n A m.M.M.M.M.r.M.M.M.m.M.M.M.b.b.M.M.M.M.M.M.M.M.",
"M.M.M.M.M.M.M.W b.M.M.m.M.M.M.M.M.r.r.r.b.M.M.M.M.B z K M.M.M.M.r.M.B.t.r.M.M.M.M.M.b.M.M.M.M.M.t.M.",
"M.M.M.M.M.M.M.m V A M.M.M.M.M.M.M.M.M.b.M.M.M.M.M.M.m.a.M.M.m.m.M.M.b.M.M.M.M.M.M.C.V S m.M.M.M.M.M.",
"M.M.M.M.M.M.M.G D K M.M.m.M.M.M.M.M.M.r.M.M.m.m.M.M.M.M.M.M.M.M.M.r.M.b.M.M.M.M.M.M.M.M V r.M.M.M.M.",
"M.M.M.M.b.M.b.M.M.M.M.M.M.M.M.M.M.Z.e.B W W n p.M.M.M.M.M.M.M.m.M.M.M.M.M.M.M.M.M.M.M.D F r.M.M.M.M.",
"M.M.M.M.M.M.M.m.b.M.M.M.M.M.M.M.V.9 O 0 ( x J a.M.M.b.M.M.M.M.r.M.r.Q M.M.M.b.B.b.M.M.t.t.M.M.M.M.M.",
"M.M.M.M.M.M.r.r.M.M.M.M.M.M.M.C.w o | :.-.o.8.M.M.M.M.M.M.v.W M.m.t v.r.M.M.M.b.M.M.M.M.M.M.M.M.M.M.",
"M.M.M.m.M.M.r.r.M.M.M.M.M.M.M.M.7 _ ,.<.,.3.o.7.n.M.M.M.M.M.@.n.@.j v.W v.m.M.M.M.M.M.M.M.M.M.M.M.M.",
"M.M.p.M.M.b.J K M.M.b.M.M.M.M.m.! >.:.=.z.z.5X4Xv r.M.M.M.M.n.B n.m n r.n W M.M.M.b.M.M.M.M.M.M.M.M.",
"M.m.M.M.M.b.i.K M.M.M.M.M.b.p.A ( >.&.*X0X+X3X#Xs J M.M.t.B.H D k C p C z r.M.M.M.M.M.M.M.M.b.M.M.M.",
"M.M.M.M.M.M.M.M.m.m.M.M.M.M.M.M.0.O.+.=XqX$X_ ..k.d.r.M.M.r.M.M.r.M.p.M.M.M.M.M.M.t.b.M.M.M.B.b.M.M.",
"M.M.M.M.M.M.C.M.m.#.b.M.b.m.M.M.m.! 3 ..x.5.6.k.x.j.0.Z.y./ b.M.M.M.M.M.n.M.M.M.C.V.M.M.M.M.M.M.M.M.",
"M.M.M.M.M.W r.M.M.B B B m.n N.M.N.0., -...c.#X#X Xd.m.m.9.` N y.M.M.b.M.M.t.M.M.M.$.V.V M.M.M.M.M.M.",
"M.M.M.M.M.q.B B A k l W m.q m.M.m.N.7...4.6 - . , B.9.g.! o.^ o.q.M.M.M.t.M.M.M.M.M.A C i.M.M.b.b.t.",
"M.m.M.M.b.M.m b.D i C M.m.n W 9.y.M.m.7.2   X . 2 s.t X.-...2.[ A m.M.M.p.t.M.M.M.n.k G a.M.M.M.M.M.",
"M.M.M.M.M.M.t.M.b.m.m.M.N.e.A ` ' e.e V ^ 3 4 5 4.d.K 0 1.| :.8.M.u v.M.M.M.M.M.M.b.M p.M.M.M.M.M.M.",
"M.M.M.b.M.M.M.M.M.M.b.b.r.] ~ X.^ ] 9.A 9.x.3X+Xl.5.@Xg ~ -.-.' q.$.@.i.t.M.M.M.M.M.M.M.M.M.M.M.M.M.",
"M.M.K K M.M.M.M.M.M.M.b.m./ :.| | ,.) y +XqXqX,X0X7X3XXXf.,.>.,.{ v.V t.t.M.M.M.t.M.M.M.M.b.M.M.t.M.",
"M.M.A m.M.M.b.M.M.M.M.W m.N [ <.| =..X6X3X<X,X7XqXqXqXXX .>.-.,.*.b m m.M.M.M.M.V.V.p.M.M.M.M.K e.M.",
"M.B.M j t.M.M.M.M.M.Z.M.u W 0 1.;.| l.wXqX3X9XqXqX0XwXwXc.=.,.,.[ q.Z.M.M.M.M.t.#.#.r.M.M.M.M.M.M.M.",
"M.M.A b M.M.M.M.M.M.M.M.@.j o.,.<.-. .x.qX8X3XqX9X,X8XqXwX-X' ' 0.M.t.M.t.t.M.M.r.q.r.b.M.M.M.M.M.M.",
"M.M.b.M.M.M.M.M.M.r.M.t.m.b 1.<.:.:.,.*.8X3X9XqX8XwXqXqXwXqX&Xt C.M.M.M.r.K M.M.M.M.M.M.M.M.M.M.M.M.",
"M.M.m.M.M.M.M.M.M.r.m.M.M.) -.<.:.>.,._ @X4XqXqXqXqXwXqXqXwXqX%Xq.M.M.M.M.M.M.M.M.M.M.M.M.M.M.M.M.M.",
"M.M.M.M.M.W M.t.M.M.r.M.B.0.} 2.>.=.` .X7XqXqXwXqXqXwXqXqXqXqX7Xw.B.M.M.M.M.M.M.M.v.M.M.M.b.t.p.M.M.",
"M.M.M.M.C.W B A M.M.m.m.M.Z.0.9.9.( v 8XqXqXqXqXqXqXqXqX4X>X;XoXT e.B.M.M.M.M.M.b.#.u e.M.M.M.p.M.M.",
"M.M.M.M.M.M.M C r.M.M.M.M.M.M.m.M.N.i.9XqXqX0XqXqXqX2XR.Q././.(.).^.E v.M.M.M.M.a.L n C p.M.M.M.M.M.",
"M.M.M.M.M.p.D C p.M.M.M.M.b.b.M.t.M.e.8XqXqXqXqX9XOXU.(.{.{.`.).).}.!.v t.M.M.M.M.L F m r.M.M.M.M.M.",
"M.M.M.M.M.M.M.C.M.M.M.M.M.S Q M.M.M.q. X2X:X:XOXY.(.{.).(.).).).).).'.U b.M.M.M.M.M.C.M.M.M.M.M.M.M.",
"M.M.M.M.M.b.M.M.M.M.M.M.B.J D C Z.N.Z.e G.!././.{.'.).`.`.}.{.'.'.'.].K.#.t.M.M.M.M.t.M.m.M.M.M.M.M.",
"M.M.M.M.M.V.M.M.M.M.M.M.M.M.r.M.c f r.n.t F.!.^.).).)._.U.L.Q.{.).).'.R b.r.M.M.M.M.B.M.M.M.b.M.b.M.",
"M.r.r.r.M.M.M.M.M.M.M.M.M.M.M.e.; # > Y k 1 E.I.I.I.P.I v d I.|.).).'.T b.t.M.M.M.M.b.n.M.t.m.M.Z.M.",
"M.M.M.M.M.M.M.M.M.M.M.M.b.t.N.f # - < S.W.(.|.|.'.`.~.H C.T L.(.{.}._.H n.M.M.M.M.M.M.M.M.M.M.M.M.M.",
"M.M.M.M.M.M.M.b.M.M.M.M.M.b.Z.s @ # & S.Q.`.).).).'.Y.v M.a P.E.E.E.L.0.M.m.m.M.M.M.M.M.t.M.M.t.M.M.",
"M.M.M.M.M.M.M.M.M.M.M.M.M.b.b.: % # * F.U.`.).).|.].I V.b - & L.E.E.U @.t.b.u M.C.M.b.b.M.M.b.M.M.M.",
"M.M.M.M.m.t.M.M.M.M.r.r.M.M.N.: % - % D./.}.].].~.U q.Z.c $ & - < < d Z.a.t.u V A m.Q M.r.M.M.M.M.M.",
"M.M.M.M.@.n.r.t.M.M.M.m.M.M.b.: % % : g J.H.T.J.g w.M.M.V.9 $ 1 > = : u C Z z l S m.r A i.M.M.M.M.M.",
"M.M.b.M.t z i.t.M.M.M.M.b.M.Z.8 @ : w.Z.w.w.q.b.B.M.M.M.M.N.s $ 1 = > n e.z i x a.m.q b t.M.M.M.M.M.",
"M.M.M.M.m.r.t.M.M.M.b.M.M.M.M.F a u v.M.M.M.M.M.t.M.b.M.M.b.N.d - $ : b.t.M.p.r.M.M.r.M.M.M.M.Z.t.M.",
"M.M.M.M.M.M.M.M.M.M.M.M.M.M.M.a.L v.v.N.M.M.M.M.M.M.M.b.M.V.V.Z.w.f e.C.M.M.M.M.M.M.C.M.M.M.b.b.M.M.",
"M.m.M.M.M.M.M.M.B b.A n t.M.M.M.M.M.M.M.M.M.M.M.M.M.M.t.M.M.b.M.M.N.M.M.M.M.r.M.M.M.M.M.M.M.M.M.M.M.",
"M.M.r.M.M.M.M.M.#.B m C a.M.M.M.b.M.M.M.m.m.B M.M.M.M.M.M.M.M.q.M.M.M.M.M.M.M.M.M.M.p.Z M.M.M.M.M.M.",
"M.M.M.M.M.M.M.C.B h F K M.M.M.M.M.M.M.M.S m M.M.M.M.M.M.M.M.C.r.B C.M.M.M.M.t.M.M.t.t.M.M.M.M.M.M.M.",
"m.M.M.M.M.M.M.M.p.F G t.b.M.M.M.M.b.M.M.m.A M.M.b.M.M.M.V m.M.Z.%.V m.W V C.r.M.M.M.M.M.M.M.M.M.M.M.",
"M.M.M.M.M.M.t.M.M.C.B.M.M.M.M.M.e.r.t.M.M.M.M.b.B.M.M.M.W B V W m q r.V l i.t.M.M.b.M.M.r.t.M.M.M.M.",
"M.M.M.M.M.M.M.M.M.M.M.M.M.M.M.M.b.i.M.M.M.M.M.M.b.M.M.M.M.z p.k P E s.W h H t.b.M.M.M.B.B V t.r.M.M.",
"M.b.C r.b.M.M.M.M.M.M.M.M.M.M.M.M.M.M.M.M.M.M.M.M.M.M.M.t.p.M.a.e.p.M.b.r.r.M.M.M.M.M.C.r.F p.a.M.M.",
"M.B.m F M.M.M.M.M.M.b.M.M.M.M.M.M.M.M.M.M.M.M.M.M.M.M.M.b.M.M.M.C.M.M.M.M.M.M.M.M.M.M.M.v.p F m.M.M."
};
