/* XPM */
static char *_140b86c373d4a97d7f4077591f03d7fktzD1GgdBKGr00th[] = {
/* columns rows colors chars-per-pixel */
"50 50 237 2 ",
"   c #0E0A26",
".  c #3A1429",
"X  c #623933",
"o  c #707234",
"O  c #503B4C",
"+  c #3A5251",
"@  c #3E6045",
"#  c #47574A",
"$  c #475955",
"%  c #595C59",
"&  c #4F5153",
"*  c #4A645A",
"=  c #546455",
"-  c #496E48",
";  c #4D5963",
":  c #545E6A",
">  c #5D6461",
",  c #4A6471",
"<  c #696970",
"1  c #B34234",
"2  c #86774D",
"3  c #79993B",
"4  c #609932",
"5  c #5AB53A",
"6  c #67AB3B",
"7  c #74A83B",
"8  c #6CB23C",
"9  c #66B438",
"0  c #74B33D",
"q  c #78BB3D",
"w  c #71BF2D",
"e  c #59C039",
"r  c #7DC23C",
"t  c #7CC737",
"y  c #75CC32",
"u  c #519854",
"i  c #689947",
"p  c #789A46",
"a  c #6B8C53",
"s  c #5AA956",
"d  c #58AB4D",
"f  c #6CAC4C",
"g  c #66AB4A",
"h  c #74AD4D",
"j  c #77AA46",
"k  c #68B248",
"l  c #74B344",
"z  c #7AB545",
"x  c #7CBC44",
"c  c #75B44A",
"v  c #7BB54B",
"b  c #7CBA4A",
"n  c #75BC46",
"m  c #68A954",
"M  c #72AC54",
"N  c #75AC59",
"B  c #7BB454",
"V  c #7BBD50",
"C  c #76B557",
"Z  c #64B151",
"A  c #5A8F67",
"S  c #4A9263",
"D  c #558E6E",
"F  c #629565",
"G  c #679B74",
"H  c #6F886A",
"J  c #6BA261",
"K  c #74AB6B",
"L  c #7CC245",
"P  c #7BC34A",
"I  c #7FC94C",
"U  c #77C551",
"Y  c #969938",
"T  c #929632",
"R  c #B09B31",
"E  c #84A128",
"W  c #88A83B",
"Q  c #9AA536",
"!  c #83BC3D",
"~  c #8ABC3E",
"^  c #86B83B",
"/  c #ABA82F",
"(  c #A6A739",
")  c #ADB235",
"_  c #BDB435",
"`  c #BFBF3D",
"'  c #B3AB34",
"]  c #D5B51E",
"[  c #CAB01F",
"{  c #C6AA27",
"}  c #C9BD2C",
"|  c #D8BB2A",
" . c #CEB238",
".. c #84C82E",
"X. c #84C33D",
"o. c #8BC43D",
"O. c #85CB3D",
"+. c #89CB39",
"@. c #93C33E",
"#. c #92C739",
"$. c #9CD23C",
"%. c #E9CB1D",
"&. c #FAD41E",
"*. c #DBC535",
"=. c #DACC37",
"-. c #D1C82F",
";. c #E1C72A",
":. c #F3CD26",
">. c #EAD522",
",. c #FDD525",
"<. c #FEDD23",
"1. c #F6D62A",
"2. c #E5C430",
"3. c #FDD834",
"4. c #F4D034",
"5. c #FAE226",
"6. c #FAE13C",
"7. c #8B875C",
"8. c #879B52",
"9. c #919E4F",
"0. c #B49751",
"q. c #86AC46",
"w. c #83B542",
"e. c #84BD45",
"r. c #89BE46",
"t. c #8BB54B",
"y. c #84BD4B",
"u. c #8ABE4B",
"i. c #84B44C",
"p. c #93BD4B",
"a. c #99B847",
"s. c #84A859",
"d. c #85BD53",
"f. c #8BBE52",
"g. c #86B756",
"h. c #92BC51",
"j. c #94B857",
"k. c #98AB46",
"l. c #A8A644",
"z. c #B4A943",
"x. c #AAAA56",
"c. c #99946F",
"v. c #B89A72",
"b. c #89B965",
"n. c #91A476",
"m. c #8CAF66",
"M. c #CEB14B",
"N. c #E2BE4C",
"B. c #CBB368",
"V. c #D2B474",
"C. c #C8945A",
"Z. c #85C244",
"A. c #8BC345",
"S. c #8CC944",
"D. c #86C24B",
"F. c #8BC24B",
"G. c #8DC94C",
"H. c #85C945",
"J. c #92C446",
"K. c #93CB43",
"L. c #91C34B",
"P. c #92CB4C",
"I. c #99CD45",
"U. c #85C353",
"Y. c #8CC352",
"T. c #8DCA52",
"R. c #8AC559",
"E. c #92C353",
"W. c #92C951",
"Q. c #93C25C",
"!. c #97D14B",
"~. c #BCC140",
"^. c #D7C442",
"/. c #F6D441",
"(. c #C1C976",
"). c #4B7391",
"_. c #597DB1",
"`. c #629698",
"'. c #6E9088",
"]. c #5785AC",
"[. c #578CB5",
"{. c #4F94B7",
"}. c #6996AF",
"|. c #588A87",
" X c #5A98C8",
".X c #5B93D3",
"XX c #679AC9",
"oX c #6B9BD2",
"OX c #5BA3C7",
"+X c #5FA2D8",
"@X c #63A4CE",
"#X c #68A7CA",
"$X c #6CABD5",
"%X c #64AADC",
"&X c #6BADDB",
"*X c #66A5D6",
"=X c #72A8DA",
"-X c #6CB2D6",
";X c #72B4DC",
":X c #6BB2CE",
">X c #6BACE4",
",X c #6CABE8",
"<X c #73ACE3",
"1X c #6CB3E5",
"2X c #6CB1EB",
"3X c #78B4E7",
"4X c #7AB8F3",
"5X c #909586",
"6X c #B09F8F",
"7X c #9EA593",
"8X c #89A7AE",
"9X c #ACACB5",
"0X c #C3A88B",
"qX c #C3BDAF",
"wX c #BACCB6",
"eX c #D7C98F",
"rX c #D4C9B2",
"tX c #8AA7C5",
"yX c #AFBCCB",
"uX c #C4BBC7",
"iX c #B7C9D2",
"pX c #B3C4CC",
"aX c #D5D7C8",
"sX c #D6D7D9",
"dX c #C5C9C5",
"fX c #E7E4DB",
"gX c #E1F5DC",
"hX c #DDDDE5",
"jX c #E4DAE2",
"kX c #DEF2EF",
"lX c #E7E6E6",
"zX c #F8FDEB",
"xX c #FCFCF5",
"cX c #F5FDFE",
"vX c #FCFDFD",
"bX c #F5F7F4",
"nX c #F2EDF3",
/* pixels */
"f.F.d.M n T.Y.u.F.F.F.F.F.F.F.L.r.L.u.F.L.F.F.F.A.F.F.F.F.A.F.F.F.F.F.F.F.F.F.r.D.F.F.G.A.F.F.D.F.F.",
"A.o.y.N v y.r.A.L.F.F.e.A.r.F.F.A.F.A.F.F.F.F.F.L.F.D.D.F.A.A.F.F.F.F.r.F.F.F.r.F.A.A.F.D.L.A.F.F.F.",
"F.A.F.Y.D.A.Z.F.F.F.F.F.D.F.F.F.F.D.F.F.D.F.F.A.A.D.D.Y.D.F.F.F.F.F.F.F.A.F.F.F.K.A.r.F.D.F.A.A.F.F.",
"D.A.F.F.A.S.F.Y.F.D.F.F.F.F.F.F.F.F.e.F.F.F.D.A.y.x c y.Y.F.F.D.e.r.F.u.u.F.F.F.A.F.F.F.F.F.A.F.F.F.",
"F.F.r.u.u.F.S.y.F.Y.F.F.F.D.F.F.F.u.r.F.F.F.F.F.F.z 0 b F.W.D.D.r.u.F.A.A.u.F.F.F.F.D.Z.S.F.F.F.F.F.",
"F.L.u.u.E.F.Z.c z e.D.F.F.F.F.F.u.F.u.F.F.F.F.F.Y.e.b y.D.F.F.D.A.F.F.F.F.F.F.F.F.F.Z.x D.D.Y.u.F.F.",
"D.Y.A.S.F.A.e.M l z e.F.L.F.F.F.F.L.F.Z.F.D.x U.F.G.T.Y.F.r.F.F.F.F.F.A.F.F.D.F.F.F.y.c b y.Y.e.F.F.",
"J.F.F.F.f.A.P.f.U.U.Y.F.F.F.F.D.Z.F.Z.x Z.x l x r.F.u.F.F.u.F.F.F.F.u.u.F.F.F.F.o.F.R.f f V F.S.A.F.",
"A.F.Y.u.F.F.D.e.F.F.D.F.F.F.F.S.S.F.e.!...f N r.S.F.G.o.h.Y.j.Y.D.Y.z L.F.L.A.K.F.F.F.F.F.u.F.F.u.F.",
"A.F.F.e.F.F.D.Y.F.F.F.F.F.F.F.F.Y.y.E.! m F N J.f.j i.f.H.X.n O.S.w Z.D.u.Z.F.D.F.F.F.F.F.F.F.F.F.F.",
"F.F.D.F.u.D.i.d.H.F.F.F.D.F.D.F.^ L.Y.p.h I g.k._ ) c.a i.P.y #.I 9 P P x D.W.F.F.F.F.F.e.F.L.F.F.F.",
"F.F.u.F.F.D.z v T.F.F.L.F.A.u.L.e D.J.F.!.3 } <.<.3.1.7.n.j.O.q L 8 8 P 9 e.D.e.F.F.F.F.F.F.F.A.F.F.",
"F.F.u.F.F.D.v v A.A.A.F.F.u.u.u.Z f F.X.b.qXV.M.M.%.3.*.7.Z.M K J J s C f D.F.J.L.u.F.F.F.F.F.A.F.F.",
"F.F.e.F.F.F.y.R.e.F.G.F.F.F.F.e.~ T.D.A.n.nXdXgXkX^.1.,.T H.F.Z.Z.T.w.D.D.F.F.L.A.S.A.F.F.F.F.P.F.r.",
"F.r.F.F.F.F.F.F.A.H.G.D.F.F.F.F.E.o.o.s.l.{ v.jXlX*.5./.9.D.H.p.o.A.A.S.L.F.A.D.A.P.F.r.F.F.F.L.F.F.",
"A.F.W.u.F.Z.! S.D.x q x x q Z.G.Y.D.8.v.V.0.' B.^.[ ;./ q.+.H.h.F.u.Y.u.D.L.D.A.A.!.P.e.F.F.e.F.F.F.",
"F.A.F.Y.F.D.l L b u 5 r.H.5 b L.b.O.w.5X6X0X0XC.;. .o q.+.Y.j.J.r.L.F.D.g.u.o.f.A.Y.P c i.F.u.S.u.A.",
"u.A.F.Y.F.e.l P f S B p.U.5 L A.+.@.j.i.c.> = < 0.{ H i.a.P Y.Z.S.F.Y.A.F.f.u.S.L.D.g f f.p.L.d.F.L.",
"F.A.F.T.F.F.y.H.p.Y.o.p.J.F.D.G.z ~ U P 2   .   Y R 7 t P.f.A.O.S.r Z.e.F.r.F.F.L.F.h z F.r.K.D.F.F.",
"F.A.u.u.r.A.F.F.D.H.t y.Y.Y.a.c ' k.9 s.2 X 1 O M.T a.W v L.t.f.D.S.H.b e.L.P.e.p.F.H.D.F.A.u.G.F.F.",
"L.A.b i.F.A.F.A.Z.p.r.L.P.q.z./  .M.c C 8.v.0.{ :.3 x.| Y 7 ' W P.S.b e.~ Y.f.S.A.F.A.D.E.Y.d.f.u.r.",
"L.F.b v F.F.L.F.R.S.Y.d.r t.R  .| _ W p ( ]  .B.(.jX5X{ 4.-.*.r.W.w.7 F.F.Y.e.F.K.P.d.u.A.u.F.i.r.F.",
"A.F.c l F.S.u.F.p.F.A.A.S.E -.] ;. .K 7Xl.eXdXvXcXeXB.{ -.5.z.3 E.L.F.y.Y.F.S.i.#.K.r.F.o.X.A.y.D.F.",
"A.G.c h F.A.f.F.H.A.R.L.y g ( -.:.' uXuXfXvXsXlXuX0.>.,.&.4.;.| W t.F.S.D.e.A.L.H.b e.Y.Y.F.F.L.F.F.",
"A.F.P.F.F.F.F.F.D.Z.y.h.Z.U.Q <.5.;./ fXvXxXnXfXdXnXrX' ] 1.1.,.5.( y.L.e.g.F.e.J.u.U.Y.F.A.f.u.F.F.",
"D.F.F.F.A.F.F.L.u.H.e.E.y.y.z.3.:.3. .lXvXvXvXvXlXsXxXfXR :.1.3.3.=.j Q.T.e.E.S.u.e.S.S.A.r.A.S.F.F.",
"F.F.F.e.D.e.x Z.p.F.d.u.S.^ ` <.:.5.^.lXxXvXbXzXxXsXfXqX%.<.4.:.1. .q.L.e.Z.u.L.S.F.y.y.L.L.y.g.F.F.",
"F.F.A.F.F.D.x P F.A.f.u.K.r.l.;.5.%.V.vXxXxXxXvXvXxXfX9XB.*.&.3.3.z.w.J.Z.T.o.f.A.S.L Z.Y.Y.y.e.r.F.",
"A.F.u.F.T.i.c c d.y.A.A.u.T.t.k.l.T dXvXvXxXcXxXxXcXvXxXnXaXc.Q E W L u.F.e.S.Y.d.i.l 0 e.D.F.A.F.F.",
"A.F.F.F.Y.b l l L G.A.L.F.Z.F.e.A.v kXzXcXcXvXxXvXvXvXzXvXvXwXq P D.k c d.D.D.o.d.B h h y.L.F.f.F.F.",
"F.F.F.F.Y.L.U.U.X.P.y.f.G.q b O.C G tX9XyX9XaXxXvXbXcXzXxXxXbXj.5 k Z t.d.T.Z.F.u.S.S.D.Y.D.F.S.F.F.",
"F.F.F.A.A.A.A.A.Y.r.J.A.d.v N F XX2XOX@X*X.X8XpXlXvXvXvXvXvXcXm.g c n j.A.S.o.j.F.y.Y.U.D.A.F.F.u.A.",
"S.F.F.F.F.L.F.F.L.F.Y.A.u.S.8 }.;X*X,X&X-X1X>X@XXX8XiXiXpXyX'.^ Q.t.S.A.u.f.D.A.F.A.L.r.F.A.F.F.F.F.",
"D.e.e.F.F.F.F.A.u.A.U.A.E.E.C oX>X&XOX*X3X+X>X:X&X=XoXOX%X.XF W.o.L.T.F.F.u.D.o.D.F.W.L.L.Z.r.F.F.u.",
"W.D.e.D.F.F.u.F.L.A.D.A.E.u.B }.1X;X#X[.*X>X1X%X1X$X=X3X<X[.G #.e.F.Z.Z.L.A.F.E.r.A.F.F.F.e.F.F.F.F.",
"f.F.W.F.F.F.F.L.F.F.Y.Z.F.o.u.G OX$X$X<X].{.XX#X#X@X#X[.].$X#XN E.u.D.T.r.Z.F.g.F.F.u.F.u.F.Y.F.F.F.",
"r.F.F.A.Z.F.F.F.A.Z.Y.D.L.S.#.v `.=X4X XoX].+ , D .X X@X;X2X=X`.e.J.R.D.F.f.t Z.L.H.D.D.F.L.A.r.A.F.",
"A.F.Z.S.S.F.F.D.F.X.f.f.F.F.P.L.i.'. X@XoX, = & 3 }.4X&X%X1X#X$XG r.S.r R.U.w L e.D.L H.F.u.F.S.F.F.",
"L.F.F.H.D.e.D.Y.F.A.F.f.F.D.u.I.K.0 |.].* * ; o P.M }.,X>X$X&X>X=XG x L v c g g 0 y.l n D.u.u.F.F.u.",
"F.u.F.D.x 0 v f.f.A.L.D.o.F.u.$.c X.3 & % : # b L.#.A =X:X%X>X&X,XXXG 6 u.M S d D.U.6 l y.F.F.F.F.F.",
"F.F.F.F.u.e.e.F.j.S.o.S.r.L.f.N d r a % < # 3 E.Z.L.L.D *X2X@X;XOXXX X@ p S.w.g.F.F.F.u.F.F.A.L.F.F.",
"F.D.F.F.D.F.F.F.f.Y.Y.d.F.F.u.y.V ! j + & p L.T.Y.y.L.o.A *X4X X X,X).: ; Z.Y.A.F.F.F.F.F.F.A.J.F.A.",
"F.F.F.F.F.L.F.u...Z.b z i.F.F.F.F.E.p.i i K.D.D.F.F.u.L.w.F  X.X>X[.$ > = X.T.u.F.F.F.D.F.L.F.A.F.F.",
"F.u.u.u.F.F.A.F...n k c A.F.A.S.u.f.r.o.P.d.x H.D.F.o.p.Q.#.i }.).# = # 3 T.P.e.F.F.i.Z.e.F.F.A.u.F.",
"F.F.F.F.F.F.F.F.c m m C D.F.F.A.F.#.D.G.l M F.o.Y.F.A.A.R.o.#.$ = > > - ~ Q.u.F.F.D.e.D.D.F.F.F.F.F.",
"F.F.F.F.F.F.F.F.B m N U.F.F.L.F.F.F.F.U.V b F.f.S.A.f.T.n T.a $ % ; $ 4 L u.y.Y.F.F.F.F.F.F.Y.F.F.F.",
"u.F.F.u.A.u.F.F.W.F.F.F.A.A.F.Y.e.g.e.~ P.F.u.Q.A.f.K.A.b x f - - - H L g y.y.~ F.L.F.F.D.e.D.F.A.F.",
"A.F.A.F.F.F.F.u.r.J.A.r.f.A.S.D.D.i.E.A.F.A.X.S.E.A.Z.F.d.j V f S f y.n u N R.L.r.A.F.e.e.e.y.u.F.F.",
"F.J.V C S.D.L.F.F.F.F.F.u.A.F.F.F.u.F.F.F.u.F.A.F.F.u.F.r.u.u.u.b e.u.D.u.u.F.F.F.D.L.F.A.s K A.F.F.",
"F.A.k M A.D.F.F.F.F.F.F.F.F.F.F.A.F.F.F.F.F.F.F.F.F.F.F.F.F.F.F.D.F.L.F.F.F.F.F.F.u.F.F.i.s N e.F.F."
};
