/* XPM */
static char *_9a2485f351448a7e48588f43e6d3df3cWWb90VNFO1KkkA6[] = {
/* columns rows colors chars-per-pixel */
"50 50 211 2 ",
"   c #4D2023",
".  c #7B4032",
"X  c #6F5034",
"o  c #495A4A",
"O  c #4C5956",
"+  c #515C5C",
"@  c #535F55",
"#  c #404B4D",
"$  c #53664C",
"%  c #5D7648",
"&  c #577058",
"*  c #617E48",
"=  c #4A5A64",
"-  c #4A6570",
";  c #8D7734",
":  c #837970",
">  c #559B38",
",  c #5CB53C",
"<  c #5EB93A",
"1  c #65BA3C",
"2  c #67B93C",
"3  c #7BBC3B",
"4  c #75BF3D",
"5  c #63A63F",
"6  c #79C13F",
"7  c #73C13D",
"8  c #4B935E",
"9  c #569F55",
"0  c #598B42",
"q  c #638F40",
"w  c #6C9943",
"e  c #6B9449",
"r  c #779B46",
"t  c #66955F",
"y  c #4FA14F",
"u  c #5BAB4A",
"i  c #5BB143",
"p  c #5CA453",
"a  c #54A153",
"s  c #66AD4D",
"d  c #68A94B",
"f  c #79A943",
"g  c #78AB4D",
"h  c #6BB544",
"j  c #6CB24B",
"k  c #69B745",
"l  c #75BC42",
"z  c #7CBD45",
"x  c #73B44B",
"c  c #7CB44C",
"v  c #7DB94C",
"b  c #77B646",
"n  c #6CAA54",
"m  c #68A657",
"M  c #73AE54",
"N  c #76A758",
"B  c #74B151",
"V  c #7DB352",
"C  c #7DB655",
"Z  c #448D60",
"A  c #5E906A",
"S  c #56857F",
"D  c #6A9A66",
"F  c #679677",
"G  c #74A661",
"H  c #7CC043",
"J  c #79C145",
"K  c #929332",
"L  c #A19F30",
"P  c #AA8E2B",
"I  c #8CA73F",
"U  c #9CAB3C",
"Y  c #99A73C",
"T  c #83BD3D",
"R  c #BCA52C",
"E  c #B7A629",
"W  c #A7A837",
"Q  c #B5AA34",
"!  c #B2B33A",
"~  c #B8B12D",
"^  c #D2B01B",
"/  c #C19D23",
"(  c #C4A92E",
")  c #C9B42E",
"_  c #D6BD2C",
"`  c #D7BB2C",
"'  c #C4AF32",
"]  c #C7B234",
"[  c #D5BA32",
"{  c #82C53A",
"}  c #87C938",
"|  c #92CC3B",
" . c #99D03D",
".. c #94D531",
"X. c #A1DA35",
"o. c #FAD91C",
"O. c #DEC42C",
"+. c #EACB24",
"@. c #EECC2A",
"#. c #E8C428",
"$. c #F1CF29",
"%. c #F3D223",
"&. c #FDD927",
"*. c #F4D32B",
"=. c #F9D62B",
"-. c #FDDB29",
";. c #F7D826",
":. c #ECCA31",
">. c #FFDF32",
",. c #FEE028",
"<. c #FFE127",
"1. c #828F5B",
"2. c #839E51",
"3. c #989244",
"4. c #B19D57",
"5. c #85A541",
"6. c #8AAC42",
"7. c #82AC4A",
"8. c #87A945",
"9. c #83B445",
"0. c #84BD46",
"q. c #88BF47",
"w. c #82B64C",
"e. c #84BD4C",
"r. c #89BE4C",
"t. c #89B447",
"y. c #80AD54",
"u. c #83B552",
"i. c #85BA50",
"p. c #8ABB52",
"a. c #86B259",
"s. c #B7A759",
"d. c #818C61",
"f. c #8F9F7A",
"g. c #A7967F",
"h. c #94B376",
"j. c #A0B77F",
"k. c #D0BF4B",
"l. c #C5A956",
"z. c #C0A067",
"x. c #84C245",
"c. c #8CC446",
"v. c #8DC847",
"b. c #86C149",
"n. c #8DC449",
"m. c #8AC14C",
"M. c #88C14E",
"N. c #8DC54C",
"B. c #8BC24A",
"V. c #8DC94A",
"C. c #90C747",
"Z. c #92C945",
"A. c #90C34C",
"S. c #91C54B",
"D. c #91C94A",
"F. c #DBC25B",
"G. c #4D718A",
"H. c #50768F",
"J. c #6B9883",
"K. c #76A487",
"L. c #5E91AE",
"P. c #5A8EB9",
"I. c #578CBA",
"U. c #5C90B6",
"Y. c #5086AD",
"T. c #6998BB",
"R. c #6899AA",
"E. c #7EA3BE",
"W. c #5F99C7",
"Q. c #649ECC",
"!. c #679BC5",
"~. c #6AA0CE",
"^. c #6CA4D2",
"/. c #6BA5D8",
"(. c #75ADDC",
"). c #72A7D8",
"_. c #78B1DE",
"`. c #74ADE2",
"'. c #79B2E4",
"]. c #77B1E4",
"[. c #6FA5E3",
"{. c #A29380",
"}. c #B19F8B",
"|. c #A3BB8C",
" X c #B9B499",
".X c #80A3BF",
"XX c #92A9BB",
"oX c #B7BBBB",
"OX c #C1B786",
"+X c #BEC0B5",
"@X c #CEC599",
"#X c #D3CCAF",
"$X c #C2C7BB",
"%X c #E0D8B1",
"&X c #ABB8C8",
"*X c #B0C2CC",
"=X c #B7C8D0",
"-X c #C9C7C6",
";X c #D2D3CE",
":X c #D6D6D4",
">X c #D9DAD8",
",X c #CDCFCE",
"<X c #E1E0DC",
"1X c #E6E0D0",
"2X c #DDE2E5",
"3X c #E8E8E9",
"4X c #E9E9F1",
"5X c #EFF0F5",
"6X c #F2F3F1",
"7X c #FDFEFC",
"8X c #FAFBF6",
/* pixels */
"B.B.p.M l S.B.B.B.B.m.n.B.B.B.B.B.B.B.B.B.B.B.B.B.B.B.n.B.B.B.B.B.m.B.B.B.B.B.B.B.B.B.B.B.B.B.B.B.B.",
"B.n.e.G j b.B.B.B.B.B.m.B.B.m.B.B.B.B.B.B.B.B.B.B.B.N.m.B.B.B.B.B.B.B.B.B.B.B.B.B.B.B.B.m.B.B.B.B.B.",
"B.B.B.n.B.q.B.B.B.B.n.B.B.B.B.B.B.B.B.B.B.B.B.B.B.z B.m.B.B.B.B.B.B.B.B.m.B.m.B.Z.c.q.B.B.B.B.B.B.B.",
"B.B.B.B.B.B.n.B.B.B.B.B.B.B.B.B.B.B.0.B.B.B.B.B.n.k z 0.B.B.B.B.M.q.B.B.b.B.n.B.n.B.B.B.n.B.c.B.B.B.",
"B.B.B.B.B.q.m.x.B.B.B.B.b.B.B.B.B.0.e.b.B.B.B.m.m.l s c n.B.B.0.e.m.n.B.0.B.B.B.B.B.b.B.n.B.B.B.B.B.",
"B.B.B.c.B.B.B.j b v B.B.B.N.B.B.N.m.B.m.B.B.n.m.B.m.r.r.B.B.M.m.B.B.n.B.m.B.B.B.B.S.z l b.m.B.B.B.B.",
"B.B.B.B.B.B.c.M n c n.B.B.B.B.B.B.B.B.b.m.m.b.m.B.B.B.B.B.B.B.B.n.B.B.B.B.B.B.B.n.B.0.j z r.m.B.B.B.",
"B.B.B.B.B.B.B.B.B.N.B.B.B.B.B.B.B.B.B.l x.H 1 u.b.B.B.B.B.B.m.b.m.m.q.B.B.B.B.B.B.B.n.n n c n.B.B.B.",
"B.B.B.c.n.B.B.x.B.B.B.B.B.B.B.B.B.B.r. .} s B r.B.B.c.B.B.B.B.e.q.x.l n.B.B.B.c.m.n.m.q.r.r.B.B.B.B.",
"B.B.m.q.n.m.e.e.B.B.B.B.B.b.c.B.m.n.m.e.p D V n.B.B.B.B.n.x.H m.B.4 b.b.n.n.c.c.B.m.n.n.B.B.B.B.B.B.",
"B.B.m.B.B.m.w.e.B.B.B.B.B.B.B.B.x.B.r.n.x 0.n.B.B.n.n.B.B.n.} v.x.i x.H z x.B.B.B.B.B.B.B.B.B.n.B.B.",
"B.B.e.m.m.n.x V B.B.B.B.B.B.B.B.2 b.n.n.n.n.B.n.e.e.B.B.B.c.x.l x.x k 0.k 0.N.B.B.B.B.B.B.B.c.n.B.B.",
"B.B.B.m.B.n.u.V n.B.B.B.B.B.i.e.i M c.n.B.q.N.D.i.N b.B.B.c.N n p B 9 x k m.c.B.B.m.B.m.B.B.c.n.B.B.",
"B.B.B.B.B.B.n.m.0.x.B.B.n.c.m.m.B.r.B.B.B.v.w q w N.B.c.B.B.M.B.e.B.e.B.r.m.B.B.B.q.B.n.B.B.S.c.B.B.",
"B.B.B.B.B.n.n.n.e.| n.n.b.c.B.B.m.n.B.q.V.f ; K W t.b.B.B.B.B.B.B.B.B.B.m.m.B.B.n.D.B.m.B.B.B.B.B.B.",
"B.B.B.B.n.z 0.B.n.l l J 0.k B.B.m.n.r.n.t.R #.$.-.#.8.N.B.n.B.B.B.n.B.B.B.B.B.m.q. . .z B.B.B.B.B.B.",
"B.B.B.B.B.x.l l x p , x.B.< z n.n.B.B.0.3.<.,.*.*.-.U x.q.n.B.B.B.B.B.B.e.r.B.B.B.n.0.x u.B.B.B.B.B.",
"B.B.B.B.B.b.j B.n 8 x r.B.2 z n.n.B.b.e.W =.*.*.=.:.4.9.c.n.B.m.B.B.n.B.p.q.B.B.b.B.p M i.B.B.B.B.B.",
"B.b.B.B.B.B.B.B.n.B.q.B.B.B.B.B.n.S.l J 6.=.-.*.+.@X3Xg v.r.B.B.m.4 x.r.m.n.n.B.B.B.j c n.B.B.B.B.B.",
"B.B.c.B.B.B.B.B.B.B.B.B.B.B.B.B.m.B.h M.t.R R P ^ %X4X0 S.q.B.B.n...{ u.e.n.m.n.B.B.n.n.B.B.B.B.B.B.",
"B.B.V V B.B.B.B.B.B.B.n.n.m.B.B.n.B.c N.w ; ( ` %.k.s.R 6.B.B.B.n.x.z r.r.B.B.B.B.B.q.m.m.n.B.r.q.B.",
"B.n.v 0.B.B.B.B.B.B.m.x.0.n.B.B.B.q.n.n.b ! / [ l.4.z.s.2.c.B.B.B.e.j x.B.B.B.r.Z.Z.e.n.B.B.c.V u.B.",
"r.S.k s B.B.B.B.B.B.C.B.{ z e.r.B.N.m.B.b.! @.; : }.g.g.1.0.B.B.B.B.m.m.B.m.B.q.Z.| e.m.B.B.B.B.B.B.",
"c.c.v j B.B.B.B.B.m.B.n.{ h g e.9.t.N.N.b E -.X   1.u.7.0.m.B.B.B.n.B.B.n.e.B.n.x.z e.n.B.B.B.B.B.B.",
"n.n.n.n.n.n.q.m.m.M.b.b.b.w.W Y ~ 6.x.z |.@X) ; . 2.C.c.S.n.n.n.B.B.B.c.e.C B.B.n.n.B.B.B.B.B.B.B.B.",
"m.q.B.B.n.m.n.m.m.0.m.B.n.v ' >.@.K h.{.>X7X1X Xg.: q.q.e.7.9.N.N.B.B.B.B.B.B.B.r.m.B.B.B.B.n.n.B.B.",
"n.m.n.r.B.0.B.r.B.n.e.B.B.8.O.@.R  X3X:X:X<X7X7X8X$X3 S.r.8.Q 5.5.7.m.n.B.B.B.B.n.z x.n.B.n.r.u.B.B.",
"q.m.n.n.N.H l v m.B.x.N.6.[ ;.%.F.3X,X7X7X<X;X;X;X+Xf.3 e.I $.@.[ 8.n.m.B.B.B.B.m.| 6 e.n.B.e.e.B.B.",
"c.B.B.B.B.B.k x e.m.n.b.Y *.*.o.l.,X6X7X7X7X6XoX2X7X@XW L ] *.-.] c H z B.B.B.B.r.u.h x i.N.n.n.B.B.",
"B.B.B.B.B.e.N h e.m.r.N.I @.<.O.@X4X7X7X7X7X:X6X7X5Xk.,.*.*.*.&.) f k V e.B.B.B.A.C m j 0.m.B.m.B.B.",
"B.B.B.B.B.B.B.B.m.n.m.n.e.Y ' #X7X7X8X7X7X7X>X3X7X>XO.=.*.*.*.;.#.e j p.q.m.B.B.B.B.A.m.n.B.B.B.B.B.",
"B.B.B.B.B.c.B.B.q.n.n.q.C.d oX7X7X8X7X7X7X7X6X-X7X1X+.,.&.&.&.&.R d v m.n.m.B.B.B.B.n.n.b.B.B.B.B.B.",
"B.m.m.n.B.Z.B.B.B.B.m.m.x.|.7X8X7X7X8X7X7X8X7X4X;X-X3.~ [ ` ] W f B.c.n.B.0.b.n.B.B.c.n.n.B.B.B.n.B.",
"B.0.0.e.B.B.B.B.B.B.n.m.{ |.7X8X7X7X7X7X7X7X8X7X7X+Xd h r g v w.n.n.B.B.B.b.m.n.B.B.c.B.n.m.b.B.v.n.",
"B.B.m.m.B.B.B.B.B.0.n.q.S.e &X7X7X7X7X7X8X7X7X7X7X,X> H p.p.C.r.q.B.B.B.B.B.B.n.B.B.B.B.B.e.B.B.m.B.",
"B.B.m.n.B.B.B.B.B.c.m.q.S.N U.*X8X7X7X7X7X7X>X&X.XT.L.D c.c.r.n.m.B.B.B.n.b.b.B.B.B.B.c.B.B.B.B.B.B.",
"B.B.B.B.N.B.m.B.B.B.B.B.D.9.T.^.E.=X2X-XoXXX!.^.).(.'.^.N c.r.c.B.B.B.B.m.b.6 m.A.n.q.n.B.n.B.B.n.B.",
"B.B.B.B.e.q.n.n.B.B.B.w.n.C.D [.`.Q.!.T.T.).(._.(.(.).[.J.} n.r.n.m.b.c.r.m.l H z x.z C.e.B.q.B.B.n.",
"B.B.B.m.} c.B.r.c.B.r.B.r.n.0.F ).'._.].].(._.(.(.(.(.(.F q.q.n.B.m.x.6 b v s i x r.1 v p.B.m.n.n.m.",
"B.B.B.B.4 s u.r.B.B.n.r.c.c.r.| A L.^./.^.^.^.).(.)._.^.J.v n.r.B.B.B.k i.s Z s p.B., B p.B.n.m.m.m.",
"m.B.B.B.e.e.r.N.B.B.B.B.n.B.r.N h $ = - W.Y.W.^.(._.).I.R.t.m.q.n.B.m.0.B.m.C e.n.B.e.B.B.B.c.Z.B.q.",
"B.B.B.B.B.n.B.n.0.B.n.B.m.B.n.i.C e O = ).W._.].].^.Y./.K.| Z.C.B.m.n.n.B.n.n.n.B.B.m.n.B.B.n.c.B.n.",
"B.B.m.B.B.B.n.0.l c.v k q.B.N.n.A.c.& + H.^.I.W.P.U.(.!.c C.C.n.B.B.B.B.B.B.B.B.B.B.B.N.B.B.m.B.n.r.",
"B.B.0.B.B.B.n.N.} 6 j x i.B.B.N.r.N.* + + G.I.W.^.'.).D c.q.m.x.b.B.B.B.B.B.m.m.B.B.c c b.n.B.B.n.n.",
"B.B.B.B.B.B.B.m.h 9 m V m.q.m.m.q.Z.9.@ + G./.Q.Q.U.D } m.m.S.z l m.n.m.B.B.B.m.n.b.e.B.B.B.B.B.m.m.",
"B.B.B.B.B.B.B.c.i.m M B.n.n.B.n.B.B.N.w # = G.G.G.& c.N.z b.A.S.X.z b.H z m.e.q.B.B.B.B.B.B.B.B.q.n.",
"B.B.B.B.B.B.b.B.N.n.n.B.n.n.B.m.e.e.B.0.o = + + @ + * n.z l z v j i v H i u.q.B.B.n.B.B.x.B.m.n.r.n.",
"B.b.B.B.B.n.B.B.B.B.B.B.m.m.B.n.b.u.m.t.% $ $ o @ $ % 0.b.s e.p Z G a.H a N r.B.B.B.B.B.z z p.e.n.r.",
"B.m.x x.B.B.B.B.B.B.B.B.B.B.B.B.B.B.B.B.c.b.0.9.0.n.n.B.B.e.n.r.e.i.n.0.e.r.r.n.B.B.B.n.e.m i.u.m.n.",
"B.S.j n n.B.B.B.B.B.B.B.B.B.B.B.B.B.B.B.B.B.n.N.N.B.B.B.m.n.n.m.n.n.B.B.N.n.m.B.B.n.B.r.x.9 m B.n.n."
};
