/* XPM */
static char *a34f18f8a9f74460a18a77700fdcdb9cfZ0PoUcBWYLeDckN[] = {
/* columns rows colors chars-per-pixel */
"50 50 211 2 ",
"   c #200403",
".  c #2A2426",
"X  c #431309",
"o  c #4A3A30",
"O  c #657F3E",
"+  c #505A4B",
"@  c #4B595A",
"#  c #4C5652",
"$  c #525C55",
"%  c #4A4F52",
"&  c #586C44",
"*  c #576848",
"=  c #4F7B40",
"-  c #5E7745",
";  c #546259",
":  c #597C5E",
">  c #6B6A4F",
",  c #4A5663",
"<  c #496468",
"1  c #4B6870",
"2  c #8F5C47",
"3  c #A9735B",
"4  c #987E65",
"5  c #7C9834",
"6  c #5CB53D",
"7  c #5EB93A",
"8  c #65BA3C",
"9  c #67B93C",
"0  c #78BD3D",
"q  c #75A538",
"w  c #79C13E",
"e  c #75C13F",
"r  c #4B935E",
"t  c #569F55",
"y  c #658344",
"u  c #66954C",
"i  c #729D42",
"p  c #6B9C5C",
"a  c #7F9E50",
"s  c #4FA14F",
"d  c #5BAB4A",
"f  c #5BB143",
"g  c #5CA354",
"h  c #53A052",
"j  c #66AD4E",
"k  c #6CAD4E",
"l  c #60AF44",
"z  c #7CAB45",
"x  c #73AE4D",
"c  c #7AAC4B",
"v  c #7CA444",
"b  c #6AB544",
"n  c #6CB24B",
"m  c #6AB843",
"M  c #75BC43",
"N  c #7BBD45",
"B  c #73B54A",
"V  c #7CB44E",
"C  c #74B84A",
"Z  c #7DBA4B",
"A  c #78B446",
"S  c #65A653",
"D  c #6BAA54",
"F  c #6AA659",
"G  c #77AC56",
"H  c #73B051",
"J  c #7CB253",
"K  c #7FB851",
"L  c #448D60",
"P  c #6A9877",
"I  c #708D6C",
"U  c #75A661",
"Y  c #6EA07B",
"T  c #7CC043",
"R  c #90993D",
"E  c #A79236",
"W  c #AC952F",
"Q  c #88AB3C",
"!  c #84B83E",
"~  c #9BA22E",
"^  c #B8A63A",
"/  c #AAA436",
"(  c #D1AE20",
")  c #CDB228",
"_  c #DAB92A",
"`  c #C8A937",
"'  c #CCBC32",
"]  c #C7B734",
"[  c #D7BD33",
"{  c #D1B537",
"}  c #82C53A",
"|  c #87C939",
" . c #92CE3B",
".. c #99D03D",
"X. c #93D631",
"o. c #A1DA35",
"O. c #E8C61C",
"+. c #FDD91F",
"@. c #E8C929",
"#. c #F6D425",
"$. c #FCDB24",
"%. c #FAD62B",
"&. c #FDDA2B",
"*. c #F6D626",
"=. c #E9CB35",
"-. c #F3CC31",
";. c #FFE62A",
":. c #8C924B",
">. c #B29847",
",. c #87AC46",
"<. c #82B446",
"1. c #84BD46",
"2. c #82B54C",
"3. c #84BD4C",
"4. c #89BE4C",
"5. c #8AB345",
"6. c #86AC54",
"7. c #83B552",
"8. c #85BA51",
"9. c #8ABC53",
"0. c #87B456",
"q. c #93AA4F",
"w. c #BCA748",
"e. c #BCB155",
"r. c #8F9D66",
"t. c #A6936A",
"y. c #9AA368",
"u. c #97B577",
"i. c #8DAE6A",
"p. c #BEB476",
"a. c #D7BE40",
"s. c #CDAE51",
"d. c #C0A160",
"f. c #C7B761",
"g. c #CFBD73",
"h. c #C2A67E",
"j. c #84C245",
"k. c #8CC446",
"l. c #8FC847",
"z. c #86C149",
"x. c #8BC24A",
"c. c #8DC849",
"v. c #90C747",
"b. c #92C944",
"n. c #91C44B",
"m. c #91CA4A",
"M. c #96D046",
"N. c #D2C67A",
"B. c #4C738B",
"V. c #5C8E9A",
"C. c #689997",
"Z. c #648B91",
"A. c #70A18C",
"S. c #568AA9",
"D. c #5F91B4",
"F. c #5C94AD",
"G. c #6192AB",
"H. c #6395BB",
"J. c #6697B3",
"K. c #6CA2A4",
"L. c #5F9CC9",
"P. c #5B96C3",
"I. c #649DC4",
"U. c #619ECC",
"Y. c #6E9FC0",
"T. c #619FD2",
"R. c #719EC8",
"E. c #64A0CD",
"W. c #6BA3C7",
"Q. c #75A2C3",
"!. c #69A5DC",
"~. c #6DACDC",
"^. c #6AA7D6",
"/. c #70AEDE",
"(. c #6FB2DF",
"). c #72B0DF",
"_. c #6DACE3",
"`. c #6EAEEA",
"'. c #6AA7E0",
"]. c #71AEE8",
"[. c #6FB0E9",
"{. c #73B1E3",
"}. c #B19C81",
"|. c #A39383",
" X c #B0AF93",
".X c #B7AD91",
"XX c #89A4B9",
"oX c #C8BA83",
"OX c #C2BA98",
"+X c #D2AA87",
"@X c #C6B5A5",
"#X c #B9C8A9",
"$X c #CFC897",
"%X c #D4CCA9",
"&X c #DEDABB",
"*X c #CCCBAD",
"=X c #BCB8C6",
"-X c #B6C5CB",
";X c #D8DCD7",
":X c #C9CAD2",
">X c #D7E0DF",
",X c #E2E4DF",
"<X c #DADFE2",
"1X c #E5E4E1",
"2X c #EAECE7",
"3X c #F0EFEB",
"4X c #F1F2ED",
"5X c #F9FAF5",
"6X c #FDFEFD",
"7X c #F5F5F8",
"8X c #F3EEF4",
/* pixels */
"x.x.9.H M x.x.x.x.x.x.x.x.x.x.x.x.x.x.x.x.x.x.z.x.x.x.x.x.x.x.x.x.x.x.x.x.x.x.x.x.x.x.x.x.x.x.x.x.x.",
"x.x.3.U n k.x.x.x.x.x.x.x.x.x.x.x.x.x.x.x.x.x.x.x.x.x.x.x.x.x.x.x.x.x.x.x.x.x.x.x.x.x.x.x.x.x.x.x.x.",
"x.x.k.x.x.x.x.x.x.x.x.x.x.x.x.x.x.x.x.x.x.x.x.x.x.T x.x.x.x.x.x.x.x.x.x.x.x.x.x.b.k.x.x.x.x.x.x.x.x.",
"x.x.x.x.x.4.x.x.x.x.x.x.x.x.x.x.x.z.3.x.x.x.x.x.x.m Z z.k.x.x.x.z.x.x.x.3.x.x.x.x.x.x.x.x.x.x.x.x.x.",
"x.x.x.x.x.x.4.j.k.x.x.x.z.x.x.x.x.3.z.z.x.x.x.x.x.M j J x.x.x.z.3.x.k.4.3.x.x.x.x.x.z.k.x.x.x.x.x.x.",
"x.x.x.x.x.x.x.n M 8.x.x.x.x.x.x.x.x.x.k.x.x.x.x.x.x.z.9.x.x.3.x.x.x.x.x.x.x.x.x.x.n.T C z.x.x.x.x.x.",
"x.x.x.x.x.x.k.H D J x.x.x.x.x.x.x.x.x.z.x.x.z.x.z.x.x.x.x.x.x.x.x.x.x.x.x.x.x.x.x.x.x.b N 4.x.x.x.x.",
"x.x.x.x.x.x.x.x.x.x.x.x.x.x.x.x.x.x.x.C z.T l 8.x.x.x.x.x.x.x.z.x.x.x.x.x.x.x.x.x.x.x.F D Z x.x.x.x.",
"x.x.x.z.x.x.x.z.x.x.x.x.x.x.x.x.x.x.4.M.w j H x.z.x.x.x.x.x.x.3.x.z.T k.x.x.x.k.x.x.x.4.9.x.x.x.x.x.",
"x.x.x.x.x.x.3.3.k.x.x.x.x.z.k.x.x.x.k.3.g p 8.c.x.k.x.x.x.j.T x.k.e j.3.x.x.k.x.x.x.x.x.k.x.x.x.x.x.",
"x.x.x.x.x.x.Z 3.x.x.z.x.x.x.x.x.j.x.x.x.K c c 5.5.z.x.x.k.x.| k.j.f j.w N j.x.x.x.x.x.x.x.x.x.x.x.x.",
"x.x.3.x.x.n.H J k.x.x.x.x.x.x.k.9 z.x.k.z  X^ =.=.] <.j.x.k.j.T j.k b 3.m z.x.k.x.x.x.x.x.x.k.x.x.x.",
"x.x.4.4.x.k.7.7.x.x.x.x.x.k.8.8.f n x.n.I E &.&.+.=.OXu.z.k.G D g H t C j 4.k.x.x.x.x.x.x.x.x.k.x.x.",
"x.x.x.x.k.x.k.x.3.z.x.x.x.k.x.x.x.4.x.x.y._ %.@.g.@X7X Xq c.x.x.4.x.9.x.x.x.x.x.x.x.x.x.x.x.v.k.x.x.",
"x.x.x.x.x.x.x.x.j. .k.x.x.j.k.x.x.x.x.c.5 =.+.$X6X:Xf.) t.y.3.x.x.x.k.x.x.x.x.x.x.b.x.x.x.x.x.x.x.4.",
"x.x.x.x.x.1.j.x.k.M C T 3.m x.x.x.x.x.x.2.] +.f.1X.XW e.+Xt.1.x.x.x.x.x.k.x.z.z.x.M...Z x.x.x.x.x.x.",
"x.x.x.x.x.j.m N C g 6 N x.7 3.x.x.x.x.x.x.5.E W _ >.+X}.|.6.n.4.x.x.x.k.3.4.x.x.4.x.3.B 0.x.x.x.x.x.",
"x.x.x.x.x.x.n k.k r B x.z.8 T x.x.x.3.x.x.k.- E @.4 > . > 4.n.4.x.z.x.x.9.x.x.x.x.k.d G 8.x.x.x.x.x.",
"x.x.x.x.x.x.x.x.x.x.z.x.x.x.x.x.x.v.C j.x.k.9.:.` o   X o q.k.4.x.e j.4.4.k.x.x.x.k.n J x.x.x.x.x.x.",
"k.z.x.x.x.x.x.x.x.x.x.x.x.x.x.x.x.z.m 3.x.x.v.1.~ E 2 3 4 ,.k.4.k.X.} 6.3.k.x.x.x.x.x.k.x.x.x.x.x.x.",
"x.x.J J x.x.x.x.x.x.x.x.k.x.x.x.x.x.C x.x.x.! 1.q.{ ` s.s.6.x.x.x.z.N 4.4.x.x.x.x.x.k.x.x.x.x.x.4.x.",
"x.x.1.3.x.x.x.x.x.x.k.3.3.x.x.x.x.x.x.x.x.z.i.;X5X;Xe.a._ t.u.z.x.3.n k.x.x.x.x.b.v.8.x.x.x.k.J 2.x.",
"x.n.m f x.x.x.x.x.x.v.x.} M 3.9.k.x.4.x.k.6.@X&X,X6X;X=X>.^ r.j.4.8.k.4.x.x.x.4.b. .2.x.x.k.z.z.x.x.",
"x.k.V H x.x.x.x.x.x.x.x.} b 7.3.x.x.x.x.x.R @.O.) &X:Xw.#.w.v ,.] / 5.x.x.3.x.v.z.1.z.x.x.x.x.x.x.x.",
"x.x.k.v.x.x.x.x.x.x.z.x.3.3.x.x.x.x.x.k.<.[ &.&.*.^ s.#.#.f.:.[ _ E ,.x.4.7.x.x.x.x.x.x.x.x.x.x.x.x.",
"x.x.x.4.x.x.x.x.x.3.z.x.x.x.x.x.x.x.4.x.Q -.#.*.-.#.$.$.O.p.p.+.) ^ Q 4.x.x.x.x.x.k.x.x.x.x.x.k.x.x.",
"x.x.x.x.x.N x.4.z.k.3.x.x.k.x.x.x.4.k.4.y.-.%.%.&.&.@.f.%X*XN.( R <.3.x.x.4.x.x.x.z.z.x.x.x.4.8.x.x.",
"x.x.x.x.x.j.M Z 4.x.x.x.x.v.x.x.x.n.A #X7Xf.O.#.O.[ $X7X6X6X*X5 1. .v.x.x.x.x.x.x. .T 3.k.x.z.8.x.x.",
"k.x.x.x.x.x.n C 3.x.k.x.x.x.x.x.x.j.u.6X6X4X%X$X%X1X6X6X5X6X,XP K.A.x j.x.x.x.x.3.8.b B 8.x.x.x.x.x.",
"x.x.x.x.k.8.D m 8.x.x.x.x.z.k.k.x.k.r.7X6X5X6X6X6X6X5X6X6X6X3XR.[.].F.c 9.x.x.x.x.J F n z.x.x.x.x.x.",
"x.x.x.4.x.x.n.x.x.x.x.x.n.C N k.x.b.p XX5X6X5X6X5X6X6X6X5X6X5XQ.~.~._.P k.x.x.x.x.x.x.x.x.x.x.x.x.x.",
"x.x.x.x.x.k.x.x.x.x.x.x.x.H D C x.k.J P.XX;X6X6X6X6X6X6X6X6X4XQ./.~._.Y k.x.x.x.x.x.x.x.z.x.x.x.x.x.",
"x.x.x.x.x.b.x.x.x.x.x.x.x.x.3.z.x.c.V W._.H.XX-X<X2X3X2X<X-XZ.P.~.~.'.U k.3.z.x.x.x.v.k.x.x.x.x.x.x.",
"x.4.3.3.x.x.x.x.x.x.x.x.4.x.k.x.k.l.G ^.(.{.!.L.E.W.Q.W.L.B.P.!.^.[.G.<.x.z.x.x.x.k.k.k.x.x.x.x.c.k.",
"x.x.x.x.x.x.x.x.x.x.x.x.x.z.x.x.k.! C.{.~.~./.{._.T.L.S.B.D.E.{.{.J.V k.x.x.x.x.x.x.x.x.x.8.z.x.x.x.",
"x.x.x.x.x.x.x.x.x.x.x.x.x.x.x.x.l.U ^.~.~.~.~.{.V.u = % # D.L.'.G.c k.x.k.z.z.k.x.x.x.x.x.x.x.x.x.x.",
"x.x.x.x.x.x.x.x.x.x.x.x.x.k.x.c.c H.{.~.~.~.).E.H M.z # ; 1 G.I | n.x.x.x.z.e z.n.x.4.x.x.x.x.x.k.x.",
"x.k.x.x.3.4.x.x.z.x.4.1.x.x.v.c J.[.~.~.~./._.Y k.x.<.+ ; + i b.n.4.j.k.4.4.0 N N z.T v.4.x.x.x.x.x.",
"x.x.x.x.| | 4.4.x.x.4.4.z.4.u S.!.{.~.~./.[.Z.! x.x.V $ @ - m.x.x.x.1.w C V j 6 C 4.8 Z 8.x.x.x.x.x.",
"x.4.x.x.w j 0.4.x.x.k.x.l.O , U.I.{.~./._.V.<.x.x.x.1.+ * 1.n.x.x.x.x.m 4.k r S 9.x.6 B 9.x.x.x.4.x.",
"x.x.x.x.z.8.x.x.k.x.x.x.x.* @ H.L.E.)._.Z.0 v.x.x.x.x.v 3.x.x.x.x.x.x.z.x.x.K 8.x.x.3.x.x.x.k.v.x.x.",
"x.z.x.x.x.x.x.x.x.x.x.z.m.y $ 1 E.E.P.P ! n.4.x.x.x.x.c.k.b.b.v.x.x.x.x.x.x.k.x.x.x.k.x.x.x.k.v.x.x.",
"x.x.x.x.x.x.x.x.C k.2.b x.5 $ ; < B.: k.x.x.x.x.x.x.x.x.x.x.k.x.x.x.x.x.x.x.x.x.x.x.x.x.x.x.x.x.x.x.",
"x.x.3.x.x.x.x.x.| w n C 8.4.* , $ # + <.x.j.M x.x.x.x.x.x.x.x.3.z.x.x.x.x.x.x.x.x.x.V V 3.x.x.x.x.x.",
"x.x.x.x.x.x.x.x.M h F J x.c.2.- & - & z N k z.x.z.x.x.x.x.k.x.N C x.k.x.x.x.x.x.k.3.3.x.k.x.x.x.x.x.",
"x.x.x.x.x.x.x.x.8.F H 4.x.x.c.m.c.l.k.k.z.N x.x.k.x.x.x.N z.x.m.o.T z.T N x.2.x.x.x.k.x.x.x.x.x.x.x.",
"x.x.x.x.x.x.x.x.x.k.n.x.x.x.x.x.Z 8.x.x.x.x.x.v.k.x.x.x.j.M N N n f K T f 7.x.x.x.x.x.x.z.x.x.x.x.x.",
"x.x.x.x.x.x.x.x.x.x.x.x.x.x.x.x.x.0.x.x.x.x.x.x.x.x.x.x.3.j 3.g L U 0.T h U 4.k.x.x.x.x.N T 8.9.x.x.",
"x.x.C 3.x.x.x.x.x.x.x.x.x.x.x.x.x.x.x.z.x.x.x.x.x.x.x.x.4.3.x.9.Z 8.n.k.3.x.x.x.x.x.x.x.3.S 8.0.x.x.",
"x.k.n D k.x.x.x.x.x.x.x.x.x.x.x.x.x.x.x.x.x.x.x.x.x.x.x.x.x.x.x.x.x.x.x.x.x.x.x.x.x.x.x.z.t F x.x.x."
};
