/* XPM */
static char *_642528152746[] = {
/* columns rows colors chars-per-pixel */
"50 50 233 2 ",
"   c #270C08",
".  c #4A2021",
"X  c #567636",
"o  c #627F38",
"O  c #7C653C",
"+  c #485B4F",
"@  c #4B5455",
"#  c #555A5E",
"$  c #4D5349",
"%  c #705550",
"&  c #576848",
"*  c #4A764E",
"=  c #51724D",
"-  c #485B69",
";  c #595965",
":  c #576678",
">  c #6F6353",
",  c #92543B",
"<  c #55B636",
"1  c #67AE3D",
"2  c #77A93D",
"3  c #68B838",
"4  c #7EB53F",
"5  c #78B73B",
"6  c #75C335",
"7  c #76C031",
"8  c #5A9C4C",
"9  c #588A50",
"0  c #668745",
"q  c #6C9644",
"w  c #7A9A44",
"e  c #6A9558",
"r  c #658651",
"t  c #5EA94B",
"y  c #55A557",
"u  c #6DAB4C",
"i  c #66AC46",
"p  c #74AD4D",
"a  c #78AB48",
"s  c #6DB245",
"d  c #6DB54B",
"f  c #65B449",
"g  c #74B343",
"h  c #7AB444",
"j  c #74BB43",
"k  c #7CBC44",
"l  c #74B349",
"z  c #7AB54B",
"x  c #74BA4B",
"c  c #7CBB4B",
"v  c #6AA856",
"b  c #72AC53",
"n  c #79AA55",
"m  c #7EB652",
"M  c #7DBC52",
"N  c #78B758",
"B  c #5E9274",
"V  c #468F62",
"C  c #619569",
"Z  c #799C6C",
"A  c #659675",
"S  c #648A6E",
"D  c #6BA263",
"F  c #78A664",
"G  c #7BB263",
"H  c #7CC345",
"J  c #7CC14C",
"K  c #79C747",
"L  c #7EC255",
"P  c #889938",
"I  c #929B3D",
"U  c #97992A",
"Y  c #B7992A",
"T  c #A89924",
"R  c #82A937",
"E  c #9BA73B",
"W  c #83BE3C",
"Q  c #8BBC3F",
"!  c #84B53B",
"~  c #8CB12E",
"^  c #B7A528",
"/  c #A4A835",
"(  c #B7A63B",
")  c #AEB32A",
"_  c #C5B51A",
"`  c #D5BD2E",
"'  c #C9B835",
"]  c #D5BA38",
"[  c #CAB42C",
"{  c #ECBF2E",
"}  c #91D32B",
"|  c #83C43C",
" . c #8BC23D",
".. c #86C939",
"X. c #92C33B",
"o. c #90C93E",
"O. c #8DCF36",
"+. c #F6D81E",
"@. c #F9CB1D",
"#. c #F3E11D",
"$. c #CBC22C",
"%. c #D4C931",
"&. c #F3CA2A",
"*. c #FCD423",
"=. c #FBDC25",
"-. c #FEDC2B",
";. c #F5D729",
":. c #EBCA31",
">. c #FAD535",
",. c #E6D622",
"<. c #FBE426",
"1. c #FAE434",
"2. c #879654",
"3. c #94904B",
"4. c #BB9852",
"5. c #83AD43",
"6. c #84A648",
"7. c #9AA746",
"8. c #84BD45",
"9. c #89BE46",
"0. c #84BC4B",
"q. c #89BE4B",
"w. c #88B448",
"e. c #93BD43",
"r. c #91BE4C",
"t. c #9BBA4B",
"y. c #82A855",
"u. c #82B351",
"i. c #84BD53",
"p. c #8BBE52",
"a. c #8BB956",
"s. c #93BC53",
"d. c #97A158",
"f. c #B2AC49",
"g. c #938972",
"h. c #B2977D",
"j. c #84B364",
"k. c #90AB67",
"l. c #B0AF77",
"z. c #CDB751",
"x. c #C8A06F",
"c. c #85C244",
"v. c #8BC345",
"b. c #84C945",
"n. c #8BC945",
"m. c #85C24A",
"M. c #8BC24B",
"N. c #8CCA4B",
"B. c #92C445",
"V. c #92CA43",
"C. c #91C44A",
"Z. c #93C94B",
"A. c #99C746",
"S. c #85C352",
"D. c #8CC352",
"F. c #8BCB51",
"G. c #8AC159",
"H. c #86C659",
"J. c #92C353",
"K. c #92C952",
"L. c #91C15B",
"P. c #92D14C",
"I. c #DCC545",
"U. c #F6D940",
"Y. c #476C99",
"T. c #5B8C8D",
"R. c #69A186",
"E. c #5486A8",
"W. c #598AB3",
"Q. c #5B96B8",
"!. c #5895A8",
"~. c #639BA2",
"^. c #689EB7",
"/. c #729BB9",
"(. c #7297AB",
"). c #65A8BD",
"_. c #60A0A0",
"`. c #5C9EC9",
"'. c #4B98C2",
"]. c #6A9AC5",
"[. c #679DD7",
"{. c #719ED6",
"}. c #7D9FCF",
"|. c #66A8CC",
" X c #78A5C7",
".X c #6CACDD",
"XX c #6AA7D6",
"oX c #70A7D8",
"OX c #6BB2DB",
"+X c #66B1D6",
"@X c #699FE7",
"#X c #6DACE2",
"$X c #68ABE6",
"%X c #76AAE6",
"&X c #6CB3EC",
"*X c #69B1E1",
"=X c #72B3E8",
"-X c #69ACF4",
";X c #AEAB90",
":X c #B4B2B6",
">X c #99AF98",
",X c #C7A787",
"<X c #C1BFB3",
"1X c #AFC890",
"2X c #B5CBA5",
"3X c #BFCCB2",
"4X c #DAC590",
"5X c #D3D2BC",
"6X c #E3CDB2",
"7X c #8198C4",
"8X c #81A3C6",
"9X c #A7BED0",
"0X c #C4CBC4",
"qX c #D8D6CC",
"wX c #CCD5DC",
"eX c #D7D6D6",
"rX c #D2CCCC",
"tX c #E3DDC9",
"yX c #E6D5DA",
"uX c #DDE2DB",
"iX c #E6E7DD",
"pX c #DBE3E4",
"aX c #E3E5E3",
"sX c #E6E9E7",
"dX c #EBF1E6",
"fX c #F8F7EB",
"gX c #EBEDF1",
"hX c #F5FBF4",
"jX c #FCFDF5",
"kX c #F5FCFC",
"lX c #FDFDFE",
"zX c #F5F3F6",
"xX c #F5ECF0",
/* pixels */
"p.M.S.p l D.D.M.M.M.M.M.M.M.M.M.p.v.B.p.m. .s.c.N.e.N.n...m.A.H M.q.v.M.M.M.M.v.8.M.n.M.v.M.M.m.M.M.",
"v.v.i.b z m.8.B.N.M.M.q.M.M.M.M.v.q.D.9.C.9.S.G.g q.6.y.F.m.r.t.M.M.M.8.M.M.M.q.M.M.M.M.M.M.v.M.M.M.",
"v.v.M.D.m.v.8.M.M.M.M.M.M.q.M.M.N.v.W D.B.n.9.E ` $.( g.o N.L M.M.M.M.M.M.M.M.M.V.v.9.M.M.M.v.v.M.M.",
"m.v.M.M.B.n.M.D.M.M.M.M.v.M.M.M.q.v.C.M.m.a ( <.*.*.1.Y g.j.N.c.9.M.M.8.9.M.M.M.v.M.M.M.M.q.M.C.M.M.",
"M.M.9.q.m.M.n.0.M.M.M.M.M.M.M.m.M.8.y.M.G sX,Xz.I.:.,.=.3.h X. .9.M.M.M.9.M.M.M.M.M.M.c.c.M.m.q.M.M.",
"M.C.M.M.J.M.c.a h c m.M.M.M.M.M.D.C.| w.d.6X:XkXeX:.;.*.f.7 L.8.M.9.M.9.M.M.M.M.M.M.8.k m.N.K.8.v.q.",
"q.D.v.v.q.v.c.b g h D.K.M.v.M.M.m.v.v.2.f._ l.zXqX%.*.>.I m.s.s.M.M.M.q.M.M.M.M.M.M.m.g x i.D.v.M.M.",
"v.D.M.M.p.v.N.D.S.i.q.m.M.M.M.M.J.M.6.;X,Xx.4.z.' [ [ E 9.b.S.c.M.M.M.v.M.M.M.v. .M.H.u u c M.n.M.M.",
"v.v.D.q.M.M.m.m.9.t.E P 5.c.F.v.M.B.c.2.h.;X;X4.&.` > n n.8.M.H M.9.j B.t.m.B.M.M.M.M.M.M.M.9.M.q.M.",
"v.M.M.q.M.M.8.D.9.I ` :.) E u.N p.M.B.m.r $ & > ( T 2.C.M.v.0.D.| K c.i.6 D.Q M.M.M.M.m.M.m.M.M.M.M.",
"M.m.M.M.M.m.u.0.w./ %.+.>.>.$./ u.H m.H.k..     3.I w.m.9.D...c.i.< u.P J n.M.D.M.M.C.M.q.M.C.M.M.M.",
"M.M.8.M.M.m.h z 0.U &.*.<.=.=.*.$.7.6.6.3.% , , Y ~ b.M.r.X.n.5 m.8 ] Y q H A.8.M.M.M.M.M.M.M.n.M.v.",
"M.M.9.M.M.m.z u.r.6.7./ ] :.<.>.-.>.^ ;X>X5XyX5X5XF m.D.M.M.N b q ] -.:.' P H.F.C.9.M.M.M.M.M.M.M.q.",
"M.M.q.M.M.M.0.D.0.8.S.D.6.7.' &.+.+.@.6XlX0XpXdXzX5XR 0.q.c p 7.` <.*.>.I a e.n.v.v.v.M.M.M.v.M.M.M.",
"C.M.M.M.M.v.8.D.p.} | p.N.x h 7.] >.,.5XlXtX0XuXqX:XyXsX;X) $.:.=.@.-.U k P.s.Q v.Z.M.v.M.M.M.K.M.M.",
"v.q.D.M.M.c.c.n.s.6 x k W j F.v.2 f.z.dXlXzXqXlXlXuXuXlXsX] -.;.>.<.E u.Z.9.H J.v.P.Z.8.M.M.9.M.M.v.",
"C.v.v.D.m.q.g H c y 3 0.6 3 K B.B.e :XzXuX0XxXjXlXgXrXhXzXz.=.=.&.f.R ..0.G.M.C.v.D.H d u.C.q.v.v.M.",
"M.v.M.D.M.m.h H u V d N.m.s m r.q.X.w 5XpXhXlXhXhXlXeXxXiX( ' ^ R 5.F.G.p.q.v.v.C.m.u u i.r.C.0.M.M.",
"M.v.m.D.M.M.0.m.c.i.D.8.D.M.9.A.N.W 1XlXkXlXlXhXlXiXxXwX2.R 5.0.m.6 c.0.C.m.m.b.C.m.p l v.B.B.m.M.M.",
"q.v.q.q.9.v.q.n.M.v.M.X.Z.8.u N g ;XfXlXhXzXlXlXzXdXlXlX2Xw.K.8.B.} ..u.p.M.S.m.9.M.n.M.M.v.q.N.M.M.",
"M.M.0.c v.v.M.v.C.8.v.W F _.XXXX~.wXlXzXlXlXjXlXjXhXhXlXzXk.c.V.r.c.c i.p.r.M.J.B.M.M.q.D.D.p.i.q.9.",
"C.M.z z N.M.C.M.B.G.F.n ].-X&X.X XsXfXlXjXjXkXlXlXlXjXkXlX2Xj F.Z.N s c.Q e.M.M.V.Z.0.M.v.M.M.u.9.q.",
"v.M.z g M.c.M.M.v.v.W R.%X#X|.OX XlXlXkXhXjXlXfXkXlXfXkXlXqX5.s.9.M.v.B.B.v.b.0.o.B.q.M. .| v.0.q.M.",
"v.D.l g M.M.q.M.M.v.0.^.#XXX.XOX|.:XfXkXlXjXhXlXlXjXlXlXjX>X5 N.q.N.v.9.D.M D.e.c.8.m.D.D.M.M.C.M.M.",
"M.v.M.C.M.M.M.q.m.M.h ].OX|..X{.|.W./.9XwXfXfXhXjXzXsX0X}.C o.M.m.M.p.B.q.n M.v.M.q.S.M.M.B.q.i.M.M.",
"m.M.n.M.M.v.M.M.M.Q 4 /.=X*X=XW.r C E.[.]./.8X}.7X X).[.[.C Z. .n.v.m.v.v.G.C.v.q.v.n.c.9.v.v.V.M.M.",
"M.M.M.v.m.8.8.c.M.M.w.T.|.`.Q.Q.Z A.p ~..X&X$X.X+X$X+XOXoXZ C.S.r.D.N.M.M.K.M.| v.v.0.i.M.C.0.m M.M.",
"M.M.q.M.N.m.k J | D.v.v W.].|.E.* v.t.2 v !.).XX+X#X#X|.$X~.h A.B.M.c.c.v.v.q.M.v.n.c.c.D.D.w.0.M.v.",
"n.v.q.M.D.0.g l c.K.J.= - : - @ @ w F.G.Z.9.e {.|..X$XXXOX-X~.u q.K.0.F.C.q.8.D.i.0.g g 0.m.v.n.M.q.",
"v.M.M.M.S.c g l u.A.w @ : # @ ; & ! M.F.9.C.M.A %X*X+X.XoXXX&XXXA A * 0 u.C.v.D.p.M p u q.M.M.D.M.M.",
"q.M.M.M.K.M.S.p.M.v.w.o X = 0 2 D.Z.9.C.M.m.8.v.A {..X+X.X.XoX%X].].- $ e C.v.v.v.n.v.M.D.M.m.v.M.M.",
"m.M.M.v.9.v.M.v.n.G.M.N.v.N d x M.c.D.M.Q C.K.O.5 C ^.#X$X&X)..X'.oX: @ 0 V.9.B.q.q.i.S.M.v.M.c.M.M.",
"M.M.M.M.M.M.C.M.M.M.9.M.M.9.8.q.v.M.D.m.8.c.n.6 C.v.p B W.$X&X.X`.].+ # = W p.D.v.M.Z.9.C.v.9.M.M.M.",
"M.c.9.m.M.M.M.9.M.M.M.q.M.M.m.D.9.q.M.c.5 m.c 1 x H H h v C T.T.Q.Y.# ; * N.B.M.c.M.K.C.M.9.q.M.M.M.",
"J.m.8.m.M.M.q.M.M.M.M.M.M.M.M.M.J.M.M.M.c.j f t i f i c v.8.Q ! m & ; ; o L.9.| M.9.M.M.M.8.M.M.M.q.",
"M.M.K.M.M.M.M.C.M.M.M.M.M.M.m.M.q.9.v.n.c.5 d v v v b m M.M.M.D. .a.$ - 0 M.M.c.M.M.q.M.q.M.M.M.M.M.",
"q.M.N.v.c.v.M.M.M.M.M.q.M.M.M.v.M.M.K.M.M.M.D.D.v.v.M.M.M.M.D.m.G. .y.X 5.M.k F.v.M.m.M.M.C.M.9.M.v.",
"M.v.c.c.n.M.M.m.M.M.8.q.M.M.v.B.n.v.0.q.q.v.M.B.p.M.9.v.M.m.C.v.c.o.c.D.v.m.g H 8.m.H m.M.q.9.n.M.M.",
"C.M.v.M.m.0.q.D.M.v.m.M.M.v.v.Z.N.m.q.M.C.v.v.M.8.N.v.Z.C.9.v.v.S.J.m.i.l k t f 5 m.3 c q.M.M.M.M.q.",
"M.q.M.m.k 5 h i.v.M.m.M.m.v.B.P.h q.m.M.n.M.m.D.M.M.9.M.M.m.M.m.M.v.6 3 8.v V t i.S.1 g i.q.M.M.M.M.",
"M.M.M.q.8.9.9.M.L.v. .v.v.C.p.n i x 8.v.v.9.M.M.M.C.m.q.M.M.9.n.D.c.M.q.9.D.m 9.n.M.M.q.q.M.M.C.M.M.",
"M.M.M.M.M.M.m.M.q.D.D.i.m.C.m.0.M q.M.M.m.M.M.M.v.v.M.v.v.Z.v.B.M.b.M.r.B.v.p.K.v.M.M.M.M.C.v.B.v.M.",
"M.m.M.M.M.D.M.q.| | x h 8.M.M.M.m.q.C.C.M.D.8.M.v.M.M.v.M.B.v.v.C.C.M.M.v.v.M.v.M.m.q.m.M.M.M.v.M.q.",
"M.q.9.M.M.M.M.M...5 d g q.M.v.v.C.9.M.m.m.m.8.m.q.q.m.M.M.M.M.9.0.M.q.D.m.D.M. .m.q.q.8.q.M.M.v.M.M.",
"M.M.M.M.M.q.M.M.l v v N D.M.M.v.C.C.v.m.c 5 0.M.M.M.M.M.M.c.M.m.c.n.M.M.m.m.9.M.M.M.8.m.q.M.M.M.M.M.",
"C.M.M.M.v.M.M.M.m u v G.m.v.C.M.M.M.v.m.H k m.N.M.n.v.v.c.c.N.m.O.c.9.m.5 c.8.a.M.M.M.M.M.M.M.m.M.M.",
"q.M.M.q.v.q.M.M.F.M.M.M.v.v.M.D.0.0.M.C.M.m.M.C.v.v.c.M.8.g 0.x d g h K s M m.s.q.M.M.M.m.8.m.M.q.M.",
"M.v.M.M.M.M.M.q.q.B.v.8.p.v.v.M.p.0.q.q.M.D.9.M.M.J.m.F.M s N i V C m L 8 v p. .v.v.M.m.8.0.8.q.M.M.",
"M.v.x N C.m.C.M.M.M.M.M.M.M.M.M.M.M.M.v.M.q.M.M.M.q.M.9.M.q.q.9.8.q.p.M.8.q.9.M.M.m.C.M.9.y G 0.M.M.",
"M.B.d u v.m.M.M.M.M.M.M.q.M.v.M.q.M.M.M.M.M.M.M.M.v.M.M.M.M.M.M.m.D.C.M.M.M.M.M.M.D.M.M.v.y n 9.M.M."
};
