/* XPM */
static char *_b4c272902c24b2c85b9acda17003910SjSoUkrakT5Q1JKL[] = {
/* columns rows colors chars-per-pixel */
"50 50 240 2 ",
"   c #3E0E0E",
".  c #110A2C",
"X  c #65363E",
"o  c #55793C",
"O  c #553950",
"+  c #364761",
"@  c #495948",
"#  c #47585A",
"$  c #4D5757",
"%  c #4D6349",
"&  c #557A43",
"*  c #4E615A",
"=  c #53645A",
"-  c #4A5A65",
";  c #595C64",
":  c #5A6367",
">  c #596177",
",  c #49656B",
"<  c #746F73",
"1  c #816C37",
"2  c #A94E33",
"3  c #877353",
"4  c #789737",
"5  c #69943A",
"6  c #64AE3A",
"7  c #77A83B",
"8  c #69B73C",
"9  c #74B13D",
"0  c #74BB3C",
"q  c #7BBA3E",
"w  c #77B635",
"e  c #76C639",
"r  c #55875C",
"t  c #5D9C59",
"y  c #519950",
"u  c #789746",
"i  c #6C9A58",
"p  c #729957",
"a  c #6D8C4C",
"s  c #59A44B",
"d  c #5AA856",
"f  c #4EA44D",
"g  c #6DAD4B",
"h  c #69A948",
"j  c #74AD4C",
"k  c #78A746",
"l  c #69B547",
"z  c #75B343",
"x  c #7CB444",
"c  c #7CBC43",
"v  c #74B44B",
"b  c #7BB54C",
"n  c #7DB94A",
"m  c #73BC49",
"M  c #69A758",
"N  c #72AC54",
"B  c #78A95B",
"V  c #7DB452",
"C  c #78B755",
"Z  c #69B956",
"A  c #508B71",
"S  c #649A68",
"D  c #6E9372",
"F  c #6CA869",
"G  c #7DC244",
"H  c #7BC24A",
"J  c #78C547",
"K  c #7AC654",
"L  c #979639",
"P  c #AE9D32",
"I  c #94A92B",
"U  c #88AA3E",
"Y  c #97A939",
"T  c #84BD39",
"R  c #89B73F",
"E  c #90B937",
"W  c #B7AB29",
"Q  c #B7A534",
"!  c #A6B236",
"~  c #BAB535",
"^  c #AFAB30",
"/  c #CEAB1D",
"(  c #E1B31F",
")  c #D7A825",
"_  c #CBB02A",
"`  c #D7B425",
"'  c #C2B235",
"]  c #C8B538",
"[  c #D5BB34",
"{  c #CEAA3A",
"}  c #86C33E",
"|  c #8AC33C",
" . c #85C93B",
".. c #89C738",
"X. c #92C93C",
"o. c #88D438",
"O. c #8FCF23",
"+. c #DACF1D",
"@. c #FAD61C",
"#. c #ECD11C",
"$. c #D9C627",
"%. c #D9C438",
"&. c #C0C03A",
"*. c #ECC729",
"=. c #F5CC22",
"-. c #EED628",
";. c #FDDA26",
":. c #F8D729",
">. c #E9C634",
",. c #F9C932",
"<. c #EBD434",
"1. c #FBD634",
"2. c #FFE22B",
"3. c #FFE630",
"4. c #829947",
"5. c #98914A",
"6. c #84B446",
"7. c #85BD45",
"8. c #8ABE45",
"9. c #84BD4B",
"0. c #8ABE4B",
"q. c #87B547",
"w. c #93BD43",
"e. c #92BD4C",
"r. c #98B84E",
"t. c #84AD56",
"y. c #8AAE54",
"u. c #81B552",
"i. c #85BD52",
"p. c #8CBD53",
"a. c #8CBD5C",
"s. c #84B85B",
"d. c #93B953",
"f. c #91A74C",
"g. c #A5A646",
"h. c #BEAC4B",
"j. c #999878",
"k. c #8C956B",
"l. c #BE9867",
"z. c #91B16B",
"x. c #AEA166",
"c. c #A88948",
"v. c #C4984D",
"b. c #C7B345",
"n. c #CDB453",
"m. c #C7B963",
"M. c #CEA875",
"N. c #84C245",
"B. c #8BC345",
"V. c #84CA44",
"C. c #8CC945",
"Z. c #85C24B",
"A. c #8CC34D",
"S. c #8BC54C",
"D. c #8AC44E",
"F. c #8DC54D",
"G. c #8BC24A",
"H. c #8CC94C",
"J. c #87C84A",
"K. c #91C345",
"L. c #93CA43",
"P. c #91C44B",
"I. c #93C94B",
"U. c #99C647",
"Y. c #86C352",
"T. c #8CC352",
"R. c #8CC15A",
"E. c #8AC855",
"W. c #92C453",
"Q. c #92C952",
"!. c #92C35C",
"~. c #9ACB56",
"^. c #94D44F",
"/. c #A2C853",
"(. c #A2CA46",
"). c #CFC54B",
"_. c #557A90",
"`. c #649591",
"'. c #70948C",
"]. c #578AB9",
"[. c #5699BB",
"{. c #5688AB",
"}. c #6D99B8",
"|. c #6692AE",
" X c #59A3BC",
".X c #6DA2B9",
"XX c #5B9CC6",
"oX c #518FC1",
"OX c #668EC9",
"+X c #699BC9",
"@X c #649CD5",
"#X c #5CA2CB",
"$X c #5EA9DC",
"%X c #69A6C7",
"&X c #63A6D4",
"*X c #64ABD6",
"=X c #6CA4DC",
"-X c #6BADDB",
";X c #69A8D9",
":X c #71ACDC",
">X c #6AB1D5",
",X c #73B3D9",
"<X c #6BADE3",
"1X c #69A6E7",
"2X c #6CB3E4",
"3X c #6BB4E9",
"4X c #73B5E7",
"5X c #74B4F3",
"6X c #6EB2F3",
"7X c #92ABBD",
"8X c #B3B0B0",
"9X c #A09D8F",
"0X c #C19E80",
"qX c #C5AC8D",
"wX c #B9C99C",
"eX c #B7C2BA",
"rX c #D8C598",
"tX c #D5CCB4",
"yX c #ADB7CB",
"uX c #94AEC5",
"iX c #C3BEC4",
"pX c #BAC6C9",
"aX c #B2C7D1",
"sX c #C5C7C8",
"dX c #D8DAD8",
"fX c #D0D3D0",
"gX c #E2DFCC",
"hX c #D9E5CD",
"jX c #E4E5DB",
"kX c #F5ECDD",
"lX c #DBD5E3",
"zX c #E8E8E6",
"xX c #FAFBE9",
"cX c #FDFDF5",
"vX c #F5F6FD",
"bX c #FCF4FE",
"nX c #F6FFFE",
"mX c #FCFEFD",
"MX c #F6F6F2",
"NX c #ECEEF0",
/* pixels */
"p.C.i.N m T.T.P.8.G.G.G.G.G.G.G.B.K.0.F.F.G.G.G.B.K.S.G.B.K.G.G.G.G.0.0.G.G.G.0.N.G.B.F.B.G.G.Z.G.G.",
"B.B.i.N b 7.7.B.P.G.G.8.7.G.G.G.B.G.G.0.Z.G.G.G.G.G.Z.S.G.G.G.G.G.G.G.B.G.G.G.G.F.C.8.G.G.S.B.G.G.G.",
"0.B.S.p.G.B.8.S.F.G.G.G.G.G.G.G.G.Z.G.G.G.G.F.G.G.Z.Z.T.S.8.N.S.G.G.G.B.G.G.G.G.K.C.G.Z.0.Z.8.C.G.G.",
"Z.B.C.G.C.C.G.Y.Z.G.Z.G.F.G.G.G.S.N.0.G.B.G.F.8.7.z z Z.Z.G.G.S.7.G.G.0.7.G.G.G.C.K.G.S.G.G.G.K.G.G.",
"G.G.8.0.0.C.B.n Y.F.F.G.G.N.G.S.G.0.0.8.G.G.G.0.J.z 9 n T.F.7.Z.7.G.G.G.0.B.G.G.0.G.J.N.N.S.F.0.G.G.",
"S.P.G.0.p.P.N.v z 9.0.G.G.G.G.G.0.G.B.0.S.S.Z.Z.S.0.n Z.F.G.G.G.0.G.G.B.G.G.G.G.F.0.7.c Z.S.F.9.G.G.",
"9.T.B.C.G.B.0.j z x 0.F.P.F.G.Z.B.P.Z.7.S.Z.7.Y.G.S.T.S.G.8.0.G.G.G.G.8.G.G.G.G.G.G.9.z b Z.Q.0.G.G.",
"K.F.B.S.p.G.H.p.Y.Y.Z.G.G.G.G.G.7.H.N.7.N.c z c B.G.G.G.G.G.G.N.G.G.G.G.G.G.G.0.| S.Y.N g v J.C.0.G.",
"B.0.T.G.S.G.N.0.G.G.G.G.G.F.B.B.C.B.e.U.e d 6.0.K.S.p.0.E.H.7.T.S.G.n e.G.P.C.K.B.G.G.G.G.0.0.Z.G.G.",
"B.G.F.7.G.S.0.Y.Z.G.S.G.G.S.G.Z.i.C.G.0.M i 6.y.u.q J.P.R 8.} p.V.0 N.V.G.7.S.8.0.G.F.0.G.G.G.G.G.G.",
"G.G.G.0.G.Z.9.u.G.G.G.G.G.G.G.G.7.K.J. .B w p j.W ~ w.6.U.8.o.c G 6 G H 9.G E.G.G.G.F.G.G.G.S.B.G.G.",
"G.G.0.G.0.0.x b H.G.B.S.S.8.G.P.8 7.T.J.e 9X3 ;.1.;.:.' 7 a...J G 8 0 n 8 N.Z.8.G.G.G.F.G.G.F.B.G.G.",
"G.G.0.G.B.S.n b B.B.B.F.G.0.0.0.l N e.G.V.a ,.1.1.b.n.).wXz.p j S B d N h Y.B.K.F.B.G.G.G.G.B.C.B.G.",
"G.G.8.Z.Z.S.0.Y.7.G.G.G.0.G.0.8.e i.Z.G.G.L ,.@.[ kXNXyXbXz.9.C.7.J.9.G B.T.P.G.B.B.B.G.F.G.G.P.0.G.",
"B.0.G.G.S.B.G.F.B.J.J.J.G.J.G.S.W.G.H.p.| U #.2.).NXdXj.[ c.k Z.B.V.K.N.P.Z.G.8.B.I.F.7.G.G.G.P.G.G.",
"B.G.T.G.F.7.7.N.J.c q c c q c H.8.F.} d.P.V g.>.) %.n.h.h.M.0Xu P.0.F.G.T.B.G.F.} ^.I.7.0.F.7.G.G.G.",
"e.B.G.F.G.9.z G V f l T N.6 J P.w.Z.V.K.p.F.u o ) >.v.0XqX9Xk.q.V.8.Q.w.p.Y.Z.G.B.T.G g u.0.0.C.0.G.",
"0.B.G.F.N.0.z H h s Z G.S.m n e.H.G.} Y.H V.u.k.) P < > - j.i.8.T.J.p.C.9.} !.B.K.Y.h g p.P.P.0.G.G.",
"F.B.F.T.G.G.9.J.i.V Z.G.G.c N.P.Z.!.0 7./.} H.u Q L .   . 3 0.e.w.4 J Q.8.G.w.K P.Z.j b F.8.C.G.G.G.",
"G.B.0.Y.8.B.G.G.F.P.K.G.B.C.K.P.w.Z.8 t.U.C E d.U b.O 2 X 3 0.Z.Y ' l z Y.G.Z.w.K.Z.C.J.B.8.8.F.G.G.",
"G.B.c u.B.K.G.B.7.K.G.0.J.T.Z.0.e. .U ^ t.U ( ! 4.=.~ c.l.4.N.V ] ] Y h.u.P.B.Q.G.0.G.Z.T.W.p.i.0.0.",
"F.F.x b F.G.F.B.H.K.G.Z.N.Z.Y.G.N.H.y.+.` *.{ 9XdXrXn.b.( Q i c ~ ) [ P Y 7.Z.0.L.I.9.0.B.0.F.V 8.B.",
"C.F.v z G.N.0.G.B.7.S.B. .q 9.8.E.Z.k L 3.` W h.rXvXmXpXrXg.j.k.~ >.` %.f.N.E.S.X.L.9.F.| N.C.9.G.G.",
"B.H.v j S.G.F.S.P.Z.E.B.T z C 8.i.I [ ,.<.:.;.=.x.eXhXdXmXjXpXsX] <.$.^ u.Y.Z.w.N.7.B.Y.T.B.F.K.G.G.",
"7.G.F.F.B.G.G.F.G.0.0.T.7.8.F.0.g.2.1.1.:./ h.tXMXtXjXbXcXnXfXQ $.;.1.E a.u.V.Z.K.0.Y.T.G.B.T.0.G.G.",
"G.G.G.G.F.B.G.F.G.0.9.Z.G.B.0.6.$.;.=.:.:.P lXmXfXNXnXnXcXnXzX[ -.-.1.~ 8.Z.N.B.0.B.V.B.B.B.B.C.G.G.",
"G.S.G.B.Z.N.q N.G.G.0.Z.G.T.T.x >.:.<.;.=.*.rXjXfXbXmXmXcXvXNX>.;.=.;.' q.T.r.K.C.G.n 9.P.S.q.u.G.B.",
"G.G.8.G.H.Z.c n 7.F.G.8.G.P.F.6.P :.;.-.$.n.8XdXmXcXxXmXmXmXmXm.@.@.=.! a.Z.Q.N.B.B.N.7.T.W.9.9.G.0.",
"B.F.G.G.T.9.z v 9.G.0.B.B.G.F.N.6.f.P 5.gXmXbXcXnXMXmXmXvXnXmXtX4 g.u z ..C.Y.p.i.n z z 9.G.B.C.G.G.",
"B.G.G.G.Y.n z g 9.F.B.G.G.N.N.S.~.J 9 pXcXxXmXmXnXcXmXmXcXmXnXzXl e Z s.R G.G.C.p.V j j 9.P.Z.p.G.G.",
"G.G.G.G.T.P.Y.Y.G.F.B.S.T.n c Z.e.Z.a.bXbXnXxXmXMXcXmXfX8X7XuX7XD t v d.d.Y.P.Z.B.F.N.G.Z.Z.G.B.G.G.",
"G.G.G.B.B.B.G.K.G.B.7.S.a.b j v S.} z.MXnXmXmXmXmXzXyX7X%X&X$X&X2X+Xt H.N.B.w.P.B.Z.Y.Y.G.B.F.Z.G.G.",
"N.G.B.G.G.G.P.F.B.B.B.G.B.B.0.9.p.K.6.'.yXfXaXaX7X}.&X*X3X>X<X*X;X3X|.7.Q.c G.K.G.G.P.B.F.B.G.G.G.G.",
"Z.G.7.0.G.G.G.8.T.S.I.S.Y.W.F.B.Y.K.Q.r @X+X@XXX;X:X2X;X&X5X=X&X:X%X;XN K...a.N.B.G.Q.K.G.8.B.G.G.G.",
"W.Z.Z.G.F.G.0.G.G.0.F.R } p.Y.T. .8.L.S oX-X4X<X2X<X*X2X>X@X{.#X:X-X@Xx | T.T.V.Z.0.G.0.G.0.Z.F.G.G.",
"F.S.P.Z.G.G.B.G.G.F.Z.F.F.F.K.B.H.0.u..X<X].}.%X#X;X%X+X].].,X2X2X1XS X.G.9.Z.B.F.B.G.G.0.0.S.0.G.G.",
"0.G.H.B.N.B.G.0.C.} B.Y.P...| a.a.B.`.-X<X2XXX X[.& = + {. X#X-X=X'.T B.T.Z.q V.B.G.Z.S.G.e.F.N.G.G.",
"G.B.N.N.B.F.F.F.| G.p.0.N.B.B.W.9.D ;X,X*X*X,X6X}.k $ > , %X&X+X`.9 J.N.p.p.m e 7.J.c J.G.B.B.B.G.G.",
"P.G.G.G.J.0.9.T.F.a.R.0.Y.a.F.O.F 1X2X=X=X4X=XOXp U.o $ % - |.> v p.B.G b b M 8 9 Z.l c 9.0.G.G.G.8.",
"0.8.G.J.c 9 z Y.G.C.G.B.C.L.s.D XX-X>X2X-X$X=Xi V.H.R @ : : # 5 ^.8.K.l e M r s i.Y.6 z 9.F.G.G.G.G.",
"0.G.G.G.0.8.7.G.F.8.B.Z.R.4.o oXXX.X5X*X-X%XS B.!.N.H.a # : * a W.7.F.B.0.p.9.9.B.G.G.0.B.0.B.U.G.G.",
"Z.G.F.G.G.Z.G.G.9.I.S.K 0.@ - _.5XXXXX3X@XD 8.S.} B.H.K.u @ # u I.7.B.G.8.G.T.T.G.G.F.Z.F.G.B.P.G.G.",
"F.G.G.G.Z.P.G.0.7. .0 9 T.% - - _.:X$X].S G.G.p.B.B.N.B.~.k a N.C.F.0.G.G.8.G.B.G.G.Z.9.G.G.G.B.G.G.",
"G.0.7.0.G.F.G.0.S.m m k p.4 - ; @ _.|.i 7.G m N.Y.0.H.8.0.I.C.N.9.0.F.F.Y.P.K.} G.G.0.7.0.G.G.B.G.G.",
"G.G.G.G.G.G.G.F.q y F n p.B.* ; : - % e.} g G B.8.!.F...B.0.G.9.V.8.K.J.G Q.8.G.G.G.0.Z.Z.F.G.G.G.G.",
"G.G.G.G.B.G.G.P.9.h N Y.K.Q.5 @ - = $ a T.v I.d.P.8.8.I.N.Y.G.} o.T 0.H 0 G.q.R.G.G.Z.G.G.Z.F.G.G.G.",
"G.G.G.B.B.0.G.G.Y.F.B.G.8.Z.X.p & o & k Q.E.T U.S.B.W.9.7.v w Z.l 7 6.m 6 b p.T.8.F.G.G.Z.7.0.Z.G.G.",
"B.0.G.G.G.G.G.G.B.p.K.C.T.9.B.F.T.e.~.V.N.B.0.J.C.Y.B.H.Z.l G S A F i.C s B p.} B.B.G.7.7.7.0.9.G.G.",
"G.K.C C C.Z.P.G.G.G.G.G.G.G.B.G.G.G.G.0.G.G.G.G.G.G.0.B.0.0.0.8.c 9.0.0.0.7.G.G.G.Z.P.G.8.d B 0.S.G.",
"G.B.l N B.Z.G.G.G.G.G.G.0.G.G.G.G.G.G.G.G.G.B.G.G.G.G.G.G.G.G.G.F.Z.P.Z.G.G.G.F.S.0.G.S.7.d B 9.G.G."
};
