/* XPM */
static char *_5ecc9ce988449e19777f3542698d95atDJwm2jHyx8Kw0f3[] = {
/* columns rows colors chars-per-pixel */
"50 50 210 2 ",
"   c #200403",
".  c #2A2428",
"X  c #431309",
"o  c #4A3A31",
"O  c #607C3F",
"+  c #4F594D",
"@  c #4C5452",
"#  c #4B5A54",
"$  c #4D585A",
"%  c #525C55",
"&  c #494E51",
"*  c #576A46",
"=  c #5C7546",
"-  c #54625A",
";  c #587A5F",
":  c #677E49",
">  c #6F6555",
",  c #4A5564",
"<  c #4A6469",
"1  c #4B6870",
"2  c #8F5C4B",
"3  c #AB725E",
"4  c #987E65",
"5  c #7C9935",
"6  c #5BB53D",
"7  c #5EB93A",
"8  c #79AA3B",
"9  c #64BA3B",
"0  c #67B93C",
"q  c #76BE3C",
"w  c #7CB53E",
"e  c #7CC13D",
"r  c #72C13B",
"t  c #49935D",
"y  c #569F55",
"u  c #5A9747",
"i  c #668343",
"p  c #729D43",
"a  c #7F9E50",
"s  c #6D9253",
"d  c #4FA14D",
"f  c #5BAB4A",
"g  c #5CB143",
"h  c #5CA453",
"j  c #54A153",
"k  c #66AC4D",
"l  c #6AAE4E",
"z  c #60AF44",
"x  c #74AD4D",
"c  c #7DAC49",
"v  c #79A845",
"b  c #6AB545",
"n  c #6DBB41",
"m  c #6CB24B",
"M  c #66B446",
"N  c #75BC43",
"B  c #7CBE46",
"V  c #73B44B",
"C  c #7CB54E",
"Z  c #7DBA4B",
"A  c #77B646",
"S  c #6CAA55",
"D  c #68A657",
"F  c #73AE54",
"G  c #7AA85A",
"H  c #73B151",
"J  c #7DB352",
"K  c #7CB556",
"L  c #448D62",
"P  c #659A68",
"I  c #6A9578",
"U  c #73A662",
"Y  c #7CC143",
"T  c #75C041",
"R  c #8F963E",
"E  c #A69237",
"W  c #AD9630",
"Q  c #88AB3D",
"!  c #84B83F",
"~  c #9BA232",
"^  c #B6A238",
"/  c #ABA334",
"(  c #CFAE21",
")  c #CDB228",
"_  c #DBBA2A",
"`  c #CAB733",
"'  c #D7BD33",
"]  c #D0B537",
"[  c #C7A736",
"{  c #81C63A",
"}  c #88C838",
"|  c #92CE3B",
" . c #9AD13C",
".. c #94D531",
"X. c #A4DE32",
"o. c #E8C61B",
"O. c #FDD91E",
"+. c #C7C03B",
"@. c #E9C928",
"#. c #F5D425",
"$. c #FBDA23",
"%. c #FBD72C",
"&. c #FDDA2A",
"*. c #F6D528",
"=. c #E8C934",
"-. c #F4CD32",
";. c #FFE62A",
":. c #8B9448",
">. c #909754",
",. c #B4994A",
"<. c #AD9742",
"1. c #82AD45",
"2. c #87A749",
"3. c #90A540",
"4. c #82B544",
"5. c #84BD46",
"6. c #82B54C",
"7. c #84BD4B",
"8. c #89BE4C",
"9. c #8BB944",
"0. c #82AD54",
"q. c #93AA59",
"w. c #83B552",
"e. c #84B951",
"r. c #8ABA52",
"t. c #86B259",
"y. c #BDA947",
"u. c #BBB255",
"i. c #979F6C",
"p. c #A6946C",
"a. c #95B576",
"s. c #98AF69",
"d. c #BEB476",
"f. c #D8BF41",
"g. c #CDAE50",
"h. c #C0A160",
"j. c #C7B861",
"k. c #CFBD73",
"l. c #C2A67E",
"z. c #84C245",
"x. c #8CC446",
"c. c #8ECA46",
"v. c #86C149",
"b. c #8BC24A",
"n. c #8DC94A",
"m. c #86C945",
"M. c #90C747",
"N. c #92CA44",
"B. c #90C34C",
"V. c #90C94B",
"C. c #99CE40",
"Z. c #8FCC4C",
"A. c #D1C57B",
"S. c #4C6F82",
"D. c #4D7691",
"F. c #5B8D9A",
"G. c #5C9380",
"H. c #618F8C",
"J. c #659598",
"K. c #699192",
"L. c #6EA094",
"P. c #5389A9",
"I. c #5F91B2",
"U. c #6293AC",
"Y. c #6498BA",
"T. c #6DA0A4",
"R. c #5D98C6",
"E. c #649DC5",
"W. c #619DCA",
"Q. c #619DD1",
"!. c #719EC8",
"~. c #6DA2C3",
"^. c #68A1CB",
"/. c #78A3C2",
"(. c #69A5DB",
"). c #6EACDB",
"_. c #68A5D5",
"`. c #70AEDE",
"'. c #72B0DF",
"]. c #6DACE3",
"[. c #6EAEEA",
"{. c #70ABE4",
"}. c #6EB0E9",
"|. c #72B1E2",
" X c #B09C81",
".X c #A39383",
"XX c #ADAA8F",
"oX c #88A4B8",
"OX c #C7BA84",
"+X c #C1BA98",
"@X c #D2AA87",
"#X c #C6B5A5",
"$X c #B9C8A7",
"%X c #CFC896",
"&X c #D3CCA8",
"*X c #DED9BC",
"=X c #CECAAE",
"-X c #BDB9C7",
";X c #B6C6CB",
":X c #CACAD3",
">X c #D9DBD8",
",X c #D8E0DA",
"<X c #DAE0E0",
"1X c #E4E5E0",
"2X c #EAEBE7",
"3X c #F4F4EE",
"4X c #F9FBF6",
"5X c #FDFEFD",
"6X c #F5F5F7",
"7X c #F2EEEF",
/* pixels */
"b.b.r.F N n.b.b.b.b.b.b.b.b.b.b.b.b.b.b.b.b.b.b.b.b.b.b.b.b.b.b.b.b.b.b.b.b.b.b.b.b.b.b.8.b.b.b.b.b.",
"b.b.8.U m v.b.b.b.b.b.b.b.b.b.b.b.b.b.b.b.b.b.b.b.b.b.b.b.b.b.b.b.b.b.b.b.b.b.b.b.b.b.b.b.b.b.b.b.b.",
"b.b.x.b.b.b.b.b.b.b.b.b.b.b.b.b.b.b.b.b.b.b.b.b.b.B v.b.b.b.b.b.b.b.b.b.b.b.b.b.N.x.8.x.b.b.b.b.b.b.",
"b.b.b.b.b.b.b.8.b.b.b.b.b.b.b.b.b.b.7.v.b.b.b.b.b.n Z v.b.b.b.b.8.8.b.x.7.n.b.8.M.b.b.b.b.b.x.b.b.b.",
"b.b.b.b.b.8.b.{ x.b.b.b.b.b.b.b.b.7.7.v.b.b.b.b.b.n S C n.b.b.7.7.b.b.8.7.b.b.b.8.b.v.b.b.b.b.v.b.b.",
"b.b.b.x.b.b.b.l B Z b.b.b.b.b.b.b.b.b.b.b.b.b.b.b.b.v.7.8.b.7.b.b.b.n.8.b.b.b.b.x.B.B N v.b.b.b.b.b.",
"b.b.b.b.b.b.n.F S K b.b.b.b.b.b.b.b.b.v.b.b.v.v.b.b.b.b.b.b.b.b.b.b.b.b.b.b.b.b.b.b.8.b B 8.b.b.b.b.",
"b.b.b.b.b.b.8.b.b.b.b.b.b.b.b.b.b.b.b.N v.B M e.b.b.b.b.b.b.b.b.b.x.8.b.b.b.b.8.b.b.b.S S C n.b.b.b.",
"b.b.b.x.b.b.b.v.b.b.b.b.b.b.b.b.b.b.8. .} l H 8.v.8.b.b.b.b.b.7.b.z.N B.b.b.n.x.b.b.x.8.8.b.b.b.b.b.",
"8.b.x.8.b.b.7.5.x.b.b.b.v.b.x.b.b.b.b.7.h P J n.8.n.x.n.b.v.Y b.b.r z.v.n.b.x.x.b.b.b.B.b.b.b.b.b.b.",
"b.b.b.b.b.b.Z 7.b.b.v.b.b.b.b.x.z.b.b.b.V 5.B.b.5.8.9.v 6.x.} m.z.g z.N B z.b.8.b.b.b.b.b.b.b.b.b.b.",
"b.b.7.b.b.B.F J n.b.b.b.b.b.b.v.0 v.b.8.B.n.z.Q ` =.=.y.XXc c.N z.m A 5.0 7.b.b.b.b.b.b.b.b.b.b.b.b.",
"b.b.8.8.b.n.6.w.b.b.b.B.b.x.w.r.g V B.b.b.x.a.+X=.O.&.;.E s G S h V y V m 8.x.b.b.b.b.b.b.b.x.b.b.b.",
"b.b.b.b.x.b.b.B.5.7.b.b.b.b.b.b.8.8.b.b.x.8 XX4X+Xk.=.%._ >.7.b.7.b.7.b.b.8.b.b.8.b.b.b.b.b.M.M.b.b.",
"b.b.b.b.8.b.b.b.z.| b.b.b.b.x.b.b.b.b.9.i.p.) j.:X4X%XO.=.5 b.b.b.b.b.b.b.b.b.b.b.V.b.b.b.b.8.b.8.b.",
"b.b.b.b.b.5.z.b.n.N N N 5.0 b.b.b.b.b.4.p.@Xh.^ XX1Xj.$.] 6.b.b.b.b.b.b.b.b.b.b.b.|  .B b.b.b.b.x.b.",
"b.b.b.b.b.v.n N Z h g Y b.7 v.b.b.b.b.b.2..XXX@X,.' W W 9.b.B.v.b.b.b.b.6.b.b.b.b.b.7.V w.8.b.b.b.b.",
"b.b.b.b.b.b.m b.l t V b.v.9 B b.b.b.v.b.r.> . > 4 _ E : N.b.x.b.b.b.b.b.r.b.b.b.v.x.f F 8.b.b.b.b.b.",
"b.v.b.b.b.b.b.b.b.v.v.b.b.b.b.b.b.b.T Y q.o X   o [ :.b.x.b.b.b.b.q z.8.b.b.b.b.b.b.m J b.b.b.n.b.b.",
"b.x.b.b.b.b.b.b.b.n.b.b.b.b.b.b.b.v.b b.2.4 3 2 E ~ ! q b.8.b.b.8...} e.7.n.b.b.b.b.B.n.b.b.b.b.b.b.",
"b.b.K J x.b.b.b.b.b.b.b.b.b.b.b.b.x.V 7.1.[ g.) ] q.q A 8.b.b.b.n.z.N 8.r.b.b.b.b.5.b.b.b.b.b.8.8.b.",
"b.b.B 7.b.b.b.b.b.8.b.5.v.b.b.b.b.B.z.a. X_ f.u.>X4X,Xs.x.8.b.b.n.e.l v.b.b.b.b.N.N.7.b.b.b.v.J 7.8.",
"8.B.b z b.b.b.b.b.b.M.b.{ T 7.r.6.6.v.XX,.<.-X>X5X1X*X#X2.x.b.b.v.b.b.b.b.b.b.b.C.| 7.b.b.b.b.b.b.b.",
"b.n.Z x b.b.b.b.b.b.b.b.{ M e.2./ ` 4.2.y.*.u.:X*X` o.@.:.7.b.b.b.b.b.b.b.7.b.b.7.B 6.b.b.b.b.b.b.b.",
"b.b.n.M.8.b.b.b.b.7.v.b.7.7.b.3.W _ +.:.g.#.#.g.^ #.%.&.' 6.b.8.b.b.b.b.r.K b.b.b.b.b.b.b.b.b.b.b.b.",
"b.b.b.8.b.b.b.b.b.8.b.b.b.b.8.Q / ) O.d.OXo.$.$.#.%.#.#.-.Q n.b.b.b.b.b.v.x.b.b.b.b.b.b.b.b.b.b.b.b.",
"b.b.b.b.x.5.v.8.b.b.v.7.b.b.b.5.4.R ( A.=X&Xj.@.$.%.%.&.@.i.4.n.b.b.b.b.b.b.b.b.b.z.b.b.b.n.8.e.b.b.",
"b.b.b.b.b.B q 7.b.b.v.8.n.x.8.B.M.z.5 =X5X5X6X%X' o.#.o.j.6X$X! b.b.b.b.b.x.b.b.b.| e 5.b.8.7.6.b.b.",
"x.b.b.b.b.b.M V 7.b.b.b.b.b.x.C L.T.I 1X5X4X5X5X1X&X%X&X7X5X5Xa.e B.B v.b.b.b.b.r.J b V 7.b.b.n.b.b.",
"b.b.b.b.b.e.S A 7.b.b.b.b.x.A I.].[.!.2X5X5X5X4X5X5X5X5X5X5X6X0.r Y g w.r.x.b.b.b.J D V 7.b.b.b.b.b.",
"b.b.b.b.b.b.n.b.b.b.b.b.b.q P [.).(./.4X5X5X5X5X5X4X4X4X5X3XoXs 9 k m r.v.b.b.b.b.x.b.B.b.b.b.b.b.b.",
"b.b.b.b.b.v.b.b.b.n.b.b.b.x I ].).]./.3X5X5X5X5X5X5X5X5X>XoXW.U m H K b.b.b.b.b.b.b.b.b.b.b.b.b.b.b.",
"b.b.b.b.b.M.x.b.b.b.b.b.b.x.U (.`.`.E.D.;X1X2X7X2X>X;XoXY.[.~.A b.b.x.b.b.v.v.b.b.b.M.n.b.b.b.b.b.b.",
"b.8.7.7.b.b.b.b.b.b.b.b.8.B.4.U.[.`.).R.D.Y.^.~.~.E.^.[.|.|._.K B.b.8.b.b.v.b.b.b.b.x.x.b.8.8.x.M.M.",
"b.b.b.b.b.b.b.b.b.n.8.b.b.8.N.x Y.{.|.W.Y.S.P.W.^.`.|.).).).|.J.5.b.b.b.b.b.b.b.b.b.b.b.b.8.b.b.b.b.",
"b.b.b.b.b.b.b.b.8.v.x.b.b.b.b.x.6.J.(.W.I.@ & = u P.|.).`.).'._.G x.b.b.b.v.b.b.b.b.b.b.b.b.b.v.8.b.",
"b.b.b.b.B.b.b.b.b.b.b.b.x.M.b.8.n.4.P U.1 - + v Z.F _.).).).).].E.c x.v.x.v.r b.B.b.v.b.b.b.b.b.n.b.",
"b.v.b.b.7.8.b.b.b.v.b.7.b.x.b.b.8.n.M.p # - % 4.b.x.I [.).).).).|.Y.v | 8.b.q B B z.Y B.7.b.b.b.b.b.",
"b.b.b.b.} x.b.8.b.b.b.7.b.b.8. .c.v.b.M.i $ % 1.B.b.! H.|.).).).).(.P.u V Z k g V 8.0 7.e.b.b.b.b.b.",
"b.8.b.x.r l w.8.b.b.b.b.b.b.8. .A v.b.b.8.* # 4.n.8.V.Q F.[.).).|.^.R., O m L k r.b.6 V r.b.b.b.8.b.",
"b.b.b.b.7.5.8.n.b.b.b.b.b.b.8.G k N v.b.n.4.p b.b.b.b.B.Q H.].`.W.W.Y.$ * b.7.6.b.b.v.b.b.b.b.M.b.b.",
"b.b.b.b.b.b.b.b.v.b.b.n.b.x.b.7.C B b.b.b.b.n.b.b.b.b.b.n.! I E.^.W.1 % i M.b.M.b.b.b.b.b.b.b.n.b.b.",
"b.8.b.b.b.b.b.b.q x.J M 8.b.b.b.B.b.b.b.b.b.b.b.b.v.b.b.b.x.} ; D.< $ $ v B.8.v.b.b.b.x.b.b.b.b.b.b.",
"b.b.7.b.b.b.b.8.| q m V 6.b.b.b.b.b.b.b.b.v.N b.b.b.b.b.b.x.4.+ @ % , * b.b.b.b.b.b.C 6.7.b.b.b.b.b.",
"b.b.b.b.b.b.b.b.A j D J b.b.b.b.b.n.8.b.A m v.b.b.b.b.b.b.n.c * * = : w n.b.8.b.b.7.7.b.x.b.b.b.b.b.",
"b.b.b.b.b.b.b.n.e.D F 8.n.8.b.b.b.n.b.b.v.Z B.b.n.b.b.b.5.z.n.N.X.T m.z.Z 8.7.8.b.b.b.b.b.b.b.b.b.b.",
"b.b.b.b.b.b.v.b.b.n.n.b.b.b.b.b.Z 7.b.b.x.b.8.M.n.b.b.b.B N N Z l z C B 6 w.8.x.b.b.b.b.v.b.b.b.b.b.",
"b.b.b.b.b.b.b.b.b.b.b.b.b.b.b.b.b.w.8.b.x.b.b.b.b.b.b.b.7.k 7.D L D t.Y d G 8.v.b.n.b.b.B Y 7.r.b.8.",
"b.b.b 7.x.b.b.b.b.b.b.b.b.b.b.b.b.b.b.b.b.b.b.b.b.b.b.b.8.6.b.8.7.e.b.b.7.8.8.b.b.b.b.B.7.D e.e.b.b.",
"b.B.m S n.b.b.b.b.b.b.b.b.b.b.8.b.b.b.b.b.b.b.b.b.b.b.b.b.n.b.b.b.B.n.b.b.n.b.b.b.b.b.8.z.y D b.b.b."
};
