/* XPM */
static char *f8820100b9284249fd29df07e075c73bosWCxsXcE7q9ahVA[] = {
/* columns rows colors chars-per-pixel */
"50 50 215 2 ",
"   c #4C1F22",
".  c #7B3F34",
"X  c #6F5034",
"o  c #4C5B4C",
"O  c #4D5958",
"+  c #515C5A",
"@  c #404C4C",
"#  c #4F614B",
"$  c #52674C",
"%  c #5B7944",
"&  c #556653",
"*  c #577559",
"=  c #607C49",
"-  c #485A64",
";  c #565960",
":  c #537F7E",
">  c #4A6670",
",  c #807D30",
"<  c #8F712F",
"1  c #937D41",
"2  c #837970",
"3  c #4A933D",
"4  c #5CB53D",
"5  c #5EB93A",
"6  c #65BA3C",
"7  c #69B63D",
"8  c #76BF3D",
"9  c #72B13E",
"0  c #69AE37",
"q  c #77C13D",
"w  c #4C935E",
"e  c #569F55",
"r  c #658E40",
"t  c #6B9642",
"y  c #6E964A",
"u  c #6B9851",
"i  c #4FA14F",
"p  c #5BAB4A",
"a  c #5BB143",
"s  c #5DA453",
"d  c #54A153",
"f  c #6AAE4D",
"g  c #65AC4B",
"h  c #7CAB4B",
"j  c #76AA47",
"k  c #6BB544",
"l  c #6BBA42",
"z  c #6CB24B",
"x  c #66B446",
"c  c #72B542",
"v  c #7CB246",
"b  c #75BC43",
"n  c #7BBD45",
"m  c #73B44B",
"M  c #7CB44D",
"N  c #75B84A",
"B  c #7DBA4C",
"V  c #6BAA55",
"C  c #68A658",
"Z  c #73AE54",
"A  c #76AA59",
"S  c #77A859",
"D  c #73B151",
"F  c #7DB352",
"G  c #7FB851",
"H  c #418C61",
"J  c #5D9867",
"K  c #5F8F77",
"L  c #6A9B64",
"P  c #61917B",
"I  c #74A661",
"U  c #7CC043",
"Y  c #7AC046",
"T  c #909532",
"R  c #85A63F",
"E  c #9BAA3B",
"W  c #99A83E",
"Q  c #83BC3B",
"!  c #A2A02F",
"~  c #BBA728",
"^  c #A7A737",
"/  c #B4AA35",
"(  c #B2B43C",
")  c #BBB52D",
"_  c #AA8E2B",
"`  c #D2B01B",
"'  c #C19C27",
"]  c #C2A72E",
"[  c #C8B42D",
"{  c #D4BB2E",
"}  c #DEBF29",
"|  c #C4AF30",
" . c #CBB435",
".. c #DCBB30",
"X. c #82C53A",
"o. c #88C939",
"O. c #92CE3B",
"+. c #9AD13C",
"@. c #94D531",
"#. c #A1D835",
"$. c #EECD1E",
"%. c #FAD91C",
"&. c #DCC227",
"*. c #DDC433",
"=. c #EDCC2A",
"-. c #E8C728",
";. c #F3D224",
":. c #FCDA27",
">. c #F3D32B",
",. c #FBD52C",
"<. c #FDDC2A",
"1. c #FBD727",
"2. c #EDCA31",
"3. c #F1CE2A",
"4. c #FFE128",
"5. c #829C4D",
"6. c #828E5A",
"7. c #958F43",
"8. c #B19B57",
"9. c #86A542",
"0. c #8AAE44",
"q. c #85AB44",
"w. c #83B445",
"e. c #84BD45",
"r. c #83B54B",
"t. c #84BD4C",
"y. c #89BE4C",
"u. c #80AE56",
"i. c #83B452",
"p. c #84BA51",
"a. c #8ABA52",
"s. c #87B456",
"d. c #92AD42",
"f. c #B7A759",
"g. c #808B61",
"h. c #8F9F7A",
"j. c #BE9F68",
"k. c #A4947E",
"l. c #94B276",
"z. c #A0B97F",
"x. c #D0BF4B",
"c. c #C5A956",
"v. c #84C245",
"b. c #8BC446",
"n. c #8FC847",
"m. c #86C14A",
"M. c #8DC449",
"N. c #8AC14C",
"B. c #88C34D",
"V. c #8BC24A",
"C. c #8CC94A",
"Z. c #85C945",
"A. c #90C747",
"S. c #92C944",
"D. c #90C34C",
"F. c #90C54B",
"G. c #91C949",
"H. c #9ACD40",
"J. c #96D048",
"K. c #DBC25B",
"L. c #4D718A",
"P. c #4B7189",
"I. c #5B809B",
"U. c #6C9883",
"Y. c #5185AD",
"T. c #598EB9",
"R. c #568BB7",
"E. c #5C90B8",
"W. c #618FB0",
"Q. c #6796B9",
"!. c #6898AC",
"~. c #7DA2BD",
"^. c #5F99C7",
"/. c #659DCC",
"(. c #689AC4",
"). c #6B9ED3",
"_. c #6AA0CE",
"`. c #6CA4D1",
"'. c #6CA4DB",
"]. c #6DA8D8",
"[. c #74ADDB",
"{. c #74AAD8",
"}. c #77B0DD",
"|. c #72A8E2",
" X c #76B0E2",
".X c #79B2E4",
"XX c #B19F8B",
"oX c #A5BD8D",
"OX c #BAB499",
"+X c #92A9BB",
"@X c #B7BABA",
"#X c #C1B786",
"$X c #BFC6BB",
"%X c #D0C596",
"&X c #CFC2A0",
"*X c #D3CCAF",
"=X c #E1D9B2",
"-X c #90ADC4",
";X c #B4BBC5",
":X c #AFC1CB",
">X c #B7C8CF",
",X c #C9C9C6",
"<X c #D2D3CE",
"1X c #D6D6D4",
"2X c #DADAD9",
"3X c #CCCCD8",
"4X c #E1E0DC",
"5X c #E7E2CF",
"6X c #DDE2E5",
"7X c #E8E8E9",
"8X c #E9E9F2",
"9X c #EFF1F3",
"0X c #FAFBF6",
"qX c #FDFEFC",
"wX c #F4F5F1",
/* pixels */
"V.V.a.D b M.V.V.V.V.V.V.V.V.V.V.V.V.V.V.V.V.V.V.V.V.V.V.V.V.V.V.V.V.V.V.V.V.V.V.V.V.V.V.V.V.V.V.V.V.",
"V.V.y.I z m.V.V.V.V.V.V.V.V.V.V.V.V.V.V.V.V.V.V.V.V.V.V.V.V.V.V.V.V.V.V.V.V.V.V.V.V.V.V.V.V.V.V.V.V.",
"V.V.M.V.y.V.V.V.V.V.V.V.V.V.V.V.V.V.V.V.V.V.V.V.V.n B.V.V.V.V.V.V.V.V.V.V.V.V.V.S.b.y.V.V.V.V.V.V.V.",
"V.V.V.V.V.V.V.V.V.V.V.V.V.V.V.V.V.V.t.V.b.V.V.V.V.l B y.V.V.V.b.y.B.V.V.m.V.V.V.A.V.V.V.V.V.V.V.V.V.",
"V.V.V.V.V.V.V.q V.V.V.V.M.V.V.V.V.t.t.V.V.V.V.V.M.c f M M.V.V.t.t.V.b.e.t.V.V.V.V.V.V.V.V.V.V.V.V.V.",
"V.V.V.b.V.V.D.z N t.V.V.V.V.V.V.V.V.V.V.V.V.y.V.V.V.y.y.V.V.t.V.V.V.V.V.V.V.V.V.V.D.b b V.V.V.M.V.V.",
"V.V.V.V.V.V.V.Z V M M.V.V.V.V.V.b.V.y.m.V.V.m.B.V.V.V.V.V.V.V.M.V.V.V.V.V.V.V.V.V.V.m.k n y.V.V.V.V.",
"V.V.V.V.V.V.V.V.V.B.V.V.m.V.V.V.V.V.V.b v.n 6 i.V.V.V.V.V.V.B.m.V.V.V.V.V.V.V.V.V.V.V.V V F M.V.V.V.",
"V.V.V.V.V.V.V.m.V.V.V.V.V.V.V.V.V.V.y.+.X.g D y.V.V.V.V.V.V.V.t.y.v.Y V.M.V.b.b.V.V.V.y.y.V.V.V.V.V.",
"V.V.V.V.V.V.t.e.V.V.V.V.V.V.V.V.V.B.M.t.s L F b.m.V.V.V.V.v.U V.V.8 v.e.V.V.V.V.V.V.V.V.V.V.V.V.V.V.",
"V.V.V.V.V.V.t.t.V.V.V.V.V.V.V.V.v.y.V.V.M t.M.V.V.M.V.V.V.V.o.Z.v.a v.q n m.V.V.V.V.V.V.V.V.V.V.v.V.",
"V.V.t.V.V.V.D F b.V.V.V.V.V.V.v.7 V.V.V.M.b.V.M.y.t.V.V.V.A.v.b v.m k t.l v.V.V.V.V.V.V.V.V.b.V.V.V.",
"V.V.y.y.b.M.i.F M.V.V.V.V.M.s.y.4 m V.V.V.V.V.V.r.S F.F.V.b.A V d D d m g y.V.V.V.V.V.V.V.V.b.b.V.V.",
"V.V.V.V.b.V.V.F.e.m.B.M.V.M.V.V.y.y.V.V.m.V.V.V.G.t r t M.V.V.V.y.V.y.V.V.V.V.V.V.V.V.V.V.V.b.A.V.V.",
"V.V.V.V.V.V.D.V.e.O.M.M.m.v.M.V.V.b.V.V.V.V.M.m.d./ T , j G.V.V.M.V.M.V.V.V.V.V.V.S.V.V.V.V.V.V.V.V.",
"V.V.V.V.V.n e.V.M.b b b e.l V.B.V.V.V.V.B.B.M.q.&.4.3.-.| r.B.V.V.V.V.V.M.V.V.V.m.+.+.B V.V.V.V.V.V.",
"V.V.V.V.V.v.l b N d 4 v.m.6 v.V.V.V.V.V.V.V.t.E 1.3.>.<.:.d.y.y.V.V.V.V.r.V.V.V.V.V.t.z s.y.V.V.V.V.",
"V.V.V.V.V.V.z M.f w m V.m.6 n V.V.V.y.V.V.V.v 8.2.,.>.3.<.E V.D.V.m.B.M.a.B.V.V.V.b.p Z a.V.V.V.V.V.",
"V.V.V.V.V.V.V.V.V.V.t.b.V.V.V.V.V.D.b v.D.A.9.6X%X$.>.:.,.W B.V.V.8 v.V.B.V.V.V.V.M.z i.M.V.M.M.V.V.",
"V.V.b.V.V.V.V.V.V.V.V.V.V.V.V.V.V.m.k y.y.y.y 8X=X` _ ~ ~ w.M.y.V.@.X.s.y.V.b.V.V.V.M.M.V.V.B.V.V.V.",
"V.M.F F V.V.V.V.V.V.V.V.V.V.V.V.V.V.N y.C.R ~ f. .$.{ ] < t C.V.B.b.b y.y.V.V.V.V.t.y.V.V.V.V.y.m.V.",
"V.V.n t.V.V.V.V.V.V.D.v.t.A.V.V.V.V.M.V.b.5.j.c.j.c.[ ' ( v D.V.M.r.z M.V.V.V.V.S.S.t.V.V.V.b.F t.y.",
"V.B.k x V.V.V.V.V.V.A.V.q q t.p.V.V.y.b.m.6.XXk.XX2 1 2.( B.V.V.V.M.A.M.V.V.V.y.H.O.p.B.V.V.V.e.V.V.",
"V.M.M j V.y.V.V.V.V.V.V.X.k s.y.b.V.V.y.M.t.j r.y   X 4.~ v F.V.w.r.m.w.t.y.V.M.v.n y.V.V.V.V.V.V.V.",
"V.V.M.M.V.V.V.V.V.V.t.y.m.t.B.b.V.M.V.F.M.F.M.Z.5.. <  .#XoX0.v.E ^ E ^ r.F m.V.V.V.V.V.V.V.V.B.V.V.",
"V.V.V.V.V.V.V.V.V.t.V.V.V.M.V.V.V.B.B.w.r.B.b 7 = XXOX4XqX4Xh.z.T =.4.[ t.M.V.V.V.V.V.V.V.V.M.M.V.V.",
"V.V.V.V.M.n V.y.V.V.t.y.V.V.V.B.0.9.R / d.V.v.0 ,XqXqXqX2X1X1X7XOX~ =.*.9.M.M.V.V.v.V.V.V.M.r.p.V.V.",
"V.V.V.V.M.v.b B V.V.V.B.M.b.V.M.q.{ =.3.9.B.c h.$X1X<X<X7XqXqX<X7XK.;.:...q.M.B.V.O.q t.M.V.y.t.V.V.",
"b.V.V.V.V.V.x m t.M.M.V.V.V.V.B.M | <.>.[ T ! &XqX7X@X9XqXqXqXwX3Xc.%.>.,.E B.V.y.i.k m y.V.V.V.V.V.",
"V.V.V.V.M.p.V c r.V.V.V.y.V.b.G.q.[ :.>.;.1.4.K.9XqX9X2XqX0XqXqX7XOX-.4.3.R B.V.V.F C z t.V.V.V.V.V.",
"V.V.V.V.V.V.M.V.V.b.V.V.D.b b S.h -.1.;.>.>.1.*.2XqX7X1XqX0XqXqXqXqX*X) ^ r.M.V.V.V.D.V.V.V.V.V.V.V.",
"V.V.V.V.V.M.V.V.y.V.V.V.A.Z V N w.~ <.:.:.1.4.=.5XqX,XwXqXqXqXqXqX0XqX*XM C.V.V.V.B.V.V.m.V.V.V.V.V.",
"V.V.V.V.V.S.V.V.V.V.V.V.y.V.e.y.B.q.^ [ { { ) 7.*X3X7XqX0XqXqX0XqXqX0XqXoX8 D.V.V.V.S.M.V.V.V.V.V.V.",
"V.t.t.y.V.V.V.V.V.V.V.V.V.V.M.V.V.F.t.w.7 9 n 3 @XqXqX0XqXqXqXqX0XqXqXqXz.v.D.V.V.V.b.b.V.B.V.V.n.M.",
"V.V.V.V.V.V.V.V.V.V.V.V.V.V.V.V.V.y.V.A.v.q Y 3 ,XqXqXqXqXqX0XqX0XqXqX;Xy G.y.m.b.V.V.V.V.y.V.V.V.V.",
"V.V.V.V.V.V.V.V.V.V.V.V.V.V.V.V.V.V.V.V.t.c J E.Q.-X-X6XqXqXqXqXqX0X:XE.S v.V.V.V.V.V.V.V.V.V.y.V.V.",
"V.V.V.V.V.V.V.V.V.V.V.V.M.M.M.V.V.V.V.V.v.S )..X[.[.`.(.+X@X,X7X>X(.'.Q.8 b.8 B.M.V.V.V.V.V.V.V.b.V.",
"V.V.V.V.e.y.V.V.V.V.y.e.V.b.B.V.y.V.V.V.o.U.|.{.{.{. X X'.Q.Q.(./.}.|.L V.y.8 U n V.b A.t.V.V.V.V.V.",
"V.V.V.V.o.v.V.V.V.V.y.y.V.V.B.+.S.e.A.y.A.P |.{.[.[.[.[.[..X.X.X-X|.K q N M g 4 N y.6 B r.V.V.V.V.V.",
"V.y.V.V.8 f s.y.V.V.V.V.V.V.y.+.N e.D.D.e.: ).}.[.[.{._.`.`.].`.^.L e.x r.f w C a.V.4 Z D.V.V.V.y.V.",
"V.V.V.V.t.t.V.b.V.V.V.V.V.V.t.Z g b m.B.e.!.T.].}.{.`.^.Y.T.> - $ S.M.t.V.B.p.r.V.V.m.V.B.V.V.A.V.V.",
"V.V.V.V.V.V.V.V.m.V.M.V.V.V.M.p.F v.m.V.O.U.'.Y.).}. X X^.{.> O y M.V.V.V.M.M.M.V.V.V.B.V.V.b.A.V.V.",
"V.V.V.V.V.V.V.V.b A.i.l y.V.V.M.V.V.V.V.D.h (.{.E.T./.T.).L.+ & e.M.V.V.V.V.V.V.V.V.V.M.V.V.V.V.V.V.",
"V.V.t.V.V.V.V.V.o.8 z m a.V.V.V.V.V.V.V.t.Z.L '..X`./.T.P.+ ; % b.V.V.V.V.V.V.V.V.V.M r.t.V.V.V.V.V.",
"V.V.V.V.V.V.V.V.b d C F V.V.V.V.V.A.V.V.N z e.L T././.'.P.- & c U V.B.V.V.V.V.V.V.y.t.V.b.V.V.V.V.V.",
"V.V.V.V.V.V.V.V.p.C Z V.V.V.V.V.V.V.V.V.m.v F.o.* L.L.L.- @ y J.#.Y v.v.b V.r.B.V.V.M.V.V.V.V.V.V.V.",
"V.V.V.V.V.V.m.V.B.M.V.V.V.V.V.V.t.t.V.V.V.M.V.= O + & + + o k B f a M U a i.V.V.V.V.V.V.y.V.B.V.V.V.",
"V.m.V.V.V.V.V.V.V.V.V.V.V.V.V.V.V.r.y.V.V.B.e.% & & o o # & r.g H I s.U d S y.b.V.V.V.D.b b y.y.V.V.",
"V.V.b t.V.V.V.V.V.V.V.V.V.V.V.V.V.V.V.V.V.V.V.C.V.e.v y.e.t.M.y.t.p.V.V.t.y.V.V.V.V.V.V.y.C p.s.V.V.",
"y.A.z V V.V.V.V.V.V.V.V.V.V.V.V.V.V.V.V.V.V.V.V.V.V.b.M.V.b.M.V.M.V.V.V.M.V.V.V.V.V.V.V.v.e C V.V.V."
};
