/* XPM */
static char *bf8204df8ba645e48ff6012cf83fd264R63wCAapkyFTv3O0[] = {
/* columns rows colors chars-per-pixel */
"50 50 231 2 ",
"   c #00020E",
".  c #381C04",
"X  c #3C2205",
"o  c #2B2A2B",
"O  c #41190D",
"+  c #4B2502",
"@  c #4B2905",
"#  c #542500",
"$  c #552C02",
"%  c #5B2D02",
"&  c #5E3002",
"*  c #5A370A",
"=  c #503615",
"-  c #642C00",
";  c #6D2C01",
":  c #633402",
">  c #6B3401",
",  c #613A06",
"<  c #6E3803",
"1  c #67390B",
"2  c #723300",
"3  c #7B3600",
"4  c #733A01",
"5  c #7C3D01",
"6  c #693E13",
"7  c #74340A",
"8  c #4A3621",
"9  c #5A420E",
"0  c #554612",
"q  c #5C5619",
"w  c #585519",
"e  c #494D1A",
"r  c #7E4101",
"t  c #78410B",
"y  c #6B431A",
"u  c #7B491A",
"i  c #605717",
"p  c #735B1B",
"a  c #5C621F",
"s  c #594A37",
"d  c #554735",
"f  c #734E2C",
"g  c #70593C",
"h  c #5B722A",
"j  c #606D29",
"k  c #637B2D",
"l  c #60712A",
"z  c #716032",
"x  c #394B55",
"c  c #484D4C",
"v  c #495657",
"b  c #555B5A",
"n  c #545047",
"m  c #5C615D",
"M  c #737656",
"N  c #566569",
"B  c #4C6877",
"V  c #4D6266",
"C  c #636A68",
"Z  c #69767C",
"A  c #595958",
"S  c #813700",
"D  c #823D01",
"F  c #834201",
"G  c #8A4500",
"H  c #8D4807",
"J  c #8A5D32",
"K  c #8A6014",
"L  c #925F44",
"P  c #A37752",
"I  c #8A7B6E",
"U  c #8A7442",
"Y  c #5C9F38",
"T  c #64802F",
"R  c #678934",
"E  c #728738",
"W  c #6A963A",
"Q  c #709D3E",
"!  c #5CB83D",
"~  c #6FA93F",
"^  c #76A53D",
"/  c #68BA3C",
"(  c #76BA3D",
")  c #75C03F",
"_  c #579F55",
"`  c #539951",
"'  c #729659",
"]  c #59AB48",
"[  c #5AA353",
"{  c #55A948",
"}  c #68AA49",
"|  c #76AA42",
" . c #79AC42",
".. c #77A945",
"X. c #6AB544",
"o. c #6BB24B",
"O. c #6BBA41",
"+. c #7BB245",
"@. c #75BC43",
"#. c #7ABD45",
"$. c #7CB54C",
"%. c #74B94A",
"&. c #7DBA4A",
"*. c #72B24A",
"=. c #6BAA55",
"-. c #6AA358",
";. c #76AD55",
":. c #71B151",
">. c #7CB452",
",. c #7BB754",
"<. c #448D62",
"1. c #74A661",
"2. c #7DC044",
"3. c #919538",
"4. c #AD9831",
"5. c #AB8D2F",
"6. c #98A83A",
"7. c #83BC3F",
"8. c #9EB33E",
"9. c #A8AD39",
"0. c #B7A835",
"q. c #B6B63C",
"w. c #AFB135",
"e. c #D6B92A",
"r. c #C7B733",
"t. c #D4BD35",
"y. c #CCB52C",
"u. c #E0BD2D",
"i. c #CFAF1E",
"p. c #8FCA3A",
"a. c #AECF39",
"s. c #F2D31E",
"d. c #DBC22B",
"f. c #DDC239",
"g. c #E4C629",
"h. c #F6D42B",
"j. c #FBD42C",
"k. c #FDDB2B",
"l. c #F4D425",
"z. c #F8D833",
"x. c #E7CD2E",
"c. c #FEE62E",
"v. c #8A9654",
"b. c #B59A54",
"n. c #AB984C",
"m. c #88A844",
"M. c #84BC47",
"N. c #81B54D",
"B. c #84BC4C",
"V. c #89BE4A",
"C. c #86B445",
"Z. c #98B543",
"A. c #89A958",
"S. c #83B653",
"D. c #87B953",
"F. c #BBAF52",
"G. c #908F74",
"H. c #A89569",
"J. c #87AC69",
"K. c #C9B448",
"L. c #C19E64",
"P. c #C7B97A",
"I. c #CBAA79",
"U. c #83C245",
"Y. c #8CC446",
"T. c #85C24A",
"R. c #8BC24A",
"E. c #8CCA4D",
"W. c #8ECA46",
"Q. c #93C945",
"!. c #90C54B",
"~. c #91CB4D",
"^. c #97D247",
"/. c #92CF50",
"(. c #8FD152",
"). c #86C550",
"_. c #55758C",
"`. c #687B82",
"'. c #5783A5",
"]. c #5A93BD",
"[. c #5388B1",
"{. c #678AA3",
"}. c #6998BC",
"|. c #749BB5",
" X c #77A0BC",
".X c #5D99C4",
"XX c #659CC5",
"oX c #639FCC",
"OX c #5EA1D5",
"+X c #6CA4CD",
"@X c #6DAAD5",
"#X c #6EADDA",
"$X c #69A6D2",
"%X c #71ABD5",
"&X c #71AEDA",
"*X c #72B1DD",
"=X c #78B1DC",
"-X c #7CA0C0",
";X c #73B5E7",
":X c #6CB0E1",
">X c #9B9B99",
",X c #BAA48B",
"<X c #A9A196",
"1X c #9A9EA1",
"2X c #9BB1BF",
"3X c #B6B7AF",
"4X c #A5B6BE",
"5X c #A4A589",
"6X c #C8B69C",
"7X c #BFC5B9",
"8X c #ACC492",
"9X c #D1CDAD",
"0X c #D5D2B9",
"qX c #CCC9BC",
"wX c #E0D3A6",
"eX c #B6BDC3",
"rX c #BBC1C3",
"tX c #C9C9C5",
"yX c #D9DADA",
"uX c #D3D5C7",
"iX c #E2DFD6",
"pX c #E4E2DD",
"aX c #D9DEE1",
"sX c #DFE7E9",
"dX c #E5E6E3",
"fX c #ECEEEC",
"gX c #E8E9E7",
"hX c #F1F2EF",
"jX c #FDFEFC",
"kX c #F6F9F7",
"lX c #EAEDF5",
/* pixels */
"R.R.D.:.@.!.R.R.R.R.R.R.R.R.V.R.R.R.R.R.V.R.R.R.R.R.R.R.R.R.R.R.R.R.R.R.R.R.R.R.R.R.R.R.R.R.R.R.R.R.",
"R.R.B.1.o.Y.R.R.R.R.R.R.R.R.).R.R.R.R.R.R.R.R.R.R.R.R.V.R.R.R.R.T.R.R.R.R.R.R.R.R.R.R.R.R.R.R.R.R.R.",
"R.R.Y.R.R.R.R.R.R.R.R.R.R.R.R.R.R.R.V.R.R.R.R.R.R.#.R.R.R.R.R.R.R.R.V.R.R.R.R.R.Q.Y.V.R.R.R.R.R.R.T.",
"R.R.R.R.R.V.R.R.R.R.R.R.R.R.R.R.R.R.B.R.R.R.R.R.R.O.&.V.R.!.R.R.V.V.Y.R.V.T.R.R.Y.R.R.R.R.R.R.R.R.R.",
"R.R.R.R.R.V.R.U.Y.R.R.R.R.R.R.R.R.V.B.R.R.R.Y.R.R.@.o.*.T...V.!.V.R.Y.Y.V.R.R.R.R.R.Y.V.R.R.R.Y.R.R.",
"R.R.R.R.R.R.R.o.#.N.R.R.R.R.R.R.R.R.R.R.R.R.R.Y.E.T.m.q.w.v.' C.R.R.R.V.R.R.R.R.R.!.#.#.V.R.R.Y.R.R.",
"R.R.R.R.R.R.Y.;.=.>.R.R.R.R.R.R.R.R.R.U.R.R.V.M. .w.l.k.c.z.M J.Y.R.R.R.R.R.R.R.R.R.T.X.#.V.R.R.R.R.",
"R.R.R.R.R.R.R.R.R.E.R.R.R.R.R.R.T.R.R.@.#.2./ J.3XwXd.x.h.l.K.5XU.R.T.R.R.T.Y.R.R.R.R.=.=.>.Y.R.R.R.",
"R.R.R.R.R.V.R.U.R.R.R.R.R.R.R.R.R.R.R.p.p.=.} v.0XyX3X9Xu.k.g.E ~.U.2.R.R.R.R.!.R.R.R.R.V.V.R.R.R.V.",
"R.R.R.R.R.R.B.B.R.R.R.R.R.R.R.R.R.R.R.V.[ ' H.b.e.P.lXhX6Xs.g.7.W.) U.B.Y.R.R.R.R.R.R.R.R.R.R.R.R.R.",
"U.R.R.R.R.R.N.V.R.R.B.m.M.R.R.R.U.R.V.R.:.1.,XI.L.n.9X0X0.g.6.7.U.] U.2.#.V.R.R.R.R.R.R.R.R.R.R.R.R.",
"Y.R.B.V.R.R.$.;.Z.9.3.r.9.$.R.Y./ R.R.R.!.Y.G.<X6XL.4.g.U E U.#.U.o.X.T.O.T.2.R.R.R.R.R.R.R.R.R.R.R.",
"R.R.V.R.R.Y.N.S.C.0.l.l.l.r.Z.m.{ :.R.R.!.V.M o b G.b.e.n.N.;.=.[ :._ *.} Z.a.C.R.R.R.R.R.R.R.R.R.R.",
"R.R.R.R.R.R.R.!.).| d.k.k.k.h.x.w.m.E.R.Q.A.g . O   U 3.m.W.V.R.R.R.).C.0.u.0.m.Y.V.R.R.R.R.Q.!.R.R.",
"R.T.R.R.R.R.R.R.2.8.d.w.t.h.k.l.k.e.m.D.D.A.b.P L g 3.&.R.R.R.!.Y.M.8.f.h.y.4.Z.M.^.R.R.R.R.R.R.R.R.",
"R.R.R.R.R.#.T.V.E.( ~ X.+.3.f.h.j.d.0XyX>XH.F.H.b.K.3.Y.M.Y.T.N.6.t.j.k.e.y.6.6.C.^.p.&.R.R.R.R.R.R.",
"R.R.R.R.R.M.O.#.:.[ ! T.Y.! | q.l.P.jXdX3XuXyXdXjXkXqX..8Xv.9.f.j.j.h.z.u.e.9.N.Y.!.N.*.S.V.R.R.Y.R.",
"R.R.R.R.Y.R.o.R.=.` *.R.Y.! 2.V.6.pXjXtXhXjXpXtXdXgXrXgXiXe.k.k.h.h.z.0.m.N.C.Y.R.Y.] ;.B.Y.V.R.R.T.",
"R.T.R.R.R.R.R.R.Y.R.T.R.R.E.E./.>.aXdXyXjXkXjXgXdXtXyXjX0Xg.h.h.c.z.9.$./.E.$.~ R.Y.o.S.R.R.R.R.R.R.",
"R.R.Y.R.R.R.R.R.R./.E.E.B.| R j 0 1 <XjXkXjXjXjXjXpXdXjX0Xg.c.z.e.p e l l w * : w +.~.Y.R.R.R.R.R.R.",
"R.R.>.>.R.R.R.Y.N.a q q 9 1 > 3 3 ,XjXjXjXjXjXjXjXkXqXhXfXF.4.K 4 3 3 3 3 3 D G 5 = | R.R.R.R.V.B.R.",
"R.R.&.V.R.Y.V.E.w 2 D 5 D F G 3 ,XjXkXjXjXjXkXjXjXjXkXI H.I 6 4 F r F F F F F 5 F 3 0 T.R.R.R.>.N.R.",
"R.R.X.} R.R.!...* G 5 F D D 3 P jXjXjXjXjXjXjXjXjXkXjX3X; 3 G F r D 5 F r 5 5 F F F > W /.V.R.R.R.R.",
"R.R.&.:.R.V./.k 2 F F D 3 f f >XgXaXkXjXjXjXjXjXjXkXjXgXu F F D F F 5 F F F r r F r 3 w E.R.R.R.R.R.",
"R.R.Y.R.R.R.R.q S F D u {.@X*X+X}.4XpXjXjXjXkXjXjXjXjXkXJ 5 F F 5 F 4 . $ D F r D r G * ^ ~.R.R.Y.R.",
"R.R.R.V.R.R.(.i D F 5 {.;X%X%X%X&XXX2XhXjXjXjXjXjXjXjXjXJ 3 5 5 D G > X : F D r r D F 2 T /.V.Y.R.R.",
"R.Y.R.R.!.T.Q = - D u +X%X#X#X#X%X&X+X|.eXaXhXkXkXhXhXeXs 8 n n s 6 F F F F F r F 5 r 3 a E.V.N.R.R.",
"R.R.R.Y.!./ @ 4 : % s *X#X@X$X%X*X%X%X%XXXXXXX X X X|.x c x c v x 6 F 5 F 5 r D F F F F 9 T.V.,.R.R.",
"T.R.R.Y.~.Q > F H > o *X&XoX].].}.:X:X:X&X&X*X&X:X#X_.B b b v v 8 H F r 5 r F F F : # & + h (.R.T.R.",
"R.R.R.V.~...: F F # y +X*X&X;X_.1 g `.|.oX$XoXoX.X.X.X[.'._.B y G 5 5 r 5 5 4 5 2 * F r 5 % w +./.R.",
"R.R.R.V.~...: G 4 % 5 {.@XXX.X[.y ; % - * V .X.X$X@X%X]..X+XZ # @ % % % % $ : % $ + : F F H % . R /.",
"R.R.R.V.Q.| : G 4 : D m OXoX.X_.c % > : - 8 @X=X#X$X%X*X@X;XN 4 @ 4 G F F F r r 4 5 % + 2 : $ 2 + | ",
"R.R.R.R.~.^ > G 4 & G t _._.B V n F G G H D C ;X&X&X%X%X;X+X6 F 5 . + % $ $ : % $ $ & # X . F F 3 k ",
"R.B.V.B.!.Q > F 4 & F 4 c b N V = - : - : % + B :X;X;X;X@Xn # $ $ > # 4 5 F H F F F F F F $ F F 2 k ",
"R.R.R.M./.W > F 5 $ F 5 b N N b 1 4 4 > > 4 D + g Z `.C y F F F D G @ $ % $ $ % % $ % % % X 5 F 2 k ",
"R.R.R.V./.k 2 F 5 % F D s B N d $ : : % : : & + % - - ; > : & $ % $ % 4 5 5 F 5 D r 5 5 F % r F 3 k ",
"R.R.R.V.~.k 2 H r % F G 1 v b 1 4 4 4 5 5 < < F 2 > 4 < > > 4 5 r F F F F F F D F 5 r D F % 4 F 2 k ",
"R.R.R.R.T.W $ 5 F $ 5 F : = 6 D D F F r r F F F F F F F F F F F r r r r F r r D F r F r F : 4 F 2 k ",
"R.R.R.R.p.W.} 0 2 % F G < 2 H D F G F F F F F F F D G D F F D D S S 3 3 5 S D D F F F F G & 4 G > k ",
"R.V.R.R.( } D.T.h + : > # $ , , , , > > : : : : , , , , , * 9 i q q a w q w e * : > > 2 3 # 3 F 3 R ",
"R.R.R.R.T.S.V.R.(.| Q R Q  .+.-.{ W ~ | | | | | +.+.+.+.+.+.T.E.E.E.(.T.).T.,.$.| W R k j e q i * h ",
"R.R.R.R.R.!.R.R.V.~.~.E.~.E.!.D.,.T.Y.E.!.Y.!.!.R.!.!.R.~.Q.Q.Y.R.V.R.R.R.Y.~.R.~.~.~.~.E.E.E.Y.+.M.",
"R.T.R.Y.Y.R.R.T.@.Y.$.X.V.V.R.Y.R.R.R.R.R.R.V.R.R.R.R.R.R.R.R.Y.R.R.R.R.Y.R.R.T.R.T.V.R.V.V.V.V.Y.R.",
"R.R.B.R.R.R.R.R.p.( o.%.N.R.R.Y.R.R.R.R.V.U.@.R.R.R.R.R.R.V.R.U.R.T.R.R.R.R.R.R.R.V.N.$.R.R.Y.Y.R.R.",
"R.R.R.R.R.R.R.!.%.[ =.>.R.R.R.R.R.Y.Y.R.%.o.T.R.R.R.R.R.!.R.R.B.@.T.R.T.R.R.R.R.R.V.V.R.R.R.R.R.R.R.",
"R.R.R.R.R.R.R.R.S.-.;.V.R.R.R.R.R.E.Y.R.T.&.!.R.Y.R.R.R.2.T.R.!.a.2.U.2.#.Y.N.R.Y.R.R.R.R.R.R.R.R.R.",
"R.R.R.R.R.T.R.R.Y.Y.!.R.R.R.R.R.B.N.R.R.R.R.V.Y.Q.R.R.!.2.O.#.&.o.] ,.U.{ N.R.R.R.R.R.R.U.Y.V.R.R.R.",
"R.R.R.R.R.R.R.R.R.T.R.R.R.R.R.R.V.D.R.R.R.R.R.R.R.R.R.R.T.=.B.-.<.1.S.2.[ 1.V.R.R.R.R.R.#.#.D.V.R.R.",
"R.R.%.B.Y.R.R.R.R.R.R.R.R.R.R.R.R.R.R.R.R.R.R.R.R.R.R.R.V.B.R.V.B.B.R.Y.B.).V.R.R.R.R.R.B.-.D.D.R.R.",
"R.!.o.=.Y.R.R.R.R.R.R.R.R.R.R.R.R.R.R.R.R.T.R.R.R.R.R.V.R.R.R.R.R.Y.R.R.R.R.R.R.R.R.R.!.U._ -.R.R.R."
};
