/* XPM */
static char *_642528752604[] = {
/* columns rows colors chars-per-pixel */
"50 50 238 2 ",
"   c #2D0E15",
".  c #49463F",
"X  c #7F4B35",
"o  c #5B793B",
"O  c #48673D",
"+  c #707D2D",
"@  c #3F5153",
"#  c #4B5D45",
"$  c #44565A",
"%  c #51595C",
"&  c #534D51",
"*  c #7D5D50",
"=  c #476449",
"-  c #567146",
";  c #49665D",
":  c #566D4E",
">  c #617C47",
",  c #6E644B",
"<  c #535869",
"1  c #475965",
"2  c #516572",
"3  c #606E71",
"4  c #8A6933",
"5  c #679D3E",
"6  c #7C9D39",
"7  c #5DB03E",
"8  c #6AAC3C",
"9  c #7CA936",
"0  c #6BB43B",
"q  c #75BC3B",
"w  c #7EBB3E",
"e  c #76B63A",
"r  c #7BC336",
"t  c #79CF24",
"y  c #569B4A",
"u  c #52954E",
"i  c #648745",
"p  c #6D954B",
"a  c #789948",
"s  c #669958",
"d  c #77925A",
"f  c #6A8C55",
"g  c #59A557",
"h  c #58AE49",
"j  c #6CAC4C",
"k  c #66AA47",
"l  c #73AD45",
"z  c #72AB4D",
"x  c #77A646",
"c  c #6CB447",
"v  c #74B344",
"b  c #7BB444",
"n  c #7CBC44",
"m  c #74B34A",
"M  c #7AB54B",
"N  c #77B94D",
"B  c #7DBA4C",
"V  c #75BA42",
"C  c #6AA856",
"Z  c #73AC53",
"A  c #77AC58",
"S  c #6DB352",
"D  c #64B451",
"F  c #7CB554",
"G  c #7CBC52",
"H  c #77B754",
"J  c #558C6E",
"K  c #679A73",
"L  c #658B65",
"P  c #7BB963",
"I  c #6EA266",
"U  c #7BC146",
"Y  c #7EC44D",
"T  c #7FC94C",
"R  c #7AC554",
"E  c #869835",
"W  c #939534",
"Q  c #968C37",
"!  c #B59B35",
"~  c #A39E29",
"^  c #86A73D",
"/  c #9AA93A",
"(  c #84BD3D",
")  c #8BBD3E",
"_  c #88B936",
"`  c #90BF3F",
"'  c #96A828",
"]  c #A7A22C",
"[  c #AAA43B",
"{  c #A5A732",
"}  c #BDB133",
"|  c #ABAB19",
" . c #CDAC17",
".. c #D4BC1A",
"X. c #C4A72A",
"o. c #CDBC2D",
"O. c #CABA25",
"+. c #DABC29",
"@. c #C5AF36",
"#. c #84C33B",
"$. c #8AC43D",
"%. c #87C839",
"&. c #93C53D",
"*. c #9BD43F",
"=. c #87CE36",
"-. c #D0C51D",
";. c #EED51C",
":. c #FAD61B",
">. c #FFDC0E",
",. c #FDE11B",
"<. c #D7C627",
"1. c #DEC336",
"2. c #E9C727",
"3. c #EDD32A",
"4. c #E9D826",
"5. c #FDDA23",
"6. c #FBD22C",
"7. c #FDDE2E",
"8. c #F7D825",
"9. c #FCD933",
"0. c #F0CA27",
"q. c #FFE225",
"w. c #FFE734",
"e. c #8F9553",
"r. c #84AC47",
"t. c #96A744",
"y. c #84B444",
"u. c #85BD45",
"i. c #8ABD44",
"p. c #85B64B",
"a. c #84BC4C",
"s. c #8ABE4B",
"d. c #8EB74F",
"f. c #93BB42",
"g. c #94BE4B",
"h. c #84A55A",
"j. c #81B654",
"k. c #85BC53",
"l. c #8BBD52",
"z. c #88BD5B",
"x. c #91BD53",
"c. c #94BD5D",
"v. c #ABAB45",
"b. c #8B8178",
"n. c #BA9C68",
"m. c #8FA669",
"M. c #92B668",
"N. c #B8AF6B",
"B. c #C99B4E",
"V. c #D0BD50",
"C. c #C6AD76",
"Z. c #85C244",
"A. c #8BC345",
"S. c #8DCA46",
"D. c #85C24B",
"F. c #8BC24B",
"G. c #8CCA4C",
"H. c #85CA47",
"J. c #92C445",
"K. c #93CA44",
"L. c #92C44B",
"P. c #93CB4B",
"I. c #9ACB46",
"U. c #97D246",
"Y. c #85C252",
"T. c #8CC352",
"R. c #8CC953",
"E. c #87C658",
"W. c #93C452",
"Q. c #92C359",
"!. c #94CA51",
"~. c #A2C54D",
"^. c #E1C540",
"/. c #D5C54B",
"(. c #527FA0",
"). c #4D7994",
"_. c #51869E",
"`. c #5A9188",
"'. c #669787",
"]. c #63929C",
"[. c #568CB6",
"{. c #6796A7",
"}. c #679ABA",
"|. c #7F9CBC",
" X c #57A1BE",
".X c #7BA9B5",
"XX c #6FA2BF",
"oX c #5694C3",
"OX c #629AC8",
"+X c #699CD2",
"@X c #729EC3",
"#X c #68A7CC",
"$X c #75A6C8",
"%X c #6BADDC",
"&X c #68A7D7",
"*X c #73A9DA",
"=X c #68B1D7",
"-X c #76B1D5",
";X c #669BE1",
":X c #6BABE3",
">X c #67ACE8",
",X c #73ACE9",
"<X c #6AB3E6",
"1X c #75B1E9",
"2X c #75B2F2",
"3X c #939882",
"4X c #AA8F86",
"5X c #9AB58C",
"6X c #A3AD91",
"7X c #B6B9B3",
"8X c #ACC39A",
"9X c #BDC6A9",
"0X c #C4C8AC",
"qX c #D1CABA",
"wX c #D8D5A9",
"eX c #CDCE95",
"rX c #80A8CB",
"tX c #A9BEC3",
"yX c #B5B3C3",
"uX c #C8D3CA",
"iX c #DAD6C5",
"pX c #D7D5DA",
"aX c #C4D2D1",
"sX c #E8DDDB",
"dX c #D8E2CF",
"fX c #D7E3DF",
"gX c #E4E6DE",
"hX c #F3E6D5",
"jX c #E5D7EE",
"kX c #DFE4E4",
"lX c #DFF4E5",
"zX c #E8E9E7",
"xX c #F6FCEE",
"cX c #FAF8EA",
"vX c #FCFEF4",
"bX c #FDFDFD",
"nX c #F8F6F9",
"mX c #EDF0F6",
/* pixels */
"l.G.k.z N R.T.L.F.A.F.F.s.F.F.F.` H.S.z.H.L.~.H.L.E.$.u.L.G.D.F.A.F.F.F.F.F.F.F.a.H.F.A.F.A.F.F.F.F.",
"i.$.D.A m a.i.$.F.F.s.Z.i.F.F.F.s.l.) l.=.%.x Z u.x F.F.s.Z.T.i.F.F.F.s.i.F.F.F.A.F.i.F.F.F.F.F.F.F.",
"F.A.G.k.F.A.u.F.F.F.s.F.F.F.F.F.T.L.s.J.g.- + ~ +.../ d.$.Z.g.F.F.F.s.F.F.F.F.s.S.S.F.F.F.F.A.A.F.F.",
"l.A.A.F.S.A.F.E.F.F.F.G.F.F.F.F.D.i.s.K.j.b.! w.7.>.:.[ a S.g.J.a.F.F.F.F.F.F.A.i.F.F.F.F.F.A.F.F.F.",
"F.F.i.d.s.A.A.a.D.T.G.F.F.s.s.G.Z.T.i.Z.H Q 8.;.:./.N.eXzXh.Z.R i.F.F.F.s.F.F.F.s.F.H.Z.F.F.F.s.A.F.",
"F.T.A.s.x.G.Z.m b a.a.F.F.F.F.F.A.Y.F.G.n v.>.8.+.sXbXyXiXt.w T s.F.F.F.A.i.F.F.L.F.u.n a.G.T.a.s.F.",
"D.T.A.S.F.A.a.z v b s.F.G.F.F.D.A.H.l.( A.t.3.9.<.qXbXN...B.e.T.F.F.F.F.F.F.F.s.A.F.a.m m Y.G.i.F.F.",
"S.F.F.F.l.A.J.E.Y.Y.F.F.F.s.F.F.F.A.A.M D.c ' X.! 1.v.v.B.C.4Xa G.F.s.F.F.F.s.u.$.F.E.z k B F.S.F.F.",
"i.s.L.s.F.D.a.D.G.J.u.A.$.Y.z.&.a.G.k.*.%.D p , 1.0.n.C.C.b.e.f.Q.#.( G.D.r.6 ] v.D.T A.i.T.F.A.F.F.",
"A.F.F.a.F.G.F.a.a.T.W.Y.L.` G.a.W.i.G.r C s j.p ! ! & & . d H.l.$.q R v / o.3.+.E y.D.J.i.Y.T.A.F.F.",
"F.F.F.F.F.F.p.j.A.W.L.%.k.c.^ t.q K.i.c.F b A.i.W Q       m.t Y.R y / O.3.8.8.<.v.f.P.L.A.a.l.A.F.F.",
"F.F.s.F.s.D.b M Z.g.i.Z.G.6 ! o.l D.A.i.L.D.E.!.^ | 4 X * e._ x ' <.6.6.8.5.5.2.W ^ p.F.F.R.L.J.F.i.",
"F.F.u.F.F.F.M p.S.Y Q.W.6 } 3.7.@.6 E.E.D.A.S.f.m.wXiXsXiX6X3X] 6.7.7.q.4.O.] ] ^ d.G.s.a.H.i.i.F.F.",
"F.F.F.s.F.G.a.E.( Y.F.i.r.] 3.:.q.<.t.r.F.i.y.x yXnXlXfXaXxXwX5.4.,.6.X.W S G a.x.G.Z.D.G.S.J.P.F.F.",
"A.F.F.A.F.F.D.G.u.I.Z.Y.P.v W 6.;.,.9.o.{ 5XmXaX7XdXkXqXsXbX0X2.w.X.{ m R L.W.D.F.A.$.F.R.A.) H.F.i.",
"A.a.T.F.F.u.( A.F.q r V B Y w ~ 7.:.3.5.1.hXnXzXzXvXbXjXzXvXnXV.[ 9 Z.F.x.L.) L.A.U.I.i.a.F.F.Y.F.F.",
"F.A.F.L.F.D.v U H h h ( G.7 Y r.{ 0.5.:.V.nXcXuXnXvXvXgXiXkXzX9Xd F.#.$.k.l.W.H.A.Y.Y v j.s.s.S.F.F.",
"s.A.F.T.i.a.V U Z y c F.S.0 r J.e E ] o.} gXmXaXbXnXnXbXnXkX0Xd S.z.K.l.j.i.L.D.L.a.C m a.x.L.d.F.F.",
"F.A.F.T.F.F.a.G.T.m G.i.s.D.D.x.E.Q.l x 9 h.pXnXzXbXbXbXbXbXxX9Xd.#.$.l.F.P.i.F.s.G.j M A.J.A.s.F.F.",
"F.A.D.a.A.F.s.A.G.L.W.F.F.F.F.i.l.#.c H.i.8XnXbXzXvXvXvXvXnXbXbXM.q j Z M F.A.F.i.F.G.A.G.i.i.G.F.F.",
"L.D.p.B A.A.s.A.a.g.s.F.H.A.A.J.J.S.M a.m.bXbXxXnXbXvXbXbXbXbXvXpX].&X#X{.d !.a.J.s.G.a.T.T.l.l.i.F.",
"L.F.B M G.F.L.F.G.A.L.u.w D.k.F.l.n A.u.8XbXbXbXbXbXbXbXbXbXcXvXcX$X:X%X2X+XC K.S.I.p.F.A.L.F.j.s.i.",
"i.G.m l D.A.s.F.Z.Z.G.Z.#.Y j.( G.R.S.^ dXnXbXxXxXnXbXbXvXvXbXbXvX$X:X=X=X1X'.L.&.S.a.F.$.A.A.a.a.F.",
"A.G.N l F.A.T.F.L.T.D.L.#.8 z.i.g.D.J.y.6XbXbXbXbXbXvXvXbXbXbXxXtX+X-X#X<X<X}.i.H.u.F.s.E.i.F.S.F.F.",
"A.F.F.L.F.F.F.s.F.z.s.i.u.a.D.G.Y.A.G.%.L @XuXzXxXbXbXnXzXpXtX@X(.&X>X,X%X>X}.p.I.F.k.T.W.F.F.s.F.F.",
"F.F.G.F.A.F.F.L.A.i.A.A.F.G.S.A.L.) g.L.K +X X#XXXrX.X.X$X}.*X_.L f _.-X<X1X{.y.s.A.A.H.) i.F.S.A.F.",
"F.G.s.Z.Z.u.n Z.S.A.Z.p.T.s.F.a.a.Q.x.K.K &X1X<X,X>X&X>X&X2X[.x U.I OXOX X&X`.D.F.D.a.Z.A.G.l.F F.F.",
"s.F.i.F.T.D.n Y k.F.F.Q.T.G.s.F.#.G.$.l {.1X:X&X*X%X<XOX{.K b I.D.$ (.OX}.oXf G.H.G.Z.U G.F.a.a.F.F.",
"A.F.s.F.R.B v m z.G.s.s.#.K.f.W.L.d.z }.%X=X%X%X#X,X#Xs _ J.T.F.5 % ; 1 2 2 o P.k.B v v k.F.A.S.s.F.",
"A.G.F.F.F.B l m p.$.A.R.J.s.i i K `.*X1X=X=X=X%X=X,X'.p.J.G.U #.8 # $ % % < % a L.F z Z k.F.F.Z.F.F.",
"s.F.F.F.F.L.T.Y.F.$.G.F.J.p $ $ OX#X%X#X>X%X&X:X&XJ u.T.Z.F.G.F.c 0 y o # - > ^ G.A.A.G.F.l.F.A.A.F.",
"F.F.F.A.A.A.F.A.T.i.W.i.J.i $ 2 #XoX<X:X$X,X,XOXL s.H.8 N J.g.T.S Z R J.I.G.G.A.s.d.E.F.i.A.F.s.F.F.",
"F.F.F.F.F.G.F.L.G.u.E.G.A.: # < OX+X>X1X&X}.K 8 Z.H.E.k 8 T.S.J.s.T.F.A.F.u.D.D.Z.F.L.i.L.A.F.G.F.F.",
"D.Z.u.F.F.F.s.i.F.A.l.A.) = 3 $ ).[._.`.u 8 H.g V V B v H j.l.i.D.F.F.A.F.F.F.F.F.F.P.F.F.s.F.i.F.s.",
"T.F.a.F.L.F.s.F.W.i.F.i.U.: < < = j.e Z.$.q v k k S j G k.a.L.A.F.F.A.F.F.l.G.A.F.s.F.F.F.a.F.F.F.F.",
"F.F.F.G.F.s.A.F.s.L.A.F.J.i % # ^ P.J.A.Z.M j Z k j j G s.( S.F.G.A.F.s.F.F.u.Z.F.A.s.F.s.F.L.a.A.F.",
"s.F.G.Z.A.A.F.F.F.H.F.k.P.p.O x K.l.!.A.l.E.S.#.Y.D.G.L.x.s.T.F.F.s.F.F.F.D.u.Z.A.F.D.G.F.L.F.A.F.F.",
"F.A.A.Z.H.F.F.F.u.A.T.k.Z.L.c.&.Z.Z.Q.j.G.Z.T.W.F.S.J.A.F.F.u.F.F.i.F.u.D.D.V U u.D.n H.F.i.A.Z.F.s.",
"L.F.F.F.H.s.a.l.L.A.T.n Z.$.l.U.G.Z.$.A.G.( F.s.F.s.l.s.J.S.A.F.F.a.Z.n B H h S e Y 0 N s.F.F.F.F.F.",
"F.i.F.D.u.8 b E.i.A.T.A.T.Z.F.U.b s.L.s.T.F.F.L.F.F.H.F.F.l.F.F.F.G.Z.e N S u y k.Y.8 v k.s.F.F.F.A.",
"F.F.F.s.i.u.a.F.Q.i.$.$.A.L.l.A k N Z.A.A.Z.F.F.s.F.F.i.F.F.A.A.l.Z.G.d.i.T.a.p.A.G.F.s.a.s.J.L.F.F.",
"F.F.F.F.F.F.F.F.l.T.T.Y.s.F.s.a.G a.F.A.F.F.F.F.A.S.F.A.A.L.S.J.i.H.G.s.J.D.l.!.A.F.F.F.F.G.A.J.F.F.",
"F.F.F.F.F.F.F.s.%.Z.N M a.F.F.G.F.s.L.F.D.T.Z.F.F.A.A.F.A.G.A.J.L.G.F.F.L.Z.a.A.F.F.s.F.F.F.F.A.F.s.",
"F.s.s.F.F.F.F.i.t n j v u.F.i.A.F.i.F.F.D.a.u.F.l.s.s.F.F.s.F.u.a.F.s.F.T.F.A.$.F.s.a.u.a.F.F.A.F.F.",
"F.F.F.F.F.F.F.F.m C C H F.F.F.A.L.G.A.D.n V D.F.G.s.s.F.F.Z.G.a.A.A.F.F.a.F.A.F.F.s.D.a.F.F.F.F.A.F.",
"F.F.F.F.s.F.F.G.H C Z k.F.F.F.F.F.F.A.F.a.V F.F.A.S.A.A.Z.u.T.H.=.Z.a.H.q H.y.Q.F.F.F.F.F.F.F.F.F.F.",
"F.F.F.F.i.F.F.F.P.G.F.F.A.A.F.T.a.a.F.F.G.D.G.F.A.A.Z.A.Z.V D.N c j b n k G s.W.A.F.F.F.D.u.D.F.s.F.",
"s.i.F.F.F.F.F.A.d.A.A.a.T.J.A.F.k.p.g.s.F.F.s.F.F.F.T.R.B j H k J I j.R y C l.) A.A.F.Z.u.u.a.a.F.F.",
"D.J.H H P.D.F.G.s.F.F.F.F.F.F.F.F.F.A.F.F.F.F.s.F.F.s.A.s.s.s.u.n D.F.s.a.i.F.F.F.s.F.F.i.g P a.s.F.",
"F.A.c z A.D.F.A.F.F.F.F.s.F.A.F.F.F.F.s.F.F.F.F.F.A.F.F.F.F.F.F.F.F.F.F.F.F.F.F.G.F.F.F.a.g A i.F.F."
};
