/* XPM */
static char *_642528076451[] = {
/* columns rows colors chars-per-pixel */
"50 50 240 2 ",
"   c #07010F",
".  c #281B0B",
"X  c #283033",
"o  c #501916",
"O  c #6F7138",
"+  c #3A3E4A",
"@  c #3F4C54",
"#  c #3E5A66",
"$  c #465548",
"%  c #495756",
"&  c #545A59",
"*  c #4E4C57",
"=  c #4A6849",
"-  c #586F44",
";  c #567945",
":  c #546454",
">  c #4B615E",
",  c #6E6850",
"<  c #455766",
"1  c #5C626B",
"2  c #486062",
"3  c #657C62",
"4  c #6B5B4B",
"5  c #95772F",
"6  c #995F47",
"7  c #817962",
"8  c #8E6E47",
"9  c #6D973E",
"0  c #79983A",
"q  c #5AA93B",
"w  c #67AD3C",
"e  c #79A838",
"r  c #67B83B",
"t  c #78B63D",
"y  c #7ABD2F",
"u  c #679224",
"i  c #7BC82F",
"p  c #7AC53A",
"a  c #579D4B",
"s  c #56834A",
"d  c #679949",
"f  c #789745",
"g  c #689756",
"h  c #698A4C",
"j  c #58A746",
"k  c #5EB647",
"l  c #5AA559",
"z  c #4CA450",
"x  c #69AB49",
"c  c #73AE44",
"v  c #73AD4D",
"b  c #7DAC4B",
"n  c #7BA946",
"m  c #69B549",
"M  c #74B244",
"N  c #7BB544",
"B  c #76BB46",
"V  c #7CBC43",
"C  c #74B34A",
"Z  c #7BB54B",
"A  c #7CBA4B",
"S  c #76BF4C",
"D  c #69A855",
"F  c #76AD58",
"G  c #7CB354",
"H  c #7CBA55",
"J  c #75B455",
"K  c #4E8D71",
"L  c #6A9968",
"P  c #6A8D74",
"I  c #619272",
"U  c #72A770",
"Y  c #7CC344",
"T  c #7CC04A",
"R  c #77C648",
"E  c #77C150",
"W  c #869739",
"Q  c #919C2F",
"!  c #AB9A32",
"~  c #87A93A",
"^  c #87B93B",
"/  c #91B033",
"(  c #AAA636",
")  c #B8A835",
"_  c #B9B536",
"`  c #B1AC25",
"'  c #E0BD1B",
"]  c #CA9D2A",
"[  c #CEAB2D",
"{  c #C6B725",
"}  c #C3AA3A",
"|  c #CABA33",
" . c #D5BA3C",
".. c #DDBB26",
"X. c #E3B831",
"o. c #84C33C",
"O. c #8CC43D",
"+. c #8CCA3D",
"@. c #87C637",
"#. c #91C43D",
"$. c #95CC3B",
"%. c #FADA1D",
"&. c #EFCB1C",
"*. c #D3C433",
"=. c #E9CB27",
"-. c #F7CB27",
";. c #ECD22C",
":. c #FEDB2A",
">. c #F9D727",
",. c #F4CA36",
"<. c #EBD437",
"1. c #FEDB32",
"2. c #F7D434",
"3. c #E6C437",
"4. c #FFE128",
"5. c #808A56",
"6. c #B38753",
"7. c #AD9D54",
"8. c #86AD4C",
"9. c #8CAA4C",
"0. c #94A747",
"q. c #84B442",
"w. c #84BD45",
"e. c #8ABE45",
"r. c #84BC4B",
"t. c #8ABE4B",
"y. c #88B549",
"u. c #91BD4B",
"i. c #93BA46",
"p. c #81A455",
"a. c #84B551",
"s. c #85BD52",
"d. c #8BBE53",
"f. c #87B858",
"g. c #92BD52",
"h. c #A3A944",
"j. c #ABA458",
"k. c #B2A94A",
"l. c #908A6B",
"z. c #AF9A6B",
"x. c #90AE64",
"c. c #B7A363",
"v. c #BEB077",
"b. c #E1BA45",
"n. c #CABA72",
"m. c #CAAC6D",
"M. c #CEB747",
"N. c #85C245",
"B. c #8BC345",
"V. c #85C943",
"C. c #8BC945",
"Z. c #86C24B",
"A. c #8BC24B",
"S. c #84C94A",
"D. c #8DC94C",
"F. c #92C346",
"G. c #93CA44",
"H. c #91C34B",
"J. c #92CA4B",
"K. c #9AC74E",
"L. c #85C352",
"P. c #8BC352",
"I. c #8BC853",
"U. c #8BC358",
"Y. c #85C55B",
"T. c #92C553",
"R. c #94CA52",
"E. c #93C25C",
"W. c #8ED053",
"Q. c #96D84A",
"!. c #9BCA60",
"~. c #567C95",
"^. c #506BAE",
"/. c #5C839B",
"(. c #549196",
"). c #699787",
"_. c #638E9E",
"`. c #5889B3",
"'. c #5A99BC",
"]. c #5390A3",
"[. c #6294A9",
"{. c #6398BC",
"}. c #7B9CAE",
"|. c #5B98C7",
" X c #569AD1",
".X c #5C8DC5",
"XX c #689BC5",
"oX c #659CD7",
"OX c #628DC4",
"+X c #5DA7DA",
"@X c #69A8CA",
"#X c #6AACD5",
"$X c #67A8D9",
"%X c #72ADD8",
"&X c #6DB2DB",
"*X c #68B2D7",
"=X c #72B4D9",
"-X c #5FAEE7",
";X c #6AADE3",
":X c #69A8E6",
">X c #72ACE6",
",X c #6AB4E7",
"<X c #73B5E9",
"1X c #6AABF2",
"2X c #9E9181",
"3X c #99AF81",
"4X c #BAB18C",
"5X c #809EB8",
"6X c #92AFBC",
"7X c #B5B8B2",
"8X c #B09BAE",
"9X c #C2BCA2",
"0X c #D2B094",
"qX c #B7C4B6",
"wX c #ADC587",
"eX c #CFC495",
"rX c #CECAAD",
"tX c #9DB7C6",
"yX c #B7C6C5",
"uX c #B4C1D1",
"iX c #CBC9C1",
"pX c #D8D2CA",
"aX c #C6D5D5",
"sX c #D2D3D5",
"dX c #DAE3D9",
"fX c #E5EADE",
"gX c #F1E3D8",
"hX c #D9DEE2",
"jX c #DBE0E6",
"kX c #F3EAEB",
"lX c #EBF2E9",
"zX c #FCFCEB",
"xX c #FEF7EF",
"cX c #EDFBF2",
"vX c #FEFDF4",
"bX c #FEF6FE",
"nX c #F5FFFC",
"mX c #FDFDFD",
"MX c #F4F9F6",
"NX c #EAE7F2",
/* pixels */
"d.D.L.v C I.P.A.t.e.A.A.Z.t.A.H.e.H.t.A.H.t.A.A.B.H.A.B.B.B.A.Z.H.Z.A.A.A.A.A.A.e.Z.B.H.B.A.Z.A.A.A.",
"e.O.r.F Z r.w.F.D.A.A.e.e.A.A.A.B.A.A.A.A.A.A.A.A.e.Z.Z.B.B.Z.Z.A.e.e.A.A.A.e.A.D.A.e.A.A.A.B.A.A.A.",
"A.B.D.d.Z.B.w.D.A.A.Z.A.A.A.A.B.A.Z.B.Z.Z.A.D.Z.A.Z.s.P.D.e.B.Z.Z.A.A.Z.A.A.A.A.G.B.B.A.A.A.B.B.A.A.",
"t.N.A.A.G.B.Z.P.A.A.A.A.A.D.t.A.A.Z.e.A.A.A.A.e.T N Z t.P.D.A.H.e.A.H.e.e.A.A.A.B.A.D.A.A.Z.A.H.A.t.",
"D.Z.e.t.t.A.B.r.A.P.A.t.A.e.t.D.A.e.e.e.A.A.A.Z.Z.M t Z t.A.A.e.e.A.A.A.e.A.A.A.e.A.N.N.N.A.A.t.A.A.",
"A.P.e.H.T.A.N.C N r.Z.D.A.A.A.A.t.A.B.e.A.P.A.A.P.t.r.s.t.Z.A.e.t.A.A.A.A.t.A.A.P.t.Z.V Z.D.D.r.A.A.",
"t.d.B.B.t.B.w.v M N r.H.H.A.Z.Z.A.T.Z.w.A.Z.V Z.N.Z.H.A.A.Z.P.U.A.A.A.A.A.A.Z.A.B.t.r.c A r.P.B.B.A.",
"G.A.e.D.d.B.D.U.L.L.A.A.A.A.Z.A.e.D.N.w.Z.V t A B.H.A.B.B.Z.r.t A.B.t.A.A.B.B.Z.O.D.Y.v x H A.C.t.A.",
"e.t.T.e.I.Z.w.Z.A.A.A.A.A.H.B.B.H.P.s.$.i x F d.B.F./ W.J ~ p.5.f O.A A.D.T.u.D.A.A.A.A.A.e.e.H.A.A.",
"B.Z.D.r.A.A.A.t.Z.A.H.Z.Z.H.D.Z.^ t.I.t.j g H F.t.N.W./ _ ;.1.b., F L.E B.w.F.V.A.A.P.A.A.A.A.A.A.A.",
"A.A.e.e.A.P.A r.D.Z.Z.D.A.Z.Z.Z.V.A.A.t.J s.I.^ Z.E.0 } 4.%.>.-. .3 p p r.N.E.w.A.A.A.A.t.D.A.Z.B.A.",
"A.A.A.A.e.t.N Z H.B.A.A.H.e.A.H.r r.A.D.$.F.U.V.Y.n aXgX| M.3.4.&.W c V.x o.B.H.A.e.A.A.t.A.D.e.A.A.",
"A.t.e.A.Z.P.q.G A.B.e.A.H.e.t.t.k N B.L.t.u.f.C.a.O rXpXqXMXeX&.1.0.a M x A.B.D.D.B.A.A.A.A.B.D.t.A.",
"A.A.B.t.A.D.r.U.w.A.D.Z.A.A.A.w.s.y.C.R g.H.H.y.z.7.] ! 7XnXrX..{ p.A.L.U.s.d.B.e.B.A.A.H.A.B.H.A.A.",
"Z.t.A.A.A.B.Z.I.B.S.A.A.Z.D.D.A.H.u.H.B./ ^ +.8.l.n.m.7.z.n.k.5 0 J.O.s.B.D.H.A.B.J.D.e.A.A.Z.H.A.A.",
"B.Z.T.Z.H.w.^ N.S.V t Y V t w.A.N.e.8.~ ! 9.L.N.p.2Xm.0Xm.[ =.O n t.I.e.D.O.e.A.B.R.J.^ A.A.t.D.A.A.",
"H.B.A.A.Z.Z.M Y J z m ^ o.r R F.H.f._ ( [ W h.0.i., X * 7 8 M.5.+.T.N.t.t.d.N.A.B.P.Y C a.A.t.B.e.A.",
"t.B.A.I.B.r.N T x a m B.P.m Y y.+.t _ :.{ -.| ~ 8.4 . o   5 ~ T.W.~ q.D.E u.u.A.H.s.D x d.u.H.r.A.A.",
"A.B.A.P.A.A.t.S.P.L.Z.H.A.r.Z.K.T.R.e ,. .X.u G 5.6.8 6 5 Q E / n ( ! Z i.@.d.G.H.A.c Z D.e.B.t.A.A.",
"t.B.t.t.e.B.Z.B.B.B.B.B.Z.B.B.A.V.~ Q ,.-.c.yX8Xj.c.rXaXn.~ N.h.( ! b.W ) M B.Z.B.A.C.Z.A.B.e.D.A.A.",
"H.A.A r.B.u.A.B.r.u.H.P.P.I.D.A.t._ :.:.;.k.iXaXjXcXiXbXbXiX0 / :.{ [ >.h.e.P.S.A.A.D.t.P.A.d.t.t.e.",
"H.A.A Z D.A.A.B.D.H.e.w.o.N.t.B.B | >.;.:.' v.nXmXzXfXpXyXpXhX4X' *.<._ e T.u.Z.G.J.s.t.B.t.D.G e.Z.",
"B.A.C c Z.B.A.Z.B.B.P.N.o.V L.B.r.{ :.:.=.n.MXbXcXmXmXdXsXvXnXz. .=.=.W E.C.i.e.$.G.r.A.B.o.F.r.t.A.",
"B.D.Z c D.A.t.H.B.r.T.B.o.c G e.A.n h.( 9XvXbXlXsXkXmXsXlXmXm.*.=.>.1._ A S.e.P.N.V e.P.P.A.A.H.A.A.",
"Z.Z.D.H.A.t.A.A.B.U.Z.B.d.e.N.P.D.C.8.qXnXzXmXbXcXkXmXfXpXNX .:.>.2.%.,.b F B.I.H.Z.L.A.A.B.A.t.A.A.",
"Z.A.A.A.A.B.A.D.e.s.N.Z.A.O.B.A.L.^ wXmXbXmXcXnXmXvXbXvXdX7X} %.2.2.>.;.~ Z.O.e.e.B.B.N.e.B.B.B.A.A.",
"H.D.t.B.B.w.w.w.u.A.w.P.Z.B.T.B.+.y.fXnXbXmXvXmXnXxXmXvXnXhX4X( =.-.2.` y.E.Z.e.B.A.r.s.H.H.r.a.A.A.",
"B.A.e.A.I.Z.B T e.D.L.N.A.g.H.e.r.L }.tXyXhXmXmXzXbXnXnXmXmXNXb 0.Q 0.~ d.t.D.H.B.C.N.w.I.P.r.r.B.A.",
"B.H.A.Z.P.r.M C q.A.d.N.B.Z.N.U |.:X:X$X XXX5XaXmXbXnXmXvXzXNXn S.S.R T D.O.Y i.s.r.c t r.A.B.A.A.A.",
"B.A.A.A.Z.A C C r.D.U.B.B.o.C XX=X<X*X$X,X:X$X{.6XfXvXbXzXmXNXb t I.k c g.H.Z.H.P.H D v r.D.A.t.t.A.",
"Z.A.A.H.H.P.L.A.P.P.B.e.G.t I >X#X:X%X$X$X*X@X<X+X}.6XuXaXyX3XL.k q m ^ Z.^ I.Z.B.B.B.B.A.d.A.B.A.A.",
"Z.A.Z.B.e.B.F.Z.o.P.#.t.I.J (.&X:X&X$X&X1X1X&X$X,X1X@X+X X~.~ D.m F f.u.L.H.N.B.A.t.P.L.A.B.D.Z.B.A.",
"B.A.B.Z.A.A.H.H.A.B.e.T.Z.O.).&X@X$X,X|.].{.@X+X#X#X@XXX].Z J.e.f d H.A.A.P.e.D.Z.A.H.B.H.e.B.A.A.A.",
"A.Z.w.A.A.A.Z.e.Z.B.e.A.A.O.U :X:X1X>X'.u t I .X`.`.|.OX3 d P & $ $ q.B.B.A.Z.O.B.A.T.H.D.e.e.A.A.A.",
"P.t.e.A.H.A.t.A.A.A.B.O.s.F.F oX*X,X#X`.x S.l @X;X1X&X>X#X.X^.> % * n G.t.t.t.P.e.Z.H.A.t.e.A.A.A.t.",
"A.D.T.A.A.A.B.A.A.D.A.O.d.t.Z [. X.XXX`.s S j '.&X$X$X=X>X{.~.> % + s J.t.A.o.I.A.A.t.A.t.t.D.Z.A.A.",
"e.A.D.B.N.B.A.A.B.A.s.B.B.H.B.I oX{./.2 % 0 G.I $X>X=X@X*X|.~.% $ * ; D.t.L.i V A.A.Z.D.A.H.B.e.B.A.",
"A.A.B.N.B.D.P.e.B.t.Y.w.#.P.A.h < > % & % 0 K.O.I $X1X;X,X+X~.% $ * ; @.r.Y.R Z.^ Z.Y Z.A.t.Z.B.A.A.",
"H.Z.A.A.S.r.r.P.B.A.A.Z.e.P.S.- & 1 1 $ f J.A +.g.L ).[.[.).g - & * ; p y.C j w N T r B A.t.A.D.t.A.",
"A.e.Z.A.V t N s.A.t.B.A.F.A.D.: & > $ h F.s.U.e.Z.@.^ r.^ ^ J.S.- + ; E H w K j r.Y.w c t.u.Z.A.A.A.",
"A.A.A.e.r.e.e.A.G.B.A.A.A.@.g.= < $ 9 J.G.N.B.N.A.Z.H.P.H.Z.e.Z.S.0 c S.B.i.H r.B.A.A.e.t.A.A.H.A.A.",
"A.P.A.A.A.A.A.A.s.w.Z.L.A.w.R.Z 9 Z H.B.w.t.T.T.B.A.A.B.A.D.B.J.N.K.R.Z.B.H.Z.P.A.A.A.A.A.A.A.G.A.B.",
"A.A.A.A.A.A.A.t.Z.N.N.Z t.r.T.F.#.G.D.w.P.R.w.A.A.A.Z.e.A.B.G.B.P.^ q.Z.I.u.#.A.A.Z.A.A.A.H.B.e.A.A.",
"A.e.e.t.A.A.Z.e.p B J c r.A.A.B.u.t.w.Z.A.V V S.t.A.d.T.A.D.A.w.P.H.T.U.A.A.B.Z.D.e.r.w.r.A.A.A.t.A.",
"A.A.A.A.A.A.A.D.B d D Z A.A.B.C.t.T.B.B.V c r.L.t.D.A.P.Z.Z.D.w.y Z.H.r.Y D.y.H.A.t.e.e.B.A.A.A.A.A.",
"A.A.A.A.t.A.A.H.A D F w.Z.d.Z.A.D.A.N.D.r.r.T.w.B.B.B.B.w.w.D.Z.Q.V.^ N.R D.a.Z.A.A.A.Z.A.A.A.A.A.A.",
"e.A.A.t.t.Z.A.A.Z.I.T.D.e.P.T.A.w.w.Z.I.r.e.G.G.B.B.^ D.w.M L.B m x ^ A q J E.e.e.D.D.A.Z.N.t.A.A.A.",
"Z.A.A.A.A.A.A.e.D.B.e.P.F.N.B.B.A.a.g.r.B.J.r.I.A.A.P.P.r.c J x K D s.H a F t.B.e.A.A.w.w.V r.s.A.A.",
"A.F.H J J.A.A.Z.A.A.A.A.A.A.A.B.A.A.A.A.A.A.A.A.A.B.e.A.e.t.t.r.r.r.t.A.e.e.t.A.A.A.A.A.e.l F t.P.A.",
"Z.F.m v B.Z.H.A.A.A.B.A.A.A.A.t.A.A.t.A.B.A.A.t.A.A.A.A.A.A.A.A.A.t.A.A.A.A.A.A.A.P.A.D.w.l F w.t.A."
};
