/* XPM */
static char *_4de53c3d89b437bb3af6a8aae4e3a40i45nUcqf3RTnptfC[] = {
/* columns rows colors chars-per-pixel */
"50 50 247 2 ",
"   c #010012",
".  c #0B0B2A",
"X  c #060628",
"o  c #150B27",
"O  c #18152B",
"+  c #181A32",
"@  c #09102D",
"#  c #271727",
"$  c #2E1529",
"%  c #1A2632",
"&  c #27273A",
"*  c #283638",
"=  c #323638",
"-  c #302D32",
";  c #542B2A",
":  c #4D3736",
">  c #533C35",
",  c #4D2829",
"<  c #6C3727",
"1  c #5D2820",
"2  c #384936",
"3  c #36593A",
"4  c #344E31",
"5  c #3B633C",
"6  c #4F5534",
"7  c #6E5234",
"8  c #46683F",
"9  c #57783A",
"0  c #4E6D34",
"q  c #716A3A",
"w  c #262B46",
"e  c #383846",
"r  c #2D364D",
"t  c #4B3945",
"y  c #573B45",
"u  c #6E3C45",
"i  c #3A5546",
"p  c #534C51",
"a  c #744C46",
"s  c #6F504E",
"d  c #4A6D46",
"f  c #4E7542",
"g  c #587843",
"h  c #597351",
"j  c #70744B",
"k  c #4B5969",
"l  c #53566B",
"z  c #675766",
"x  c #596A75",
"c  c #677574",
"v  c #91471B",
"b  c #AF5616",
"n  c #9B5629",
"m  c #9C5F39",
"M  c #8A4E2E",
"N  c #A95A27",
"B  c #B75F2A",
"V  c #BA6B2C",
"C  c #A86538",
"Z  c #B66938",
"A  c #B76A30",
"S  c #CC6718",
"D  c #D76D19",
"F  c #E77B19",
"G  c #F17B0C",
"H  c #C66825",
"J  c #CB732B",
"K  c #D7762A",
"L  c #C7763B",
"P  c #CE722F",
"I  c #EA7C26",
"U  c #B53848",
"Y  c #8B5C4B",
"T  c #97654A",
"R  c #896A58",
"E  c #8E7652",
"W  c #A86C44",
"Q  c #B87747",
"!  c #B57757",
"~  c #B06E4A",
"^  c #947B74",
"/  c #8D726E",
"(  c #A67A67",
")  c #A07F70",
"_  c #B2484A",
"`  c #C87845",
"'  c #59873F",
"]  c #668C3C",
"[  c #6B9739",
"{  c #719D39",
"}  c #5BB63B",
"|  c #5CAA3A",
" . c #76A93B",
".. c #68B93D",
"X. c #74BD3C",
"o. c #67A039",
"O. c #75C03F",
"+. c #5A8943",
"@. c #54974F",
"#. c #669545",
"$. c #739647",
"%. c #6A894E",
"&. c #57A252",
"*. c #59AD49",
"=. c #69AA48",
"-. c #75A945",
";. c #6DB24C",
":. c #6AB644",
">. c #75BB44",
",. c #7CBE45",
"<. c #7BB34B",
"1. c #7CBB4A",
"2. c #74B54A",
"3. c #6AA757",
"4. c #75AB56",
"5. c #7DB352",
"6. c #7DBC53",
"7. c #6BB452",
"8. c #558567",
"9. c #7AC243",
"0. c #85BB3B",
"q. c #FE8B0C",
"w. c #FE8905",
"e. c #FE8C13",
"r. c #FA8618",
"t. c #FF941A",
"y. c #FF991C",
"u. c #FE9515",
"i. c #DB8231",
"p. c #F68A27",
"a. c #FF9B24",
"s. c #FE9B2C",
"d. c #FB942A",
"f. c #F9983B",
"g. c #E98830",
"h. c #FFA529",
"j. c #FEA737",
"k. c #FFA41B",
"l. c #8BCB39",
"z. c #9AD23E",
"x. c #AFE93D",
"c. c #889755",
"v. c #959057",
"b. c #83BC44",
"n. c #84BD4B",
"m. c #89BF4A",
"M. c #86BC45",
"N. c #84B552",
"B. c #84B951",
"V. c #89B753",
"C. c #86A140",
"Z. c #8F8870",
"A. c #B68A64",
"S. c #AC8879",
"D. c #B58F72",
"F. c #BF824C",
"G. c #CC824A",
"H. c #D6874A",
"J. c #C58659",
"K. c #D98F57",
"L. c #E69245",
"P. c #FA9A47",
"I. c #EA9951",
"U. c #FFA945",
"Y. c #FEB256",
"T. c #F1A457",
"R. c #CC926D",
"E. c #D6AD7B",
"W. c #F1B371",
"Q. c #83C245",
"!. c #8CC446",
"~. c #86C149",
"^. c #8BC24A",
"/. c #8CCA4B",
"(. c #8CC946",
"). c #90C54C",
"_. c #92CC4C",
"`. c #91C845",
"'. c #96D04D",
"]. c #98D34B",
"[. c #8DC552",
"{. c #97D350",
"}. c #92CA51",
"|. c #A4E24F",
" X c #F3C87B",
".X c #57698B",
"XX c #6E7C97",
"oX c #777887",
"OX c #6A7AA3",
"+X c #5F7DA1",
"@X c #8A7681",
"#X c #75879B",
"$X c #748189",
"%X c #728AAF",
"&X c #799CC4",
"*X c #9B9396",
"=X c #898B9A",
"-X c #AB9288",
";X c #B79887",
":X c #B49B97",
">X c #A7928D",
",X c #B5A09B",
"<X c #8898B6",
"1X c #9899A6",
"2X c #A79AAA",
"3X c #B29FA1",
"4X c #95A1B8",
"5X c #86A0B9",
"6X c #ABA6A9",
"7X c #B8A9AC",
"8X c #A7A5B6",
"9X c #B7B5B4",
"0X c #C99F87",
"qX c #CCA990",
"wX c #EBB68C",
"eX c #C7B6AF",
"rX c #DEC290",
"tX c #E8C786",
"yX c #FEE697",
"uX c #F9EE9C",
"iX c #FFF6AC",
"pX c #FBF2B1",
"aX c #DDD2AB",
"sX c #98B5D7",
"dX c #95AFD0",
"fX c #A9B9D3",
"gX c #AAB3C3",
"hX c #829AC0",
"jX c #B7C5D7",
"kX c #ABC2D9",
"lX c #AAC8E9",
"zX c #B7D3E7",
"xX c #B8D7F5",
"cX c #B2D2F3",
"vX c #BCE4FE",
"bX c #99C2E0",
"nX c #CFCBD4",
"mX c #CBDAEF",
"MX c #CCECFF",
"NX c #C8E5FC",
"BX c #D5EAFC",
"VX c #D4F4FE",
"CX c #DDF3FE",
"ZX c #DCFCFF",
"AX c #D5F8FF",
"SX c #D2E8F3",
"DX c #E2FAFF",
/* pixels */
"^.^.V.7.,.).^.!.^.^.^.^.^.^.^.^.^.^.^.^.m.^.^.^.^.^.^.^.!.^.^.^.^.^.^.^.^.^.^.^.^.^.^.^.^.^.^.^.^.^.",
"^.!.B.4.;.^.^.^.^.^.^.^.^.^.^.^.^.^.^.^.^.^.^.^.^.^.^.^.^.^.^.!.^.^.^.^.^.^.^.^.^.^.^.^.^.^.^.^.^.^.",
"^.^.!.^.m.^.^.^.^.^.^.^.^.^.^.^.^.^.^.~.^.^.^.^.^.,.).^.^.^.^.^.^.^.^.^.^.^.^.^._.^.^.^.^.^.^.^.^.^.",
"^.^.^.^.^.^.^.^.^.^.^.^.^.^.^.^.^.^.n.^.^.^.^.^.^.:.#.!.^.^.^.^.m.^.^.^.n.^.^.^.!.^.^.^.^.^.^.^.^.^.",
"^.^.^.m.^.^.^.9.~.^.^.^.^.^.^.^.^.n.n.^.^.^.^.m._.f w =.}.^.^.m.m.^.!.n.~.^.^.^.^.^.m.^.^.^.^.^.^.^.",
"^.^.^.!.^.^.!.;.1.1.^.^.^.^.^.^.^.^.^.^.^.^.^.m.0.x XX0 {.m.n.n.^.^.^.^.[.!.^.^.m.).>.,.M.^.^.^.^.^.",
"^.^.^.^.^.^.).4.3.5.^.^.^.^.^.^.^.^.^.~.^.^.~.[. .c OX0 {.m.!.^.^.^.^.^.^.^.^.^.^.^.m.:.9.m.^.^.^.^.",
"^.^.^.^.^.^.^.!.^.^.^.^.^.~.^.^.^.^.^.>.1.b.} [.{ #X%X0 {.m.~.~.^.^.^.^.^.^.^.^.^.^.^.3.3.<.!.^.^.^.",
"^.^.^.^.^.^.~.~.^.^.^.^.^.^.^.^.^.^.~.z.l.7.6.^.4 fX%X0 {.]./.^.~.Q.9.^.!.^.^.^.!.^.^.^.n.^.^.^.^.^.",
"!.^.^.^.^.^.~.n.^.^.^.^.^.^.^.^.^.^.m.!.7.d * % r kX5Xw % 4 [ _._.9.9.~.^.^.!.^.^.^.^.^.^.^.^.^.^.^.",
"^.^.^.m.^.^.n.n.^.^.^.^.^.^.^.~.Q.m._.<.* r +XsXcXlXlXbX&X.Xr = [ *.n.9.Q.^.^.^.!.^.^.^.^.^.^.^.^.^.",
"^.^.n.^.^.^.5.4.^.^.^.^.^.^.^.^.../.=.r %XvXZXDXBXVXZXZXAXVXcX%Xw 5 9.6.:.9.^.^.^.~.^.^.^.^.^.^.^.^.",
"^.^.m.m.^.!.N.5.^.^.^.^.^.!.V.m.*.=.= sXVXMXjX/ / D.,X;X9XSXDXMXsXw 3 9.=.m.^.^.^.^.^.^.^.^.^.!.^.^.",
"^.^.^.^.^.!.^.^.Q.^.^.^.^.^.m.^.'.2 hXAXNXvX( n M C T g.p R nXCXMXsX% -.[.m.^.^.^.^.^.^.^.^.!.(.^.^.",
"^.^.^.^.^.!.^.^.n.l._.^.^.~.^._.{ x VXNXMX6XZ P.L.G.Q J.A b a mXBXMX%X4 '.~.^.^.^.!.^.[.^.^.^.^.^.^.",
"^.^.^.^.^.1.Q.^.^.>.>.>.Q.:.m._.f dXVXNXxX( W.tX X XW.K.T.h.b 2XDXNXcXr M.!.^.^.^.z.z.>.^.^.^.^.^.^.",
"^.^.^.^.^.Q.>.>.>.&.} Q.!.} 1._.h mXMXMXjX XaXpXiXyXyX XK.Y.u.-XBXNXBXk #.}.m.^.^.).1.;.N.^.^.^.!.^.",
"^.^.^.^.^.^.;.!.;.8.2.m.~...b.`.h mXSXNX7XiX_ R.pXyXyXyXE.L.a.*XCXNXVX.X+.}.^.^.^.!.&.4.V.^.^.^.^.^.",
"^.^.^.^.^.^.^.^.^.^.^.^.^.^.^./.h NX>X6XaXuXU R.iXyXyXyXtXL.i.zXCXNXBX.X[ _.^.^.^.!.2.5.!.^.^.^.^.^.",
"^.^.!.^.^.^.^.^.^.^.m.m.^.^.^.`.%.mXgX( eXiXR.tXyXyXyXuXtXN ;X7X:XVXMXk -.).^.^.^.^.!.!.^.^.^.^.^.^.",
"^.~.5.N.^.^.^.^.^.^._._.!.m.^._.] fXNXZ.! wXpXiXpXiXiXaXH.i.6XG.,XAXzXe m.^.^.^.^.^.^.^.^.~.^.[.^.^.",
"^.^.1.n.^.^.^.m.^.^.#.+.b.].^._.[ 4XVXZ.~ R.J.E.wXE.E.` p.A Z C fXCXdXd '.m.~.~.`._.n.^.^.^.^.5.B.^.",
"^.).:.=.^.^.^.!.^.2 $ , # 3 n.[. .=XAX*X~ K.t.K G.G.W s.i.L J -XNXVX%X9 _./.}.}.z.l.B.!.^.^.^.~.^.^.",
"^.!.<.;.^.^.^.).-.7 d.I.H.$ * [. .$XDXxXS.g.d.F Q ~ i.L.G.H.S.xXBXVX.X[ {.#.4 4 #.Q.n.^.^.^.^.!.^.^.",
"^.!.^.^.^.^.^._.-.R R.o R T.$ 6 ].c mX0X! f.a.e.F r.s.L Y W -XBXNXMXl 0.g X M Z ; ] _.m.^.^.^.^.^.^.",
"^.^.^.^.^.^.^.^._.#.z ] 9 J.V X M.8.8XH.d.s.s.U.Y.I.R.qXX # Q mXVXxXp ,.. V H.A.` 2 _.^.^.^.^.!.^.^.",
"^.^.^.^.^.b.~.m.m.). .m.1.7 d.o ] j lX1X;X0X0X( ^ @X. nX& . V gXZXsXf +., d.6 j ` 6 /.^.^.^.n.B.^.~.",
"^.^.^.^.^.9.>.1.m.^.!.).2.6 d., f %.lXgX6XfXnXoXx 2X  8X& X B 7XZXhX] 8 v J f j E 0.9.n.^.^.m.B.^.^.",
"^.^.^.^.^.^.;.2.n.^.n.'.9 7 h.$ #.] fXsX=XjXjX8Xl 1X  l O X N 6XZX#X[ 5 N n #.m.<.B.:.2.B.^.^.!.^.^.",
"^.^.^.^.!.B.3.>.m.^.^.n.# g.g.% {.] 5XAXdXzXfX8Xw t X . X X b 6XAXx | 3 A n +.].).5.3.;.n.^.^.^.^.^.",
"^.^.^.^.^.^.).^.^.M._.5 n h.; ' ].o.=XZXzXjXgXsXt . O + O # A gXNXk >.d C H 3 {.m.^.).^.^.^.^.^.^.^.",
"^.^.^.^.^.^.^.!.^.^.M.6 a.V * 9._. .oXZXgX1XnXzX6Xo z w w 6 Z xXcXd [.+.M d.# <.^.^.!.^.^.^.^.^.^.^.",
"^.^.^.^.^.`.!.^.m._.+.m h.; +./.^.0.c mX8XgXgX*XnXo 2Xz =XC A.vXsX9 ].-.> j.< 2 '.M.`.).^.^.^.^.^.^.",
"^.n.n.^.^.~.^.^.^._.9 K p.- n.!.m.!.h ) ~ ^ >X/ 6X>X7X0X7X! 6XVX<X[ }.!.2 L.r.$ +.'.!.).^.m.m.^.!.!.",
"^.^.^.^.^.^.^.^.^.!.q s.V 2 {.m.m.(.h 4XD.Q :X! S ! :XeX( ^ xXVX#X] [.|.9 m j.b & M.m.m.^.m.m.^.!.^.",
"^.^.^.^.^.^.^.^.!.n.7 h.v 2 '.m.m._.h fXNX%X( ` f.I Z ) Z 6XDXNXk X % 4 3 : U.u.< 0 '.M.^.^.^.^.^.^.",
"^.^.^.^.^.^.^.^.!.>.q k.v * /.~.!.m.% oX<XR r.B F H P :XL N 4X=X& : 7 1 o X F.h.S = /.^.^.^.^.^.^.^.",
"^.^.^.^.1.^.^.^.!.,.Y a.b @ m.^._.$.& x / L.L J.h.K J.R.H.d.R XXe + D.f.I $ : j.G 6 9.).n.^.^.^.^.^.",
"^.^.^.^.l.Q.^.[.^.!.q d.F X 8 x.`.<.e y p s t s T T Y T T s t w & , v g.e.< o f.e.7 } Q.N.^.^.^.^.^.",
"^.m.^.^.X.=.N.n.^._.+.L u.v X 0 4.-.- t p s y & e & % + w = * = - g.t.r.d.; o p.e.7 } 4.m.^.^.^.m.^.",
"^.^.!.^.~.B.^.^.^.). .j Y.w.n o X @ o a p u u t y p e w w p p t m y.r.y.J X < h.D q /.m.^.m.!.`.^.^.",
"^.^.^.^.^.^.^.^.^.m._.+.:XU.G F v < W K.! A n M a s a a < T m S Q wXU.Z X $ g.y.N =._.^.^.^.!.!.^.^.",
"^.^.^.^.^.^.^.m.>.!.n.:.h qXU.q.t.P P S ` I.w.D H H I G r.r.u.q.F L W , < F k.g.q /.~.^.^.^.^.^.^.^.",
"^.^.n.^.^.!.^.[.l.X.;.2.m.j D.W.P K e.w.q.P.L.H q.q.q.t.s.P.E.Y.t.q.G r.u.a.p.M 2.!.6.5.m.^.^.^.^.^.",
"^.^.^.^.^.^.^.).2.&.3.5./.n.O a J w.e.d.L : s d.e.r.u.H.A.v.s S.wXwXP.P.T.R.c.<.}.n.~.^.^.^.^.^.^.^.",
"~.^.^.^.^.^.^.!.6.3.4.m._.-.a P.y.a.d.A L b S q.e.t.J $.:.1.Q. .C.c.v.v.c.4.b.m.m.^.^.^.^.^.^.^.^.^.",
"^.^.^.^.^.^.^.^.^.^.!.^.^.).$.Z.A.( v.9 D.W.f.P.T.Z $._.Q.>.1.^.>.*.9.9.*.B.^.^.^.^.^.^.M.^.^.^.^.^.",
"^.^.^.^.^.^.^.^.^.^.^.^.^.^.`.<.-.=.Q._.n.c.v.c.c.<._.!.n.;.n.&.8.3.V.~.@.4.m.^.^.^.^.!.>.9.V.n.^.^.",
"^.!.2.n.!.^.!.^.^.^.^.^.^.^.~.[._.).^.m.!.!.!.Q./.).m.^.^.n.).n.1.6.^.~.n.n.^.^.^.^.^.^.m.3.B.B.m.^.",
"^.).;.7.^.^.^.^.^.^.^.^.^.^.^.^.^.^.^.^.m.m.^.^.^.^.^.^.^.^.^.^.!.!.^.^.^./.^.^.^.^.^.^.~.&.3.m.^.^."
};
