/* XPM */
static char *_b8e7d89600541c5c2da2a07cbb1e5b14fvsyeFBAKxnL07V[] = {
/* columns rows colors chars-per-pixel */
"50 50 247 2 ",
"   c #010012",
".  c #070828",
"X  c #150A26",
"o  c #17142A",
"O  c #191931",
"+  c #0A112E",
"@  c #250C25",
"#  c #2D1929",
"$  c #17222D",
"%  c #1E243A",
"&  c #28292D",
"*  c #27273A",
"=  c #2A3935",
"-  c #363035",
";  c #58352A",
":  c #543A39",
">  c #4D2D2D",
",  c #6C3524",
"<  c #5D271F",
"1  c #36532B",
"2  c #384836",
"3  c #3A5336",
"4  c #2F4634",
"5  c #386532",
"6  c #4F5134",
"7  c #6A4636",
"8  c #745435",
"9  c #43673C",
"0  c #4B733B",
"q  c #58763B",
"w  c #506A36",
"e  c #6C683A",
"r  c #282B46",
"t  c #283245",
"y  c #373845",
"u  c #2F3755",
"i  c #1F2442",
"p  c #4C3945",
"a  c #533C4B",
"s  c #6C3D45",
"d  c #3C5F46",
"f  c #554E5A",
"g  c #524B50",
"h  c #6F514D",
"j  c #546F4C",
"k  c #557747",
"l  c #507646",
"z  c #70734E",
"x  c #4E586C",
"c  c #665765",
"v  c #56676E",
"b  c #6B7B78",
"n  c #626B6D",
"m  c #91471C",
"M  c #B05615",
"N  c #9C5527",
"B  c #8A5236",
"V  c #90502D",
"C  c #AB5C29",
"Z  c #BD5F21",
"A  c #B96A2D",
"S  c #A96539",
"D  c #B66837",
"F  c #AF6329",
"G  c #9B613B",
"H  c #CC6817",
"J  c #D86D1A",
"K  c #E77B18",
"L  c #F0790C",
"P  c #C66826",
"I  c #CB732B",
"U  c #D97928",
"Y  c #C77739",
"T  c #CF702D",
"R  c #E87C25",
"E  c #B53848",
"W  c #8B5C49",
"Q  c #98654A",
"!  c #8A6A59",
"~  c #8C764F",
"^  c #A96C46",
"/  c #B56E43",
"(  c #B97647",
")  c #B57756",
"_  c #A96E50",
"`  c #937B75",
"'  c #8F736D",
"]  c #A77D6B",
"[  c #B2484A",
"{  c #C97B46",
"}  c #508E32",
"|  c #648C3A",
" . c #6A9539",
".. c #5CB53C",
"X. c #6AA63C",
"o. c #77A93A",
"O. c #74BC3B",
"+. c #65B83D",
"@. c #78C13E",
"#. c #38805A",
"$. c #5B8943",
"%. c #539250",
"&. c #669546",
"*. c #6C934D",
"=. c #57A252",
"-. c #57A84B",
";. c #67AB46",
":. c #76A745",
">. c #6DB24B",
",. c #69B644",
"<. c #75BB45",
"1. c #7CBD45",
"2. c #7CB44C",
"3. c #7DBB49",
"4. c #72B44A",
"5. c #68A855",
"6. c #74AD55",
"7. c #74A65B",
"8. c #7CB251",
"9. c #76B952",
"0. c #69816B",
"q. c #7AC343",
"w. c #75C252",
"e. c #86BC3F",
"r. c #FD8A0C",
"t. c #FC8706",
"y. c #FE8C13",
"u. c #FA8518",
"i. c #FE941B",
"p. c #FF9718",
"a. c #EA801C",
"s. c #D88539",
"d. c #DF862A",
"f. c #F78A27",
"g. c #FF9B24",
"h. c #FF9A2E",
"j. c #FA9429",
"k. c #FA993A",
"l. c #E98830",
"z. c #FFA32A",
"x. c #FFA828",
"c. c #FFA635",
"v. c #FFA41B",
"b. c #88CB3B",
"n. c #98D03C",
"m. c #8CD23A",
"M. c #929357",
"N. c #BC8759",
"B. c #83BD46",
"V. c #85BD4C",
"C. c #89BE4B",
"Z. c #82B546",
"A. c #83B452",
"S. c #85BB52",
"D. c #8FA05C",
"F. c #948F6E",
"G. c #B58B62",
"H. c #AC8879",
"J. c #AF8D6D",
"K. c #D5874B",
"L. c #C68558",
"P. c #D78D55",
"I. c #E59247",
"U. c #F39B4D",
"Y. c #FEA845",
"T. c #F4A557",
"R. c #FEB356",
"E. c #EAA057",
"W. c #CB946D",
"Q. c #D6AD7C",
"!. c #F2B371",
"~. c #83C246",
"^. c #8BC446",
"/. c #8CCA46",
"(. c #86C14A",
"). c #8BC24A",
"_. c #89CB4A",
"`. c #91C54B",
"'. c #92CC4C",
"]. c #92CA45",
"[. c #95D14D",
"{. c #98D149",
"}. c #8DC451",
"|. c #96D150",
" X c #90C654",
".X c #A4DD49",
"XX c #F3C97B",
"oX c #57698B",
"OX c #6C7A99",
"+X c #717685",
"@X c #657CA4",
"#X c #8A7681",
"$X c #74869B",
"%X c #74838A",
"&X c #7086AD",
"*X c #7A9DC3",
"=X c #898A9A",
"-X c #9B9493",
";X c #AC9288",
":X c #B79887",
">X c #B59C97",
",X c #A6918D",
"<X c #B4A19D",
"1X c #9C9AA6",
"2X c #8699B7",
"3X c #8B91A1",
"4X c #A69BA9",
"5X c #91A1B7",
"6X c #ABA7A9",
"7X c #B7A8AA",
"8X c #A8A5B6",
"9X c #B7B5B3",
"0X c #CDA78F",
"qX c #EDB78C",
"wX c #C6B6AF",
"eX c #C79E88",
"rX c #E6C586",
"tX c #FEE698",
"yX c #F7EB9C",
"uX c #FFF5AA",
"iX c #FBF2B1",
"pX c #DCCDA5",
"aX c #98B6D7",
"sX c #95B0D2",
"dX c #A7B9D4",
"fX c #ABB5C6",
"gX c #8299C2",
"hX c #B7C5D6",
"jX c #ABC2DA",
"kX c #AAC8E9",
"lX c #B7D3E7",
"zX c #B9D7F5",
"xX c #B1D1F2",
"cX c #BBE4FE",
"vX c #9AC3DF",
"bX c #CFCBD4",
"nX c #C8D9EF",
"mX c #CBE4FB",
"MX c #CDECFE",
"NX c #C5E6FB",
"BX c #D4EAFC",
"VX c #D4F3FF",
"CX c #DDF3FE",
"ZX c #DCFCFF",
"AX c #D4F8FF",
"SX c #D5E7F2",
"DX c #E2FAFE",
/* pixels */
").).S.6.<.).).).).).).).).^.).).).).).).).).).).).).).).).).).).).).).).).).).).).).).).).).).).).).",
").^.C.7.>.^.).).).).).).).).).).).).).).).).).).).).).).).).).).).).).).).).).).).).).).).).).).).).",
").).).).).).`.^.).).).).C.).).).).).).).).).).).).1.C.C.).).).).).).).).).).).).].`.).).).).).).).).",
").).).).).).).).).).).).).).).).).).V.).^.).).:.B.<.1.V.).).).).).C.).).V.).).).^.).C.).^.).).).).).",
"C.).).).).).).q.).).).).).).).).).V.V.).).`.o.t k q.5.8.).).).V.V.).).).C.).).).).).^.).).).).).).).",
").).).^.).).).>.<.3.}.C.).).).).).).).).C.|.0 @Xn B.).).^.).(.V.).).).).).^.).).).`.<.<.B.).).).).).",
").).).).).).).6.5.8.).).C.^.).).).).).B.).|.w OXb O.).).).).).).).).).).).).).).C.).).>.B.V.).).).).",
").).).).).^.).).).).).).).).).).).).).<.1._.5 &X$X .'.V.).).).).).).).).).).).).).).).5.5.3.).).).).",
").).).).).).).(.^.).).).).).).).^.~.~.{.m.w.5 &XdX1 `.'.'.C.C.(.(.(.q.).).).).^.).).).).C.C.).).).).",
").).).).).).V.V.).).).).).).).).).'.[.&.1 $ r 2XjXr $ 4 | _.~.C.^.O.~.~.).).).).).).).).).).).).).).",
").).).).C.).V.V.).).).).).).).V._.:.= t oX*XvXkXxXxXaX@Xu 4 O./.B.;.(.q.V.(.).).^.).).).).^.).).).).",
").).V.).).).8.6.).).).).).).V.'.0 O &XxXAXZXZXDXVXSXDXAXcX&X= X./.>.,.(.+.~.).).).).).).).).C.^.).).",
").).C.C.).^.A.A.).).).).).). Xq r sXNXZXSXwX:X>XJ.' ` hXBXAXaXt %.2.=.>.;.C.^.).).(.).).).).).^.).).",
").).).).).).).).~.).).^.).`.:.% aXMXCXbX' : l.Q D V V ] zXmXAXgX3 '.C.).}.).).).).).).).).).`./.).).",
").).).).).`.).).V.m.`.).(._.1 &XMXBXnXh Z S { ( K.I.U.D 6XMXNXVXoX .`.).).).).).^.].).).).).C.).).).",
").).).).).q.B.).).<.<.<.(.+.y xXmXZX6XM x.E.P.!.XXrXrX!.] zXMXVXsXq |.C.^.(.^.).C.{.n.3.).).).).).).",
").).).).).(.<.<.9.=...~._.} x MXNXBX;Xy.R.W.XXtXtXuXyXpXrXhXMXAXnXj ).).S.).).).).`.3.4.A.}.).).).).",
").^.).).).(.>.^.5.%.>.)._.} oXVXmXAX<Xi.P.!.yXtXtXuXW.[ uX7XnXSXmXk ).).S.).).).).^.=.6.S.).).).).).",
").).).).).).).).).).).(.'. .oXBXBXCXhXs.I.rXtXtXtXuXW.E yXpX6X-XmXk ~.C.C.).).).).^.4.2.).).).).).).",
").).).^.).).).).).).).).}.o.x mXVX>X9X:XC rXuXtXtXtXXXW.uX9XJ.9XxX .m.A.C.).).C.).).).).).).).).).).",
").(.8.A.^.).).).).).).).).^.d xXVX<XL.7XU K.pXuXiXiXiXiXpX_ F.NXdX .^.C.C.`.{.].).).^.).).).).C.).).",
").).1.S.).).).).).^.).V.1.{.6 sXZXdXD D A a.{ W.Q.rXqXL.P.D F.VX5X&.4.(.[.Z.$.&.`.].V.).).).^.8.V.C.",
").`.,.;.).).^.).^.'.{.[.b.q.q &XZXNX;XP Y s.k.S K.K.U f.P./ -XVX=Xo.[.C.9 o > @ 6 m.V.).).).).).).).",
").).3.6.).).).).`.&.= 4  .q. .oXVXMXzXH.K.K.I.s._ / a.g.l.H.zXDX%Xo.`.= # I.E.h.7 ;.).).(.).).).).).",
"^.).).).).).).'.*.> P B . l B.x mXmXBX;X_ W Y c.u.K i.i.k.) :XSXb /.9 @ T.! o W.! 4.).).).).).^.).).",
").).).).).}.).[.6 { G.K.A . q.g zXVXnX( @ + 0XL.E.R.k.k.j.h.I.8X0.B.. A L.0 q c &.`.).).).).).).).).",
").).).).).q.B.}.6 { k 6 j.> q k dXCXfXI X O bX+ #X' ] eXeX;X1XkXz $.X g.8 3.).:.'.B.).^.).).C.A.).).",
").).).).).q.O.(.Z.~ z 0 I V 5 | 2XZX6XC . r 8X  1Xn #XnXdX7XfXkX$.0 < z.: 2.).`.).n.q.(.).).V.V.).).",
").).).).).).>.4.S.B.V.&.N F 3 X.@XZX6XC . O f   1Xf 6XhXdX=XaXdX .&.# x.8 l [.).V.8.,.4.S.).).).).).",
").).).).).S.6.<.V.).[.$.N A 9 e.+XVX6XC . . . . y r 8XjXlXsXCX5X} q.& d.a.& V.`.).8.7.4.C.).).).).).",
").).).).).).).).).C.|.3 P S l /.v NX9XD # + O + . g aXfXhXlXCX$X} w.5 ; x.V 5 |.C.).).).).).).).).).",
").).).).).).).).C.).2.# j.B } _.k xXzXD : r r c X 4XhXbX8XfXDX+X%.9. X= A g.: B.).).).).C.).).).).).",
").).).).).].^.).C.[.2 , c.6 :.|.k aXNXG.S =Xc 4X@ bX#XbX8X1XnXb O.C.{.$.> z.N &.'.C.].).).).).).).).",
").V.V.).).).).C.[.$.# u.l.2 ). X .3XAX6X) 7X>XwX#X7X' ,XH./ H.v b.`.`.C.& f.U k '.C.`.).).).).)./.).",
").).).).).).).).C.O Z x.Q l .X X| OXBXzXF.] wX>X) H ) >X( :X5Xj ].).C.'.4 H h.e ^.).).).).).).).).).",
").).).).).).C.|.l , y.Y.> 3 2 $ . x mXDX8XS H.D K k.{ ] &XNXdXj '.C.C.{.4 N h.e 3.).).).).(.).).).).",
").).).).).).).'.2 J z.N.. @ > B : % 3X5XS Y >XT P K C L ! 5XOXo C.).).'.= m v.8 B.).).^.).).).).^.).",
").).).).1.).).(.7 L c.: o K U.J.% - OX! i.K.W.L.I g.{ Y I.` n % :.`.(.).+ M p.e <.(.@.`.V.C.).).).).",
").C.).).b.~.).3.7 y.k.. , y.L V > * t p h Q Q W _ Q h g f f s - Z.`.{.5 . K g.j 4.(.+.V.A.).).).C.).",
").).).).O.5.A.(.8 u.f.X ; g.u.i.l.- = * - r O * * y = a h a p y :.C.3 . m p.Y j }.)...6.C.).).).).).",
").).).).V.V.).'.q J g.7 . H p.u.p.G y f f r r y p : p h s g h o . . X C t.R.z :.).).V.(.).).).].).).",
").).).).).).).`.&.F g.l.# X A Y.qX_ J C Q 7 7 h h h B m A L.K./ , m K t.Y.>Xk '.).).).).).).).^.).).",
").).(.).).).).).q.e a.g.U , > _ { L r.i.y.L u.R Z P J r.U.{ H T Y i.r.c.0Xj /.C.).).).C.).).).).).).",
").).C.).).).).).m.+.e f.g.i.u.L t.p.R.!.k.j.i.r.y.y.P I.U.L r.y.J Y XXJ.k ).).).).).8.V.).).).).).).",
").).).).).).).}.<.=.=.z W.T.k.Y.!.qX,Xh M.G.K.y.u.i.j.h : { j.y.r.I h # V./.).).).(.V.).).).).).).).",
").).).).(.).).).S.5.7.(.:.D.D.J.D.*.&.C.B.X.&.U i.r.r.H M P C j.h.g.U.8 X.`.A.^.).).).).).).).).).).",
").).).).).).).).).`.^.).`._./.~.1.^.`.`.`.`.`.&.( U.U.k.!.W.9 M.J.G.` *...A.).).).).).).(.).).).).).",
").).).).).).).).).).).).).^.`.).C.A.C.C.`.C.^._.4.M.M.M.7.=.(.-.l %.*.~.=.7.S.^.).).).).1.1.C.V.).).",
").).<.~.).).).).).).).).).).).).).).).).).).).).`.^.^.^.~.(.`.C.9.}.`.(.V.(.).}.).).).).V.5.A.A.).).",
"^.`.>.5.).).).).).).).).).).).).).).).).).).).).).C.).).).).).).).}.).(.).).).).).).).).(.=.5.).).)."
};
