/* XPM */
static char *d32513f8a9d54715872cd25a4cf7ffbeElbiwq2yqW3TDY9e[] = {
/* columns rows colors chars-per-pixel */
"50 50 175 2 ",
"   c #331A00",
".  c #391D00",
"X  c #422100",
"o  c #4B2600",
"O  c #4A2902",
"+  c #542A00",
"@  c #5D2E00",
"#  c #44350C",
"$  c #483309",
"%  c #5E3001",
"&  c #533708",
"*  c #553A09",
"=  c #5B3E0A",
"-  c #622F00",
";  c #633200",
":  c #6C3600",
">  c #653E07",
",  c #6B3C04",
"<  c #703600",
"1  c #733A00",
"2  c #7C3D00",
"3  c #4E400F",
"4  c #5A410C",
"5  c #5E490F",
"6  c #5E4C12",
"7  c #514A1A",
"8  c #4F551B",
"9  c #5C5116",
"0  c #5B571B",
"q  c #575D1B",
"w  c #5E5C1B",
"e  c #64440B",
"r  c #614A0F",
"t  c #68480C",
"y  c #7F4000",
"u  c #614E12",
"i  c #615415",
"p  c #605917",
"a  c #615A19",
"s  c #5E6115",
"d  c #5D681B",
"f  c #61641F",
"g  c #5D792C",
"h  c #626B23",
"j  c #637025",
"k  c #647529",
"l  c #657C2B",
"z  c #813F00",
"x  c #804000",
"c  c #67802D",
"v  c #69832E",
"b  c #6A8731",
"n  c #638A34",
"m  c #6C8C33",
"M  c #619033",
"N  c #6C9336",
"B  c #619E37",
"V  c #6B9C33",
"C  c #729B3A",
"Z  c #76A43E",
"A  c #78A63E",
"S  c #72AA3C",
"D  c #65BA3C",
"F  c #6ABC3E",
"G  c #79B03F",
"H  c #74BD3F",
"J  c #77C03F",
"K  c #7FC739",
"L  c #5E9940",
"P  c #50965D",
"I  c #589D59",
"U  c #6D9D4C",
"Y  c #729B40",
"T  c #5AA74E",
"R  c #5BA452",
"E  c #61AB4D",
"W  c #7CAE43",
"Q  c #63B343",
"!  c #6BB546",
"~  c #6EB943",
"^  c #6EB24B",
"/  c #70B746",
"(  c #7EB143",
")  c #73BC43",
"_  c #7BBE46",
"`  c #73B44C",
"'  c #7BB44D",
"]  c #76B94A",
"[  c #7CBB4A",
"{  c #60A653",
"}  c #65A952",
"|  c #6CAB54",
" . c #6BA35A",
".. c #72AE53",
"X. c #79AB57",
"o. c #70A758",
"O. c #76AB5B",
"+. c #6FB050",
"@. c #74B152",
"#. c #7CB353",
"$. c #7EBA50",
"%. c #7DC044",
"&. c #89C73F",
"*. c #87C93B",
"=. c #8CCB3D",
"-. c #99D339",
";. c #81B646",
":. c #83BC47",
">. c #85BD4C",
",. c #88BE4D",
"<. c #82B652",
"1. c #85BA50",
"2. c #86C247",
"3. c #86C544",
"4. c #82C146",
"5. c #8FC747",
"6. c #8EC647",
"7. c #83C148",
"8. c #84C148",
"9. c #85C148",
"0. c #84C149",
"q. c #87C049",
"w. c #86C149",
"e. c #86C248",
"r. c #87C249",
"t. c #87C248",
"y. c #86C04A",
"u. c #87C04B",
"i. c #87C04D",
"p. c #85C149",
"a. c #88C248",
"s. c #88C249",
"d. c #89C249",
"f. c #89C349",
"g. c #8AC349",
"h. c #88C14A",
"j. c #88C04B",
"k. c #88C14B",
"l. c #89C14B",
"z. c #89C04B",
"x. c #8AC14B",
"c. c #8BC14B",
"v. c #89C24A",
"b. c #89C24B",
"n. c #89C34B",
"m. c #8AC24A",
"M. c #8AC34A",
"N. c #8BC34A",
"B. c #8AC24B",
"V. c #8BC24B",
"C. c #8BC34B",
"Z. c #8CC34A",
"A. c #8BC549",
"S. c #89C44A",
"D. c #8BC44A",
"F. c #8BC54B",
"G. c #8BC54B",
"H. c #88C449",
"J. c #8DC548",
"K. c #8CC449",
"L. c #8DC549",
"P. c #8CC44A",
"I. c #8CC54B",
"U. c #8DC44B",
"Y. c #8CC64B",
"T. c #89C04C",
"R. c #8AC14C",
"E. c #8AC24D",
"W. c #8BC34A",
"Q. c #90C746",
"!. c #93CC41",
"~. c #94CD40",
"^. c #97CE41",
"/. c #90C846",
"(. c #92CA46",
/* pixels */
"N.N.1.@._ N.N.N.N.N.N.N.N.N.N.N.N.N.N.N.N.N.N.N.N.N.N.N.N.N.N.N.N.N.N.N.N.N.N.N.N.N.N.N.N.N.N.N.N.N.",
"N.N.1.O./ N.N.N.N.N.N.N.N.N.N.N.N.N.N.N.N.N.N.N.N.N.N.N.N.N.N.N.N.N.N.N.N.N.N.N.N.N.N.N.N.N.N.N.N.N.",
"N.N.N.N.N.N.N.N.N.N.N.N.N.N.N.N.N.N.N.N.N.N.N.N.N.%.u.N.N.N.N.N.N.N.N.N.N.N.N.N.6.6.N.N.N.N.N.N.N.N.",
"N.N.N.N.N.N.N.N.N.N.N.N.N.N.N.N.N.N.>.N.N.N.N.N.N.~ _ >.N.N.N.N.u.u.N.N.u.N.N.N.6.G.N.N.N.N.N.N.N.N.",
"N.N.N.N.N.N.N.%.a.N.N.N.N.N.N.N.N.>.:.i.G.N.N.N.u._ ^ #.N.N.N.>.:.N.G.N.u.N.N.N.N.N.2.N.N.N.N.N.N.N.",
"N.N.N.N.N.N.E./ ] >.N.N.N.N.N.N.N.N.N.N.N.N.N.G.G.u.i.N.N.N.u.N.N.N.N.u.N.N.N.N.N.N._ _ 4.N.N.N.N.N.",
"N.N.N.N.N.N.N.@.| ' N.N.N.N.N.N.N.N.N.4.N.N.u.>.N.N.N.N.N.N.N.N.N.N.N.N.N.N.N.N.N.N.u.! _ >.N.N.N.N.",
"N.N.N.N.N.N.Z.E.N.N.N.N.N.N.N.N.N.N.N._ 4._ ! >.u.N.N.N.N.N.N.u.N.N.N.N.N.N.N.N.N.N.u.| | >.N.N.N.N.",
"N.N.N.N.N.N.N.H.G.N.N.N.N.N.N.N.N.N.N.!.K ^ ` ,.G.N.N.N.N.N.N.,.N.4.%.G.N.N.K.6.N.N.K.>.>.,.N.N.N.N.",
"N.N.N.N.,.N.>.:.N.N.N.N.N.N.N.N.N.N.N.u.}  .#.N.N.N.N.N.N.4.4.N.N._ 4.u.N.N.K.K.N.N.G.N.K.N.N.N.N.N.",
"N.N.N.N.N.N.>.>.N.N.N.N.N.N.N.N.4.N.N.N.#.<.u.G.N.K.K.N.N.N.*.3.2.Q %.%._ u.G.N.N.N.N.N.N.N.N.N.N.N.",
"N.N.>.N.N.N.' ' G.N.N.N.N.N.N.>.H 2.N.Z.K.a.N.N.>.>.N.N.N.N.3._ _ ` / 7.F :.K.G.N.N.N.N.N.N.N.N.N.N.",
"N.N.u.N.N.N.<.#.K.N.N.N.N.N.>.>.Q #.G.G.N.N.N.N.1.#.N.N.N.N.@...{ @.R / ! ,.N.Z.N.N.N.N.N.N.N.Z.N.N.",
"N.N.N.N.N.N.E.N.u.2.N.N.N.N.E.N.:.i.N.N.N.N.N.N.N.,.N.N.N.N.i.E.,.>.N.u.E.E.N.Z.N.N.N.N.N.N.6.6.N.N.",
"N.N.N.N.N.Z.Z.N.2.=.6.G.N.4.N.N.N.N.N.N.N.N.N.N.N.N.N.N.N.N.N.N.N.N.N.N.N.N.Z.Z.Z.(.K.N.N.N.N.N.N.N.",
"N.N.N.N.N._ 7.N.N.~ ) _ 4.) N.N.N.N.N.N.N.N.N.N.N.N.N.N.N.N.N.N.N.N.N.N.N.N.Z.Z.Z.^.=._ N.N.N.N.N.N.",
"N.N.N.N.N.u.) _ ] R Q %.2.D _ N.N.N.N.N.N.N.>.1.G.N.G.f.G.N.N.N.N.N.N.N.,.i.G.G.Z.K.[ ` <.N.N.N.N.N.",
"N.N.N.N.N.,./ u.` I ` ,.u.F 7.N.G.G.H.G.N.N.,.,.G.G.G.G.6.N.N.N.G.2.N.N.,.N.G.G.Z.2.E #.<.N.N.N.N.i.",
"N.N.N.N.N.N.N.N.E.,.N.N.G.G.G.N.:.Z M l h h f h j v V G ;.:.:.u.u.%.4.,.i.>.W Z :.a.` ' N.N.N.N.N.N.",
"N.N.N.N.N.N.Z.Z.G.N.2.u.( Z b h 6 e , 1 2 2 2 2 2 : , e r u i p p s d h k w e > w W K.Z.N.N.N.N.N.N.",
"N.u.' <.N.N.N.K.W h w 9 r > 1 2 2 x x x x x x x x x x z x z 2 z 2 2 2 2 2 2 z x 2 5 Z N.N.N.N.N.u.G.",
"N.N._ >.N.N.N.>.w 1 2 z z x 2 x x x x x y x y x x x x y x x x z x x z z 2 x x x z 2 9 >.Z.N.N.<.>.u.",
"Z.Z./ ! >.N.Z.Z > x x x x x x x x x x x x x x x x z x x z x x x x x y x z y y x z x : N K.N.N.N.N.N.",
"Z.Z.' ` N.Z.K.l 1 x x x x x x x y x x x x y x y x 2 x x y x y x x x 2 2 x x x x 2 x 2 w u.N.N.N.N.N.",
"Z.Z.N.K.N.N.N.w 2 z y x y x x x ; @ 1 x x x x x x ; ; 2 x x y x y x 1 . @ 2 y x x z z > W I.N.N.N.N.",
"N.N.N.N.N.Z.N.p z x x x 2 x x 2 o   1 x y y x x 2 o . : x x x x x x : o : x x x x x x < l K.N.E.N.N.",
"N.N.N.N.E.%.N 3 ; 2 x 2 x x x x 2 1 2 x x x x x 2 2 : y x x y x y x x y 2 x x y x x z 2 d ,.i.>.N.N.",
"N.N.N.N.F.S = 1 : @ ; 2 x x x x x 2 x x y x x x y x y y y x y x x x x y x x x x x x 2 2 6 ;.i.>.N.N.",
"N.N.N.Z.F.C , x x :     : y y y x x x x x x x x x x x x x x 2 x x x x y x x x 2 2 ; @ @ O g i.F.N.N.",
"N.N.N.Z.I.Y , x 2 @ < ; O 2 y y x x x x x x x x x x x x x x x x 2 2 2 y 2 2 1 2 1 @ y y 2 ; w Z G.N.",
"N.N.Z.Z.U.Z e z 1 ; x x ; 1 y 2 2 : ; : : ; ; ; ; ; ; ; @ ; % @ O % % % % @ ; % + o ; y x z - # n N.",
"N.N.Z.Z.U.A , x 1 ; x x ; + @ @ @ : : : ; o ; 1 1 1 1 1 1 1 2 2 @ : x 2 y 2 2 1 2 1 % + : ; - : & C ",
"N.N.N.N.I.A , x 1 ; x x : ; y y x x x x x 2 @ : x 2 1 2 2 2 2 2 1 o + @ @ % ; % @ @ % + X X 2 x 1 l ",
"N.E.>.>.E.C , x 1 ; x x : @ : ; ; ; : : : ; + o % % % % @ @ % @ % ; + 1 2 2 y y 2 y 2 y 2 @ 2 x 2 l ",
"N.N.N.N.F.N 1 x 2 @ x x ; @ : 1 1 : 1 : : 1 2 + 2 x x x 2 x x 2 2 2 + + % @ @ - % % @ % @ X 2 x 1 l ",
"N.N.N.N.F.b 1 z 2 @ z x : + ; ; ; ; ; - % ; - o % ; : ; : : ; @ @ @ - 1 2 2 2 2 2 2 2 2 2 @ 2 x 1 l ",
"N.N.N.N.G.l 1 z 2 % z x : @ 1 2 1 1 1 2 2 1 1 2 1 : 1 : : : 1 2 y 2 x x x x x x x x x x x % 2 y : c ",
"N.N.N.N.7.N = 2 z % 2 x : : x y x z x x 2 x z x x x x x x x x x x x z z x x x z y y x y x ; 1 x 2 l ",
"N.N.N.N.*.2.C 9 : % z z : : x x z x x x x x x x x x z x x x z z z 2 2 2 z 2 z z x x z z 2 ; 1 x 1 l ",
"N.N.N.N.H ` <.;.k $ , , % * e e > , e , e , , e e e e e e t u i p p f q w 0 7 = > , 1 1 2 + 2 z 1 v ",
"N.N.N.K.u.>.u.G.G.Z C N C W W U L B Z Z Z Z Z A W ( ( ( W ;.:.2.:.u.N.7.>.>.' W A C m l h 8 9 p 4 g ",
"N.N.N.f.N.N.N.G.H.G.K.G.K.I.I.1.$.7.G.G.I.K.G.G.K.K.K.Z.6.Q.(.6.K.N.N.N.Z.N.G.Z.I.K.F.F.N.N.a.a.W ;.",
"N.N.u.G.N.N.N.u.%.3.[ ~ ,.N.F.E.K.N.N.N.G.G.G.N.N.N.N.N.Z.Z.K.G.K.K.N.N.a.K.N.N.Z.N.N.N.N.Z.Z.Z.Z.Z.",
"N.N.u.N.N.N.N.N.&.) ^ ` >.N.N.Z.N.N.N.N.u.4._ N.N.N.N.N.N.Z.N.u.N.N.N.N.Z.Z.N.N.Z.N.1.' ,.Z.Z.a.N.N.",
"N.N.N.N.N.N.N.N._ R | #.,.Z.N.N.N.6.N.N._ / 7.N.N.N.N.N.N.N.N.%.%.N.Z.N.N.N.,.N.a.u.>.N.a.Z.N.N.N.N.",
"N.N.N.N.N.N.N.N.1. ...,.Z.Z.N.N.N.G.N.N.E.] G.K.K.N.N.N.4.u.N.6.-._ 7.4._ N.>.Z.K.Z.G.N.K.Z.N.N.N.N.",
"N.N.N.N.N.N.N.N.N.N.N.N.N.N.N.N.:.,.N.N.N.N.N.6.6.N.N.N._ _ ] _ +.Q [ _ Q #.N.N.Z.Z.N.N.>.N.N.N.N.N.",
"N.N.N.N.N.N.N.N.N.N.N.N.N.N.N.N.,.1.,.N.N.N.N.K.N.N.N.N.>.^ >.{ P  .<._ T X.,.N.N.N.Z.Z._ _ >.,.N.N.",
"N.N.] :.G.N.N.N.N.N.N.N.N.N.N.N.N.N.N.N.N.N.N.N.N.N.N.N.N.>.N.>.$.1.E.N.[ ,.N.N.N.N.N.N.>.} <.>.N.N.",
"N.N.^ +.G.N.N.N.N.N.N.N.N.N.N.N.N.N.N.N.N.N.N.N.N.N.N.N.N.N.N.N.K.E.N.N.Z.Z.N.N.N.N.N.N.u.R o.,.N.N."
};
