/* XPM */
static char *_b48c00a77604478db1bc6bd226b3374idgI617eDhGblgau[] = {
/* columns rows colors chars-per-pixel */
"50 50 163 2 ",
"   c #3D9135",
".  c #62B83D",
"X  c #6ABD3C",
"o  c #76BD3F",
"O  c #59964B",
"+  c #50965D",
"@  c #529A5A",
"#  c #609F55",
"$  c #6C9B5D",
"%  c #729D5E",
"&  c #5AA74E",
"*  c #5BA552",
"=  c #63AC4D",
"-  c #6BAF4D",
";  c #62B442",
":  c #6EB646",
">  c #6FBA44",
",  c #6EB24B",
"<  c #74BB44",
"1  c #7BBE46",
"2  c #74B54B",
"3  c #7BB54E",
"4  c #77B949",
"5  c #7CBA4B",
"6  c #6BA354",
"7  c #66AA52",
"8  c #6CAA53",
"9  c #6CA35A",
"0  c #70A456",
"q  c #73AC53",
"w  c #7CAB54",
"e  c #74A45B",
"r  c #7BA45A",
"t  c #76AB5B",
"y  c #7CA858",
"u  c #6FB050",
"i  c #75B152",
"p  c #7DB253",
"a  c #6D8E6C",
"s  c #718A6C",
"d  c #7A8F6E",
"f  c #6B9563",
"g  c #6F9369",
"h  c #739564",
"j  c #729A62",
"k  c #7B9B65",
"l  c #74916B",
"z  c #7D946C",
"x  c #7F9A69",
"c  c #6E8774",
"v  c #6C8971",
"b  c #748575",
"n  c #7B8777",
"m  c #748B72",
"M  c #7C8C74",
"N  c #768479",
"B  c #7D837C",
"V  c #7D8978",
"C  c #7F9071",
"Z  c #7BA061",
"A  c #7DC144",
"S  c #89C73F",
"D  c #87C83B",
"F  c #9AD23C",
"G  c #82BA44",
"H  c #81B74F",
"J  c #84BD4C",
"K  c #89BE4E",
"L  c #8FAF55",
"P  c #84A65D",
"I  c #88A35F",
"U  c #86AB5D",
"Y  c #88AF5A",
"T  c #83B652",
"R  c #89B556",
"E  c #85BA50",
"W  c #8ABA51",
"Q  c #88B159",
"!  c #829D67",
"~  c #899D67",
"^  c #83956E",
"/  c #839B6A",
"(  c #899B68",
")  c #828D75",
"_  c #80837D",
"`  c #81887A",
"'  c #818979",
"]  c #858979",
"[  c #818979",
"{  c #809171",
"}  c #839371",
"|  c #839073",
" . c #839172",
".. c #84A561",
"X. c #86A761",
"o. c #86A463",
"O. c #86A662",
"+. c #86A364",
"@. c #86A463",
"#. c #8CA063",
"$. c #8CA363",
"%. c #87A860",
"&. c #82C147",
"*. c #84C147",
"=. c #85C347",
"-. c #86C347",
";. c #83C247",
":. c #8FC746",
">. c #8EC647",
",. c #8EC647",
"<. c #83C148",
"1. c #84C149",
"2. c #85C248",
"3. c #87C249",
"4. c #87C04B",
"5. c #86C04A",
"6. c #87C04C",
"7. c #85C149",
"8. c #88C248",
"9. c #89C249",
"0. c #89C349",
"q. c #88C249",
"w. c #8AC349",
"e. c #88C14A",
"r. c #88C04B",
"t. c #88C14B",
"y. c #89C14B",
"u. c #89C04B",
"i. c #8AC14B",
"p. c #89C24A",
"a. c #89C24B",
"s. c #88C24A",
"d. c #8AC24A",
"f. c #8BC24A",
"g. c #8AC34A",
"h. c #8BC34A",
"j. c #8AC24B",
"k. c #8BC24B",
"l. c #8CC34A",
"z. c #8BC449",
"x. c #8BC44A",
"c. c #8DC548",
"v. c #8CC449",
"b. c #8DC549",
"n. c #8CC44A",
"m. c #8DC44A",
"M. c #89C04C",
"N. c #8BC04C",
"B. c #8BC34A",
"V. c #90C746",
"C. c #90C746",
"Z. c #94CD40",
"A. c #97CE41",
"S. c #90C846",
"D. c #92C944",
"F. c #7F7E81",
"G. c #807F81",
"H. c #807F81",
"J. c #7F8080",
"K. c #7F8080",
"L. c #808080",
"P. c #818081",
"I. c #808080",
/* pixels */
"h.h.E i 1 x.x.x.h.h.h.h.h.h.h.h.h.h.h.h.h.h.h.h.h.h.h.h.h.h.h.h.h.h.h.h.h.h.h.h.h.h.h.h.h.h.h.h.h.h.",
"h.h.E t 2 -.h.h.h.h.h.h.h.h.h.h.h.h.h.h.h.h.h.h.h.h.h.h.h.h.h.h.h.h.h.h.h.h.h.h.h.h.h.h.h.h.h.h.h.h.",
"h.h.h.h.h.h.h.h.h.h.h.h.h.h.h.h.h.h.h.h.h.h.h.h.h.A 5.h.h.h.h.h.h.h.h.h.h.h.h.h.D.,.h.h.h.h.h.h.h.h.",
"h.h.h.h.h.h.h.h.h.h.h.h.h.h.h.h.h.h.J h.h.h.h.h.h.> 4 h.h.h.h.h.5.5.h.h.5.h.h.h.v.N.h.h.h.h.h.h.h.h.",
"h.h.h.h.h.h.h.A h.h.h.h.h.h.h.h.h.J J 5.x.h.h.h.5.1 , 3 h.h.h.J J h.0.h.J h.h.h.x.h.5.5.x.x.h.h.h.h.",
"h.h.h.h.h.h.x., 4 5 h.h.h.h.h.h.h.h.h.h.h.h.,.N.x.5.K h.h.h.J h.h.h.0.h.h.h.h.h.h.h.1 1 &.h.h.h.h.h.",
"h.h.h.h.h.h.x.i q 3 h.h.h.h.h.h.h.h.h.*.h.x.*.*.h.x.h.x.h.h.v.v.h.h.h.h.h.h.h.h.h.h.5.: 1 5.v.h.h.h.",
"h.h.h.h.h.h.h.h.h.h.h.h.h.h.,.N.x.x.h.4 J 3 - U U U U U Q K h.h.h.h.h.h.h.h.h.h.h.h.h.8 8 H x.x.h.h.",
"h.h.h.h.h.h.h.x.x.h.h.h.N.c.c.N.W @.^ ~ w j % [ _ P._ F._ ) / U W =.A x.x.h.v.,.h.h.h.J K h.h.h.h.h.",
"h.h.h.h.5.h.J G x.h.h.x.K K Y / _ G.G.] ^ n M _ J.P.P.J.G.M k _ ] r &.*.h.h.x.,.h.h.h.h.h.h.h.h.h.h.",
"h.h.h.h.h.h.J J h.v.h.Q / [ L._ z F.P.K.G.G.G.G.P.P.P.P.G._ ( _ G.V ! 5 1 h.h.h.h.h.h.h.h.h.h.h.h.h.",
"h.h.J h.h.h.3 p v.Q  .B L.L.L.n 6 n P.F.P.G.G.G.B M P.P.G._ [ n n G.M ! : &.h.h.h.h.h.h.h.h.h.h.h.h.",
"h.h.5.h.h.h.H T U ` L.L.L.L.^ M # b P.P.P.G._ _ x k B G._ G.m v n B _ B j K h.h.h.h.h.h.h.h.h.w.h.h.",
"h.h.h.h.h.h.N.U M V L.L.L.L._ _ B B L.L.P.G.G._ V _ P.F.G.G.J.B P.G.G.G.B Y x.h.h.h.h.h.h.h.,.,.h.h.",
"h.h.h.h.h.x.Y _ V ~ _ L.L.L.L.L.L.L.L.L.G.G.J.P.P.P.G._ _ P.G.P.G.P.J.P.G.[ W x.h.v.h.h.h.h.h.h.h.h.",
"h.h.h.h.h.T M B G.B _ _ L.L.L.L.L.L.L.L.B P._ P.J.P.P.G.F.J.P.G.G.B P.P.P.P.^ N.h.Z.F 1 h.h.h.h.h.h.",
"h.h.h.h.K ^ f s a b L.L.L.L.L.L.L.L.L.L.B _ / B G.P._ L.L.L.L.L.L.L.L.L.V L._ I h.v.5 2 T h.h.h.h.h.",
"h.h.h.h.+.` a B s N L.L.L.L.L.L.L.L.L.L._ _ V B P.J._ _ L.L.L.L.L.B L.L.B L.L._ Q =.& p T h.h.h.h.h.",
"h.h.,.W _ _ L.L.G.P.L.L.L.L.L.L.L.L.L.L.P.L._ P.P.G.k d L.L.L.L._ % M _ _ L.L.L.} K 2 H h.h.h.h.h.h.",
"h.h.N./ G.K.L.L.F.P.L.L.L.L.L.L.L.L.L.L.G.G.G.G.B G.P 0 K.L.L.L._ L ] x ) L.L.L.F.X.v.x.h.h.h.h.h.h.",
"h.h.w M G.L.L.L._ P.B G.L.L.L.L.L.L.L.L.L.L.G.G.P.G.M s K.L.L.L.L.I r U V _ G.G.F.) K h.h.h.,.h.h.x.",
"h.h.P B _ L.L.L.G.G.G.V n L.L._ L.L.L.L.L.L.G.B _ G.G.L.L.L.L.L.G.V f M G.G.G.G.) ~ @.h.h.h.N.H H h.",
"N.k.e f M _ L.L.L.L. .) r h d ) L.L.L.L.L.L.L.) ` ` L.L.L.L.L.L.L.L.G.G.G.G.G.F.~ N.! @.h.h.h.K h.h.",
"v.K l b _ L.L.L.L.G._ _ w 6 z _ L.L.L.L.L.L.L._ L.[ L.L.L.L.L.L.L.G.G.G.V } _ G.n z / _ @.h.h.h.h.h.",
"v.N.) P.P.P.J.P.G.) M ) n M ` G.L.L.L.L.J.J.V n L.L.P._ G.F.G.G.P.P.G.G.M k [ _ G.L._ L._ Y v.v.h.h.",
"v.K ) H.P.J.P.G._ M ) _ G.G.G._ L.L.L.L.P.F.d $ s K.P._ / V _ G.G.G._ G.G._ L.L.L.G._ G.G.) W N.h.h.",
"N.N.| J._ m n V _ G.z V G._ G.P.L.L.J.P.J._ r e l J.P.V M B G.G.B G.J.P.P.P.L.L.L.d V G.G.P./ J h.h.",
"x.N.) F.G.z $ z _ _ _ _ _ ^ G.P.L.L.P.P.J.P.[ _ B P.P.` _ B P.G.P.G.P.G.P.P.L.L.J.I j M P.G. .J 5.x.",
",.W _ G.G.B 8 0 M _ P.G.J._ L.L.L.L.L.L.L.L.L.L.L.L.L.K._ _ G.z V G.m m P.G.F.P.B C $ j B G.[ K h.h.",
"x.R _ G.G.V g % d L.P._ G.L.L.L.L.L.L.L.L.L.L.L.L.L.L.P.P.P.F.^ V F.N C ) G._ P.J.V b g B _ ` R x.h.",
"x.Q _ G.G._ _ G.L.L.L.L.P.L.F.K.L.L.L.L.L.L.G.B V G.G.P.G.G.F.K.B n n ^ V _ G.P.G.B J.J.G.G._ Q x.h.",
"N.U G.G._ _ _ P.L.L.L.L.L.L.B N L.L.L.L.L.L.L.$.r L.G.B N G._ B c b m _ G.G._ G.P.P.F.J.G.G._ Q 0.h.",
"v.U V G._ $.] _ G.G.G.G.P.G.B B P.P.P.P.P.G.m G ^ n B N N G.^ _ B B G.G.L.^ V L.L._ ^ _ G.P._ Y x.x.",
"x.Q ^ ^ P._ P.P.G.G._ P.G.G.G.G.G.P.G.G.G.G.s   s l m n B G.P.G.G.G.G.P._ M L.L.L._ ( _ G.) ) Q ,.h.",
"h.K @.) ) / ^ ) } ) _ [ ] ) ) ) )  . .^ / k O   6 e 9 k  .[ _ G.G.G._ G.L.G.L.G.L.L.G.L.M ) } W x.h.",
"h.h.h.K K h.h.K N.K K W K k.K K k.k.k.h.5.< : 8 = 8 2 H K K Y +.) ` G.G.G.B V _ L.L.L.L._ L./ K h.h.",
"h.h.h.h.h.h.h.h.h.h.x.h.v.v.v.x.h.h.h.h.h.h.h.h.h.h.h.K w.h.w.0.k.R X.^ ) z k _ _ _ B _ _ ^ K N.h.h.",
"h.h.h.h.&.5.h.h.h.h.h.J h.v.h.h.v.v.h.h.h.h.h.h.h.h.h.h.h.h.h.h.N.v.=.*.E W 2 2 3 H 3 W W K v.v.h.h.",
"h.h.h.h.D *.h.h.h.h.h.5.h.v.h.F 0.=.h.h.h.h.h.h.h.h.h.c.,.h.h.h.v.v.*.A 4 3 = ; 4 J X 5 J h.x.h.h.h.",
"h.h.h.h.o , T K h.h.h.h.x.N.k.D.1 5 h.h.h.h.h.h.h.h.h.h.h.5.h.h.v.N.x.> H - @ 8 J w.. 3 K h.h.h.h.h.",
"h.h.h.h.5.J 6.h.h.h.h.h.h.h.K p , 4 5.h.h.h.h.h.h.h.h.h.h.h.h.x.h.h.h.J h.h.3 J N.c.G 5.x.h.v.D.h.h.",
"h.h.h.h.h.h.h.h.5.h.x.h.h.h.a.E 5 A h.x.h.h.x.x.h.h.h.h.h.D.D.,.h.h.h.h.h.v.N.h.h.h.h.h.x.x.v.v.h.h.",
"h.h.h.h.h.h.h.h.1 =.4 > K N.x.x.x.h.h.h.h.h.h.x.h.h.h.h.h.x.v.x.h.h.h.h.h.h.h.h.h.h.h.w.h.h.h.h.h.h.",
"h.6.6.h.h.h.h.h.S o , 2 K h.h.x.h.h.h.h.*.<.1 5.h.h.h.h.h.h.x.5.*.h.h.h.h.h.h.h.h.h.H H h.h.h.h.h.h.",
"h.h.h.h.v.n.N.v.A * 7 p 6.h.h.h.x.,.x.h.1 2 <.h.h.h.h.h.x.h.h.A A w.N.0.w.w.h.c.N.5.J h.h.h.h.h.h.h.",
"h.h.h.h.a.n.x.x.E 9 q K h.h.h.h.x.0.h.h.5.4 h.v.,.h.h.h.&.5.h.,.F &.&.&.1 K J K v.x.x.h.h.h.h.h.h.h.",
"h.h.h.h.a.v.n.v.-.a.h.h.h.h.h.h.J J h.h.x.h.h.,.,.h.h.h.1 1 1 5 , ; 4 1 ; H h.h.x.x.h.h.5.x.N.h.h.h.",
"h.h.h.h.n.v.a.a.n.a.h.h.h.h.x.5.K E N.h.h.h.h.x.h.h.h.h.K , 5 7 + 9 T G & t K h.h.h.h.h.A 4 J K h.h.",
"h.h.4 <.h.h.h.h.h.h.h.h.h.h.h.h.h.h.h.h.h.h.h.h.h.h.h.h.6.J h.J 5 E k.a.J N.N.a.n.a.v.v.6.7 E E 6.x.",
"h.h., u h.h.h.h.h.h.h.h.h.h.h.h.h.h.h.h.h.h.h.h.h.h.h.h.h.h.h.h.n.n.a.n.a.a.v.a.v.a.n.a.6.* 0 K x.x."
};
