/* XPM */
static char *_c50d0179faa4725e59eae9e224ed8e2Bj4mOWLJOFjp241F[] = {
/* columns rows colors chars-per-pixel */
"50 50 256 2 ",
"   c #04011D",
".  c #1A011E",
"X  c #24061D",
"o  c #2C091B",
"O  c #030323",
"+  c #08172B",
"@  c #171528",
"#  c #17172E",
"$  c #361926",
"%  c #2A1A2B",
"&  c #1C2236",
"*  c #27283B",
"=  c #362936",
"-  c #3C3838",
";  c #283032",
":  c #4D0C16",
">  c #7F0102",
",  c #72070F",
"<  c #720F14",
"1  c #6F2D18",
"2  c #481C27",
"3  c #711827",
"4  c #432523",
"5  c #513230",
"6  c #6B2528",
"7  c #7C2D3A",
"8  c #673936",
"9  c #712F31",
"0  c #582C1F",
"q  c #394D37",
"w  c #1F4536",
"e  c #584738",
"r  c #445C3A",
"t  c #585C39",
"y  c #744D32",
"u  c #4A663C",
"i  c #54723D",
"p  c #706E34",
"a  c #313747",
"s  c #2F3D60",
"d  c #473743",
"f  c #56384D",
"g  c #6B3A44",
"h  c #594144",
"j  c #555749",
"k  c #494A53",
"l  c #475459",
"z  c #515354",
"x  c #694845",
"c  c #6E5A56",
"v  c #765953",
"b  c #724E50",
"n  c #5B6C46",
"m  c #54704A",
"M  c #697A44",
"N  c #786C52",
"B  c #505963",
"V  c #725268",
"C  c #52666A",
"Z  c #736F74",
"A  c #810202",
"S  c #840B0B",
"D  c #8C0B0B",
"F  c #8A0708",
"G  c #930C0C",
"H  c #9B0D0C",
"J  c #980505",
"K  c #9B100E",
"L  c #871216",
"P  c #981616",
"I  c #8F0E0F",
"U  c #A60B09",
"Y  c #A4130E",
"T  c #A51314",
"R  c #A40F13",
"E  c #8E2318",
"W  c #A72719",
"Q  c #AF371F",
"!  c #881822",
"~  c #A81D21",
"^  c #87272D",
"/  c #972826",
"(  c #872C34",
")  c #8E342F",
"_  c #A12A2B",
"`  c #A43721",
"'  c #AB342D",
"]  c #964815",
"[  c #B8591A",
"{  c #AB4E1B",
"}  c #994826",
"|  c #974831",
" . c #8E522D",
".. c #A55626",
"X. c #A85A33",
"o. c #AB4C2B",
"O. c #9B683A",
"+. c #9A7937",
"@. c #8E6C30",
"#. c #BA6526",
"$. c #A66A38",
"%. c #B26939",
"&. c #B97B3E",
"*. c #BF6215",
"=. c #C6681C",
"-. c #D56E12",
";. c #F47E06",
":. c #E67A16",
">. c #EE7910",
",. c #C95225",
"<. c #C66925",
"1. c #CA762F",
"2. c #D47229",
"3. c #E37923",
"4. c #953743",
"5. c #A23A41",
"6. c #9A5847",
"7. c #924D51",
"8. c #AC4C4C",
"9. c #8A6143",
"0. c #907051",
"q. c #B0714B",
"w. c #945669",
"e. c #8D7075",
"r. c #AF736A",
"t. c #C67B4D",
"y. c #C17166",
"u. c #648539",
"i. c #59AF3C",
"p. c #71B83D",
"a. c #5E963F",
"s. c #77C83B",
"d. c #3C875C",
"f. c #5B8542",
"g. c #539558",
"h. c #668946",
"j. c #699544",
"k. c #739350",
"l. c #54A64B",
"z. c #6AAC49",
"x. c #77A84A",
"c. c #69B548",
"v. c #7DBE45",
"b. c #73B54A",
"n. c #7DB34B",
"m. c #7CBB4A",
"M. c #76BA44",
"N. c #69A756",
"B. c #78AE54",
"V. c #7BB352",
"C. c #799F68",
"Z. c #7BC243",
"A. c #95993B",
"S. c #908C39",
"D. c #A99337",
"F. c #87A63C",
"G. c #BBAB35",
"H. c #FE8C04",
"J. c #FB880B",
"K. c #FF9409",
"L. c #FB8C16",
"P. c #FF9716",
"I. c #EE8819",
"U. c #FEA31E",
"Y. c #D7852D",
"T. c #D58F37",
"R. c #FF9C22",
"E. c #FA9427",
"W. c #EE8E2E",
"Q. c #C7B938",
"!. c #D4B430",
"~. c #FFA528",
"^. c #FFA830",
"/. c #E6B130",
"(. c #91CD3B",
"). c #B0C13F",
"_. c #D3C139",
"`. c #F3CA2C",
"'. c #F9D729",
"]. c #EFCD35",
"[. c #FCDC24",
"{. c #868557",
"}. c #9A9B58",
"|. c #8A924B",
" X c #AD8455",
".X c #89A946",
"XX c #94A845",
"oX c #8DB546",
"OX c #82BD46",
"+X c #84BD4C",
"@X c #8BBD4B",
"#X c #86B54B",
"$X c #94B74A",
"%X c #87A954",
"&X c #84B353",
"*X c #85B951",
"=X c #8BB855",
"-X c #95B856",
";X c #9DAE52",
":X c #ABAD45",
">X c #B2AF48",
",X c #9B8B67",
"<X c #AD8F6F",
"1X c #9DA76F",
"2X c #CE8D55",
"3X c #F29847",
"4X c #D1B247",
"5X c #FBA549",
"6X c #F8B355",
"7X c #E69D69",
"8X c #D1A77B",
"9X c #EFAE6F",
"0X c #D2996C",
"qX c #84C245",
"wX c #8BC446",
"eX c #86C14A",
"rX c #8BC24A",
"tX c #8CCA4D",
"yX c #8ACA48",
"uX c #91C44B",
"iX c #93CC4C",
"pX c #92C946",
"aX c #97D34B",
"sX c #8AC651",
"dX c #95CA51",
"fX c #91D450",
"gX c #EDC27A",
"hX c #79728C",
"jX c #7A7B99",
"kX c #677189",
"lX c #5C6B88",
"zX c #857388",
"xX c #B97282",
"cX c #CE7C80",
"vX c #768593",
"bX c #7992B6",
"nX c #6D8DAE",
"mX c #6592A1",
"MX c #709AC6",
"NX c #71A4D6",
"BX c #76B4E3",
"VX c #8F8C95",
"CX c #AD958F",
"ZX c #A7A48A",
"AX c #8B93AD",
"SX c #A598AD",
"DX c #A9A9AD",
"FX c #CDAC8A",
"GX c #DBB79C",
"HX c #CAC0B6",
"JX c #B4B7CB",
"KX c #9EB4D9",
"LX c #C9B2C2",
"PX c #ADC8E7",
"IX c #CFECFC",
"UX c #CFD0D8",
/* pixels */
"rX=Xc.M.sXrXrXrXrXrXrXrXrXrXrXrXrXrXrXrX@X@XuXrXuXwXrXuX@XrXrXrXrXrXrXrXrXrXrXrXrXrXrXrXrXrXrXrXrXrX",
"wX*XC.b.rXrXrXrXrXrXrXrXrXrXrXrXrXeXrXrXsXuX@X=X+X@X#Xx.rXwXrXrXrXrXrXrXrXrXrXrXrXeXrXrXrXrXrXrXrXrX",
"wXrXrXrXrXrXrXrXrXrXrXrXrXrXrXrXrXrXeXrX@XrXm.:X_._.Q.|.h.rXrXrXrXrXrXrXrXrXrXrXwXpXrXrXrXrXrXrXrXrX",
"rXrXrXrXrXrXrXrXrXrXrXrXrXrXrXrXrX@XeXrXdXsXG.[.'.'.'.!.M &XwXrXrXeXrXrX@XrXrXrXrXwXrXrXrXrXrXrX@XrX",
"rXrXrXrXeXrXqXqXuX@XrXrXrXrXrXrXrX+X+XuXk.hXFXgX4X].].'.D.%XwXrX+XeXrXrX*X@XrXrXrXrXrXeXrXeX@XuXrXrX",
"rXrXrXrXrXuXc.M.m.eXrXrXrXrXrXrXrXrXuXpX+.j DXe.LX].'.'.Q.@XrX+XrXrXrXrXrXrXrXrXrXrXrXM.v.qXsXrXrXrX",
"rXrXrXrXrXuXB.N.B.rXrXrXrXrXrXrXrX.X$X1X4X_.1XVXHX_.].].>X@XuXtX@XrXrXrXrXrXrXrXrXrXrXeXc.v.+XrXrXrX",
"rXrXrXrXwXrXwXrXrXeXrXrXrXrXwX@XrXXX6.ZX<X0X X0X4XT.!.>X%XwXwX|.oXyXrXrXrXoXrXrXrXrXrX+XN.z.m.rXrXrX",
"rXrXrXrXrXrXrXeXdXG.F.x.Z.tXsX#X@XrX+. XZXCX8.q.]._.0.-XdXuXXXS.rXtXZ.oX@XeXrXwXrXrXrXrX@X+X@XrXrXrX",
"rXrXrXrXrXeX+XrX$XQ.'.!.G.#XeXsXwXiXyXp 0.7.1 9 >XQ.j - i F.F.oXD.F.F.+XrXrXrXwXrXrXrXrXrXrXrXrXrXrX",
"rXrXeX@XrX+X+X@X:X!.].`.'.`.Q.oXm.M ; s 0.6 S 6 +.1X0.b f 9 p A.+.p b.XX.XZ.qXrXrXrXrXrXrXrXrXwXrXrX",
"rX+XrXrXuXn.B.@X$X!.'.`.`./.`.].G.k hXKXZX^ J ` q.r.|.>X$.w.L @.XXb.;X/.|.c.wXrXrXwXrXrXrXrXrXrXrXrX",
"rXrXrXrXwX*XB.uX-X>X:X4X_.'.Y.Y./.].>X,X6.K D P / / H |. .T T 3 y }.].'._.G.#XwXrXrXrXrXrXrXrXrXrXrX",
"rXrXrXrXrXwXrXqXqXrX@X*XXXG.!./.{ W <.G F D G D F G I P ` G H P q././.`._.XX@XrXrXrXrXrXrXrXrXpXwXrX",
"rXrXeXrX@XrXrX@X(.yX$X@XsXB.f 2X=.o.{ F I I S I D D F G D H ` T ,./.].Y.S.sXuXrXrXwXpXeXrXrXrXrXrXrX",
"rXrXeXrX+XqXrXrXM.Z.x.#XF.y g R H K F G S S S A A A F F F D W W Q Y.4X|.XXsX@XsXtXiX(.(.m.rXrXrXrXrX",
"rXrXrXrXrXc.v.M.g.i.v.uXA.x ! J K G I D S S > A > A > A A F G H H o.$.;XuX.X$X$XXX.XA.n.x.%XwXrXrXrX",
"rXrXrXrXwXz.@Xm.g.N.@X@XOXz w.H G D D S > > > A A > A > A F G H Y P / } W _ ` o.+.XX.Xl.V.*XrXrXrXrX",
"rXrXrXrXrXrX@XuXrX@X@X#X..6 SXr.G G I S S > > > > A A A A D G H K U ` O.$.+.$.XX;X@XeXz.+XrXrXrXrXrX",
"rXwXrXrXrXrXrXrXrX$XrXoXX./ 5._ D I S S S > A > A > > A > D K K P R S.=X%XrXtXoX$X$XrXuXrXrXrXrXrXrX",
"rXV.&XrXrXrX@X@XrX@X$X=XvXVXK J K F D A S A A A > A > > > D H P W |  ..X#X@XuXiXuX@XrXrXwXrXrXrXrX@X",
"rXm.+XrXrXrXrX@X@X@XF.bXNXzX~ H G F A A S A > A A > A > F F K 0.}.N S.S.XXtXx.h.x.aXeX+XrXrXrXrXV.*X",
"rXc.c.@XrXrX@X@XtXaX-XNXe.U R K G D F A A A A A A > > F F J L 6.0.f.dX$X+.- o 4 X u.wX+XrXrXrXrXrXrX",
"wXn.x.wXrXrXrXiXV.q C BXMXe.U K G D A A S A A > > A > F G J 5.1X{.h.XXu.@ | 2X3XW.- OX@XwXrXrXrXrXrX",
"rXrXuXrXrX@XrXV.= { VXbXbXw.U Y H F F A > A > > A A A A ^ ) 8.UX0.y @.X  .9X5 8 7Xn wXwXrXrXrXrXrXrX",
"rXrXrXrXwX@XaXu X.2XkXAX_ U U R R F ^ L > > > > A A A A < 6.,.r.v p 0 : 5Xn j.e b n.uXeXyXrXrXrXrXrX",
"rXrXrXrXOXqXdXm $.0.vXAX_ U T R U ' 7.L ^ J F > S I D , A ^ r.r.h..X+ ..Y.r aXn.#XwXZ.eX+XrXrXeX*XrX",
"rXrXrXrXqXp.m.+X0.0.N 7.~ U T W ( LXr.L 5 P ( ! ^ ^ ^ 7 A L VXDXt p.+ -.=.r aXuXrXwX(.M.eXrXrX+X+X@X",
"rXrXrXrXrXb.b.+XeXn...U ) ) ) / c r.y.) o < ( 7 4.w.L L A L hXAXx wX@ =.L.& eXuXwX=Xb.c.b.*XrXrXrXrX",
"rXrXrXrX+XN.b.n.A.$.T c C C B x r.JXr.] . , : 9 w.jX^ ^ b V bXMXlXC.l e E. .q aX@XrXB.N.b.@XrXrXrXrX",
"rXrXrXrXwXwX@XtXo.T M 5  .q x.y jXJXq. .o > , . 3 MXzXzXbXg V NXMXnXlXl N E.4 z.uXrXuXuXrXrXeXrXrXrX",
"rXrXrXrXwXyX` +.} D.w ] W.- m.@.C UXSX#.< , 3 V , AXhXw.nXg 7 V nXkXb e z P.#.q aX@XrXrXrXrXrXrXrXrX",
"rXrXrXrXpXA.} S.fXj.X E.$.r fXS.B IXPX` ^ 9 c cX: UXe.' e.6 V V lXjXf 8 l 1.P.e #XwXrXpXrXrXrXrXwXwX",
"+X+X+XrXrX+.wXfX#X# [ ^.y f.iXtXm PXJX) ` DXr.8.VXSXe.8.7.o.e.lXkXnXl z l y U.@.j.iXrXpXrXrXeX@XrXwX",
"rXrXrXrXrXtXqXiXw 1 P.^.- tXiXrXi KXIXSX0.<Xy.CXq.*.t.8.o.<XDXC OXk.B C l 4 R.1.i iXrXrXrXeX+XrXrXwX",
"rXwXrXrXrXeXiXj.$ ;.^.6.; u ; O # vXIXIXCXX.8.X.>.E.2Xr._ PXIXB (.uXh.B l X L.I.i iX@XrXrXrXrXrX@XrX",
"rXrXwXrXrX@XaXj ] P.5X=   $ 0 y & a JXvX#.,.r.1.=.:.{ >._ VXAX# h.uXeXk.n @ I.I.i tX+XyXrXrXrXrXrXrX",
"rXrXrXqXrXrXdXr -.U.$.  ] P.7Xc # l jXX.^.<.q.2X3.~.2XX.Q e.lX* m aXv.aXi . K.Y.i yXv.Z.rX@XrXrXrXrX",
"rXrXrX(.qX@XsXt >.~.5   >.P.=.0 % ; * d b 6.| 7.0.9.v 5 _ b f = i aXiXv.+ 1 K.1.i eXv.p.*X*XrXrXrXrX",
"+XrXrXp.z.&XsXi -.P.8 O :.K.L.U...& = & a 6 $ # & - = d / x d = f.pXh.@ o -.U.@.k.uXZ.i.B.@XrXrXrXrX",
"rXrXrXeX+X@XfXh.[ U.#.O 0 P.K.J.E.8 d l f 2 a a d f = 8 ( f e $ O + O 0 -.K.7Xj sXeXrX+XrXeXwXwXpXrX",
"rXrXrXrXrXrXrXm. .L.E.] O e W.6XFX#.=...9.8 y b v x  .` #.2X2Xt.9 1 *.H.K.gXZ x.tXeXrXrXrXrXrXrXwXrX",
"rXeXrXrXrXrX@XZ.f.<.P.L.} 4 y y.<.J.K.P.J.J.J.3.[ <.3.;.W.2X=.2.1.L.K.K.gXe.j.iX@XrXrXrXrXrXrXrX@XrX",
"rX+XrXrXrXrX@XpXs.n 2.~.P.H.;.;.K.~.6X7XE.E.L.J.H.H.<.T.5X>.H.H.I...5XGX0.a.iXrXrXrXrXV.+X@XrXrXrXwX",
"rXwXrXwXrXrXrXeXl.N.m  X7X5X^.5XGXFXe.y  X XT.H.J.J.E.v 5 %.E.L.H.I.6.= q aXwXwXrXrX+XeX@XrXrXrXrXrX",
"eXeXrXrXrXrXrXrXN.N.sXn.%X}.}.,X{.j.p.pXb.p.k.3.P.H.H.-.] <.X.I.P.P.~.t.u yX*XrXrXrXrXrXrXrXrXrXrXrX",
"rXrXrXrXrXrXrXrXsXuXrXuXrXeXeXeXqXsXuXrXrXuXyXk.&.7X3XE.6XFXm M e. X,XZ i.b.*XrXrXrXrXrXrXeXrXrXeXwX",
"rXwXrXrXrXrXrXrXrXrXrXrXrXrXrXeX*X&XwXrXrXrXwXpX#X|.{.}.%Xg.yXc.d.g.k.oXc.g.&XrXrXrXrXrXrXM.Z.@X@XrX",
"rXb.eXrXrXrXrXrXrXrXrXrXrXrXrXrXrXrXrXrXrXrXrXrXrXwXqXyXyX+XrX@X+XeXuXwX+X+XrXrXrXrXeXrXrX+XN.m.*XrX",
"uXz.z.pXrXrXrXrXrXrXrXrXrXrXrXrXrXrXrXrXrXrXrXrXrX@XwXrX@XrXrXrXrXwXrXrXrXuXrXrXrXrXrXrXrXrXg.N.@XeX"
};
