/* XPM */
static char *fb57ecafd38e4ddbf9a55de06528d2f5eNXfRk5lfdI2yuXM[] = {
/* columns rows colors chars-per-pixel */
"50 50 190 2 ",
"   c #007F00",
".  c #0B7B00",
"X  c #167400",
"o  c #1D7100",
"O  c #137B03",
"+  c #256D00",
"@  c #2D6B01",
"#  c #356600",
"$  c #3F6000",
"%  c #297405",
"&  c #317608",
"*  c #455D00",
"=  c #4D5A00",
"-  c #7F4000",
";  c #7F4905",
":  c #7F4F08",
">  c #724C03",
",  c #625000",
"<  c #705E0C",
"1  c #7E590E",
"2  c #436101",
"3  c #536407",
"4  c #50720E",
"5  c #507611",
"6  c #736712",
"7  c #7E771A",
"8  c #767A1D",
"9  c #657C21",
"0  c #7B7A24",
"q  c #803E00",
"w  c #804100",
"e  c #814A05",
"r  c #814E08",
"t  c #82540B",
"y  c #835C10",
"u  c #836314",
"i  c #836917",
"p  c #816718",
"a  c #826E19",
"s  c #84731D",
"d  c #82791F",
"f  c #857A21",
"g  c #018000",
"h  c #098405",
"j  c #0D850A",
"k  c #0E8909",
"l  c #13860C",
"z  c #148A0B",
"x  c #1A8D0E",
"c  c #178707",
"v  c #1A900E",
"b  c #168910",
"n  c #1C8C11",
"m  c #1A8817",
"M  c #1F9312",
"N  c #228E1D",
"B  c #239213",
"V  c #299416",
"C  c #27901A",
"Z  c #2D9519",
"A  c #2E9A1D",
"S  c #2F9C13",
"D  c #319A17",
"F  c #31961C",
"G  c #34991C",
"H  c #399B1E",
"J  c #3E961D",
"K  c #28980A",
"L  c #198320",
"P  c #248923",
"I  c #339525",
"U  c #3E9D22",
"Y  c #369823",
"T  c #3E9733",
"R  c #528B27",
"E  c #409E21",
"W  c #559623",
"Q  c #4C9E32",
"!  c #758521",
"~  c #699025",
"^  c #6D9A2C",
"/  c #78952E",
"(  c #728E36",
")  c #6F9F3A",
"_  c #769B30",
"`  c #7B9B30",
"'  c #45A125",
"]  c #4AA427",
"[  c #47A028",
"{  c #4DA529",
"}  c #51A72B",
"|  c #55AA2C",
" . c #58AA2F",
".. c #4CA034",
"X. c #5DAD32",
"o. c #58A634",
"O. c #59B138",
"+. c #59B132",
"@. c #6EBB2D",
"#. c #61AF34",
"$. c #6DA13F",
"%. c #62AE38",
"&. c #6AAD3F",
"*. c #72A533",
"=. c #7AA838",
"-. c #65B136",
";. c #6BB437",
":. c #64B03C",
">. c #6CB43A",
",. c #68BB3D",
"<. c #71B73D",
"1. c #75B93F",
"2. c #7AC137",
"3. c #79C23F",
"4. c #50965D",
"5. c #599E5A",
"6. c #5CA743",
"7. c #5AA74E",
"8. c #5BA452",
"9. c #6AAC42",
"0. c #74AF48",
"q. c #64B443",
"w. c #6CB546",
"e. c #6FB944",
"r. c #6DB24B",
"t. c #74BC44",
"y. c #7BBC44",
"u. c #73B44D",
"i. c #7AB44E",
"p. c #76B849",
"a. c #7CBA4B",
"s. c #66AA52",
"d. c #6AA956",
"f. c #6BA45A",
"g. c #73AD55",
"h. c #70A758",
"j. c #78AB59",
"k. c #6FB050",
"l. c #74B351",
"z. c #7DB452",
"x. c #7CC143",
"c. c #868628",
"v. c #858D2C",
"b. c #868427",
"n. c #86922E",
"m. c #88902B",
"M. c #869532",
"N. c #889630",
"B. c #889F36",
"V. c #88A036",
"C. c #86A539",
"Z. c #89A539",
"A. c #84AC3C",
"S. c #89AB3C",
"D. c #80B13D",
"F. c #8AB03F",
"G. c #8FBD3C",
"H. c #8CC53C",
"J. c #87C93D",
"K. c #90D037",
"L. c #9AD23C",
"P. c #83AD48",
"I. c #8AB441",
"U. c #82BE45",
"Y. c #82BD45",
"T. c #8ABB45",
"R. c #85BD4C",
"E. c #89BE4D",
"W. c #83B545",
"Q. c #82B552",
"!. c #85BA50",
"~. c #85C147",
"^. c #83C246",
"/. c #8DC647",
"(. c #86C148",
"). c #86C149",
"_. c #89C249",
"`. c #8BC34A",
"'. c #8BC24B",
"]. c #89C24A",
"[. c #8CC34A",
"{. c #8CC34B",
"}. c #8DC44B",
"|. c #8CC44B",
" X c #8EC54A",
".X c #8BC34A",
"XX c #8EC849",
"oX c #90C746",
"OX c #92CA44",
"+X c #90C748",
/* pixels */
"`.`.!.l.t.{.{..X`.`.`.`.`.`.`.`.'.[.`.<.;.#.{ { ] G B B G  .;.y.`.`.`.`.`.`.`.`.`.`.`.`..X.X.X.X.X.X",
"`.`.!.j.p.'..X.X`.`.`.`.`.`.`.`.t.#.H k h h     g g   g g h h l V X.U.[.`.`.`.`.`.`.`.`..X.X.X.X.X.X",
"`.`.`.`.`..X.X.X`.`.`.`.`.`.'.#.l       g g g g g g g g g g       h H `.`.`.`.`.OX[.`.`..X.X`.`..X.X",
"`.`.`.`.`..X.X.X`.`.`.`.`.`.Y.V   h h z g   g     g C b g   g g     k >.`.`.`.`.[.[.{.`.[.`.`.`..X.X",
".X.X.X.X`.`.`.x.`.`.`.`.[.[. .g g   g z g g g g   h T I g g j V z   x ] R..X[.[.[.y.-.-.-.U.`.`..X.X",
".X[..X[.`.(.U.w.p.R.'.`.`.`.Z   g g g g g g g g     j h g g Z B h   h x  .[.`.[.1.B g k z U `..X.X.X",
".X.X[.y.#.{ { ..6.z.`.`.[.U.x   g g g j g g g j h     g   g   g g g g   D (.[.[.'   g h z C >..X.X.X",
".X[.y.{ ' F G F ' <.{.[.[.>.h g   g g z g g   b h   g g g g z C g   h   x U.[._.B     g g g U `..X.X",
".X~.-.' Z V H Z Y { ~.`.[.X.g   g g g g g l m g     g g   g B V h h v g k y.[.;.h g g g     x y.[..X",
"[.>.' G B V D Z H G 1.[.~.G   g   g   g g L P g     g     z k g h k h h z 1._.G g   g       h #.[.[.",
"[. .H B n D V V G  .`.`.U.x   g x g g   g g   g g     g g h K h M A x M A (.y.z   g g g       { [..X",
"[.} G G A G Y I ' 1.`.`.(.B   h z g g g   g g g j j   g g g k g S S b B O.~.U.x   g g   g g h ;.[.[.",
"[.y.#.' E 4 R 9.U.[..X.X(.V j h j m h     g g g j j g g g g m h k h N :.w.E.`.Z     g g g   G `.[.[.",
"`.`.y.;.D.y v.{.~.~..X.X.X' g g g h g   g g g       g   g g j     B >.'.E.{.[.{   g   g g h ;.OX.X.X",
"[.U.Z k ^ u N..X~.J./..X.X<.x     g g g   g g       g g g g     h -.}..X{..X{.>.h   g g   G `.`..X.X",
"`.`.#. .` y n..X.Xt.t.x.^.t.-.z   g g   g   h g g g g   g       Z (..X.X.X.X`.`.D   g   j <.[.`..X.X",
".X.X[.[.E.p / x.p.8.q.^.^.,.^.#.z   g g g z Y l     g g g g h Z t.[.`.`.R.'.`.}.1.B O z Q '.`.[.[..X",
".X.X[.`.'.7 ( (.k.5.r.`._.,.a.`.-.B h     j l j g g g g h A ;.~..X(.`.`.!.'.`.`.'.y.9 9.!.`.(.U..X.X",
".X.X`.`.[.f C.`.y.X.V X..X.X`.`.`.^.} V h   g g g g V | <.(.[.`.`.3.^.E.'.`.`.`.{.T.0 P..X(.' B t.[.",
"[..X`.`.[.E.[.y. .V g h H -.`.`.`.(.p.).#.z X @ * 5 2.t.`.`.`.`.`.K.J.!.E.'.`.`.{.T.s I..X-.h h >.+X",
".X`.z.Q.`.`.`.`.X.n g g Z -.[.`.`.(.a.R.{.*.> - q d (.a.`.`.`.[.}..Xy.R.E.`.`.`.{.T.s I.T.J h ' `.`.",
".X.Xa.Y.`.`.`.`.X.n g g z #.(.[.`.`.`.`.{.S.e w q f {.[.`.`.`.>.{ U C U X.(.`.`.OXT.s v.n.=.<.i.R.`.",
"`.`.t.r.(.`.[._.{ l g g h B o.E.`.`.`.`.{.S.; w q s .X.X[.[.y.z         h ;.{.'.OXG.u Z._.[.[..XE.`.",
"`.`.a.u.`.`.[._. .G c O h x &.E.`.`.`.`.|.S.w - q u T..X[.[.y.z         h >.`.`._.A.d [..X.X.X.X`.`.",
"`.`.`.[.`.`.`.`.t.e.A._ 1.y.E.`..X.X.X.X.XZ.w q q r I.[.T.I.v.% g     x %.Q.`.`.{.S.b.`.`.`.`.`.`.`.",
"`.`.`.`.`.`.`.`.}.).Y.{.[.[.`.`..X.X.X.X|.Z.e w w w f a u y u ~ G A ' y.[.`.`.`.{.S.b.`.`.`.`.[.`.`.",
"`.`.`.`.`.^.(.E.'.'.).).`.[.`.`..X.X.X.X|.S.e q w w q q t v.T.[..X.X{.{.`.`.`.`.{.1.f T.`.`.E.R.`.`.",
"`.`.`.`.`.^.t.a.'.'.'.(.[./.`.`..X.X.X.X.XI.r q w w w i I..X[.[..X{.{.{.`.`.`.`.[.H.7 W.'.`.R.R.`.`.",
"[._..X.X`.R.w.p.R.{..X.X.X[..X.X.X.X.X.X{.I.t q w q u I.{.`.`.^.^.(.x.).`.`.`.`.E.Q.$.u.R.`.`.`.`.`.",
".X.X.X.X`.R.g.p.)..X.X.X.X^..X{..X.X.X.X{.S.; - q q i [.`.`.`.~.x.t.q.z.E.`.`.`.T.Q.g.u.R.`.`.`.`.`.",
".X.X.X.X.X.X`.`..X.X.X.X[.y.y.(..X.X.X.X.XF.e q w q u Y..X.X`.`.:.r.u.R.E.`.`.`.`.`.`.`.`.`.`.`.`.`.",
".X.X.X.X.X.X`.`..X.X.X.X.Xl.l.p..X.X.X.X.XI.t q q q 1 9.a.[.[.(.k.u.i.E.`.`.`.`.`.`.`.`.`.`.`.`.`.`.",
".X`.`.`.`.OX[.`.`.(.`.[.[.`.R.R..X.X.X^.x.I.t q w q : o.l..X[.[.`.(..X.X.X^.).`.`.[./.[.[..X.X.X[.[.",
"[.`.Y.(.~.#.E D V B Z H ] >.`.[..X.X.X.X3.=.e w w q e =.z.!.[.[..X.X.X.X.X`.'.{..X[./.[.[..X.X.X[.`.",
"`.'.{.(.U h               h D t..X.X.X.X^.! - - q q w P.!.!.`.`..X.X.X.X.X.X.X.X.X.X.X.X'.).'..X[.`.",
"`.'.}.-.h   g g g g g g       G .X.X.X.XT.1 - - q q q M.'.`.`.`..X.X.X.X.X~..X.X.X.X[..X'.{.'.).`.`.",
"`.`.}.{ g g   g g   g g   g   x ^..X.X.XM.w w w q q q N.[.[.`.`..X.X[.[.[.^.x..X[..X(.{.{.'.'.'.`.`.",
"`.`.}.>.z g   o .   g g g h x } .X[..X.Xd q q q w q q N.{.`.`.`.[..X^.^.'.y.+.-.>.x.x.{.'.'.'.'.`.`.",
"`.'.`..X@.n g + # + X @ W <.U.L./.(.[.T.u q - w w w q m.XX'.'.`..X.X^.x.:.n h h h v +.a.!.'.{..X`.`.",
"`.'.`.`.t.o.C O * * = 8 T.{.{.OXp.^.[.[.u q w - q q q f `.(.[.`..X.X.Xe.F g g g g g G l.E..X.X.X`.`.",
"`.`.`.{.(.).a.*.6 , 3 C.[..X'.z.r.t.).I.y - - ; e e t u T..X[.[.[.[.[.y.n     . h   x y.{.[.[.oX`.`.",
"`.`.`.'.}.[.[.{.S.n.` C..X.X'.!.a.^.'.E.V.B.M.I.S.S.I.I.`.OXOX/.`.[.[.y.x . 2 $ * & Z U.[.[.[.[.`.`.",
"`.`.).'.`.`..X(.x.~.a.e.R.'.'.{.[..X.X.X[.{.{.{..XXX`..X`.`.[.[.`.`.[.E.>.^ 7 < u C.(.[.`.`.[.[.`.`.",
"'.'.'.`.`.`..X.XJ.t.w.u.!..X{.{..X[..X.X(.^.x.)..X.X`.`.`.`.`.(.`.`.[.[.[.[.T.I.I.(.R.i.`.`.`.`.`.`.",
"`.`.`.`..X.X.X.Xy.8.d.z.'.`.`.`..X/.[..Xp.p.^..X.X.X.X.X.X.X.Xx.t._.[..X`.`.`..X}.(.Y.`.`.`.`.`.`.`.",
"`.`.`.`..X.X.X.X!.d.g.R.`.`.`.`..X.X.X.X(.p..XXX[..X.X.X^..X.XXXL.^.^.^.y.E.!.`.'..X}.[.`.`.`.`.`.`.",
"`.`.`.`..X.X.X.X{..X`.`.`.`.`.`.R.R..X.X}..X.X/./..X.X.Xa.t.y.a.u.q.p.y.q.Q.'.`.'.}..X.X(.`.`.`.`.`.",
"`.`.`.`..X.X.X.X.X.X`.`.`.`.`.`.).!.'..X.X.X.X[.[..X.X.X).r.a.s.4.f.Q.a.7.j.R.`.`.`..X.Xa.y.R.R.`.`.",
"`.`.p.^.'.{..X.X.X.X.X.X.X.X.X.X.X.X.X.X.X.X.X.X.X.X.X.X.XR.`.R.a.!.'.(.R.R.'.'..X.X.X.X).s.!.!.`.`.",
"`.`.r.k.'.'..X.X.X.X.X.X.X.X.X.X.X.X[..X.X.X.X.X[..X.X.X.X.X.X.X}.}.`.`.`.`..X'..X.X.X.X).8.h.!.`.`."
};
